<svg width="16" height="17" viewBox="0 0 16 17" fill="none" xmlns="http://www.w3.org/2000/svg">
<path d="M14.875 3.25H1.125C0.779822 3.25 0.5 3.52982 0.5 3.875C0.5 4.22018 0.779822 4.5 1.125 4.5H14.875C15.2202 4.5 15.5 4.22018 15.5 3.875C15.5 3.52982 15.2202 3.25 14.875 3.25Z" fill="black" fill-opacity="0.4"/>
<path d="M5.5 7.625V12.625C5.5 12.9702 5.77982 13.25 6.125 13.25C6.47018 13.25 6.75 12.9702 6.75 12.625V7.625C6.75 7.27982 6.47018 7 6.125 7C5.77982 7 5.5 7.27982 5.5 7.625Z" fill="black" fill-opacity="0.4"/>
<path d="M9.25 7.625V12.625C9.25 12.9702 9.52982 13.25 9.875 13.25C10.2202 13.25 10.5 12.9702 10.5 12.625V7.625C10.5 7.27982 10.2202 7 9.875 7C9.52982 7 9.25 7.27982 9.25 7.625Z" fill="black" fill-opacity="0.4"/>
<path d="M3 15.75V3.875C3 3.52982 2.72018 3.25 2.375 3.25C2.02982 3.25 1.75 3.52982 1.75 3.875V15.75C1.75 16.2678 2.11612 16.6339 2.11612 16.6339C2.48223 17 3 17 3 17H13C13.5178 17 13.8839 16.6339 13.8839 16.6339C14.25 16.2678 14.25 15.75 14.25 15.75V3.875C14.25 3.52982 13.9702 3.25 13.625 3.25C13.2798 3.25 13 3.52982 13 3.875V15.75H3Z" fill="black" fill-opacity="0.4"/>
<path d="M4.79918 1.29917C4.25 1.84835 4.25 2.625 4.25 2.625V3.875C4.25 4.22018 4.52982 4.5 4.875 4.5C5.22018 4.5 5.5 4.22018 5.5 3.875V2.625C5.5 2.36612 5.68306 2.18306 5.68306 2.18306C5.86612 2 6.125 2 6.125 2H9.875C10.1339 2 10.3169 2.18306 10.3169 2.18306C10.5 2.36612 10.5 2.625 10.5 2.625V3.875C10.5 4.22018 10.7798 4.5 11.125 4.5C11.4702 4.5 11.75 4.22018 11.75 3.875V2.625C11.75 1.84835 11.2008 1.29917 11.2008 1.29917C10.6517 0.75 9.875 0.75 9.875 0.75H6.125C5.34835 0.75 4.79918 1.29917 4.79918 1.29917Z" fill="black" fill-opacity="0.4"/>
</svg>
