<svg width="20" height="21" viewBox="0 0 20 21" fill="none" xmlns="http://www.w3.org/2000/svg">
<path fill-rule="evenodd" clip-rule="evenodd" d="M12.5 14.2501C12.5 14.2501 11.5031 14.2539 10.5655 13.9435L9.81694 14.6921C9.69973 14.8093 9.54076 14.8751 9.375 14.8751H8.125V16.1251C8.125 16.4703 7.84518 16.7501 7.5 16.7501H6.25V18.0001C6.25 18.3453 5.97018 18.6251 5.625 18.6251H2.5C2.15482 18.6251 1.875 18.3453 1.875 18.0001V14.8751C1.875 14.7093 1.94085 14.5504 2.05806 14.4332L6.55665 9.93458C6.55665 9.93458 6.24625 8.99665 6.25 7.99776C6.25 7.99776 6.25 6.10419 7.30331 4.5278C7.30331 4.5278 8.35663 2.9514 10.1082 2.22586C10.1082 2.22586 11.8598 1.50033 13.7193 1.8702C13.7193 1.8702 15.5788 2.24008 16.9194 3.58069C16.9194 3.58069 18.26 4.9213 18.6299 6.7808C18.6299 6.7808 18.9998 8.64028 18.2742 10.3919C18.2742 10.3919 17.5487 12.1435 15.9723 13.1968C15.9723 13.1968 14.3959 14.2501 12.5 14.2501ZM12.5 13.0001C12.5 13.0001 11.5348 13.0037 10.6431 12.6405L10.6422 12.6401C10.4887 12.5775 10.3166 12.5785 10.1638 12.6428C10.0893 12.6742 10.0215 12.7197 9.96431 12.7769L9.11612 13.6251H7.5C7.15482 13.6251 6.875 13.9049 6.875 14.2501V15.5001H5.625C5.27982 15.5001 5 15.7799 5 16.1251V17.3751H3.125V15.134L7.72319 10.5358C7.90103 10.358 7.95495 10.0908 7.86001 9.85794C7.86001 9.85794 7.49637 8.96583 7.5 8.00246C7.5 8.00246 7.5 6.48338 8.34265 5.22226C8.34265 5.22226 9.1853 3.96114 10.5866 3.38071C10.5866 3.38071 11.9879 2.80028 13.4755 3.09618C13.4755 3.09618 14.963 3.39208 16.0355 4.46458C16.0355 4.46458 17.108 5.53707 17.4039 7.02466C17.4039 7.02466 17.6998 8.51224 17.1194 9.91353C17.1194 9.91353 16.539 11.3148 15.2779 12.1575C15.2779 12.1575 14.0167 13.0001 12.5 13.0001Z" fill="black" fill-opacity="0.4"/>
<path d="M15 6.43768C15 6.95545 14.5802 7.37518 14.0625 7.37518C13.5448 7.37518 13.125 6.95545 13.125 6.43768C13.125 5.91991 13.5448 5.50018 14.0625 5.50018C14.5802 5.50018 15 5.91991 15 6.43768Z" fill="black" fill-opacity="0.4"/>
</svg>
