<svg width="24" height="24" viewBox="0 0 24 24" fill="none" xmlns="http://www.w3.org/2000/svg">
<path d="M15 6H9C8.58579 6 8.25 6.33579 8.25 6.75C8.25 7.16421 8.58579 7.5 9 7.5H15C15.4142 7.5 15.75 7.16421 15.75 6.75C15.75 6.33579 15.4142 6 15 6Z" fill="#858B8F"/>
<path d="M15 9H9C8.58579 9 8.25 9.33579 8.25 9.75C8.25 10.1642 8.58579 10.5 9 10.5H15C15.4142 10.5 15.75 10.1642 15.75 9.75C15.75 9.33579 15.4142 9 15 9Z" fill="#858B8F"/>
<path fill-rule="evenodd" clip-rule="evenodd" d="M18 2.25C18 2.25 18.6213 2.25 19.0607 2.68934C19.0607 2.68934 19.5 3.12868 19.5 3.75V20.25C19.5 20.25 19.5 20.8713 19.0607 21.3107C19.0607 21.3107 18.6213 21.75 18 21.75H6C6 21.75 5.37868 21.75 4.93934 21.3107C4.93934 21.3107 4.5 20.8713 4.5 20.25V3.75C4.5 3.75 4.5 3.12868 4.93934 2.68934C4.93934 2.68934 5.37868 2.25 6 2.25H18ZM18 3.75H6V20.25H18V3.75Z" fill="#858B8F"/>
<path d="M13.125 16.875C13.125 17.4963 12.6213 18 12 18C11.3787 18 10.875 17.4963 10.875 16.875C10.875 16.2537 11.3787 15.75 12 15.75C12.6213 15.75 13.125 16.2537 13.125 16.875Z" fill="#858B8F"/>
</svg>
