<svg width="24" height="24" viewBox="0 0 24 24" fill="none" xmlns="http://www.w3.org/2000/svg">
<path fill-rule="evenodd" clip-rule="evenodd" d="M16.8107 21.3107C16.8107 21.3107 16.3713 21.75 15.75 21.75H5.25C5.25 21.75 4.62868 21.75 4.18934 21.3107C4.18934 21.3107 3.75 20.8713 3.75 20.25V6.75C3.75 6.75 3.75 6.12868 4.18934 5.68934C4.18934 5.68934 4.62868 5.25 5.25 5.25H12.75C12.9489 5.25 13.1397 5.32902 13.2803 5.46967L17.0303 9.21967C17.171 9.36032 17.25 9.55109 17.25 9.75V20.25C17.25 20.25 17.25 20.8713 16.8107 21.3107ZM15.75 20.25V10.0607L12.4393 6.75H5.25V20.25H15.75Z" fill="#858B8F"/>
<path d="M18.75 17.25H16.5C16.0858 17.25 15.75 17.5858 15.75 18C15.75 18.4142 16.0858 18.75 16.5 18.75H18.75C19.3713 18.75 19.8107 18.3107 19.8107 18.3107C20.25 17.8713 20.25 17.25 20.25 17.25V6.75C20.25 6.55109 20.171 6.36032 20.0303 6.21967L16.2803 2.46967C16.1397 2.32902 15.9489 2.25 15.75 2.25L8.25 2.25C7.62868 2.25 7.18934 2.68934 7.18934 2.68934C6.75 3.12868 6.75 3.75 6.75 3.75V6C6.75 6.41421 7.08579 6.75 7.5 6.75C7.91421 6.75 8.25 6.41421 8.25 6V3.75H15.4393L18.75 7.06066V17.25Z" fill="#858B8F"/>
<path d="M8.25 15H12.75C13.1642 15 13.5 14.6642 13.5 14.25C13.5 13.8358 13.1642 13.5 12.75 13.5H8.25C7.83579 13.5 7.5 13.8358 7.5 14.25C7.5 14.6642 7.83579 15 8.25 15Z" fill="#858B8F"/>
<path d="M8.25 18H12.75C13.1642 18 13.5 17.6642 13.5 17.25C13.5 16.8358 13.1642 16.5 12.75 16.5H8.25C7.83579 16.5 7.5 16.8358 7.5 17.25C7.5 17.6642 7.83579 18 8.25 18Z" fill="#858B8F"/>
</svg>
