<svg width="30" height="30" viewBox="0 0 30 30" fill="none" xmlns="http://www.w3.org/2000/svg">
<g clip-path="url(#clip0_9759_291656)">
<path d="M27.5041 2.35225C27.1653 2.35146 26.8257 2.35225 26.4665 2.35225C26.4861 1.7538 26.4916 1.19379 26.1229 0.716126C25.7567 0.242388 25.2759 -0.000755283 24.6783 0.00159772C24.2281 0.00395072 23.8375 0.169445 23.5058 0.472198C22.9591 0.972603 22.8924 1.62517 22.9505 2.33107H19.9984C19.9984 2.12401 20.0015 1.9389 19.9976 1.75302C19.9772 0.767108 19.2031 -0.000755283 18.2322 2.90515e-05C17.2628 0.000813386 16.4887 0.773383 16.4707 1.75851C16.4675 1.95067 16.4707 2.14361 16.4707 2.32872H13.528C13.528 2.12008 13.5319 1.9342 13.5272 1.74831C13.506 0.763186 12.728 -0.00310829 11.7563 2.90515e-05C10.7877 0.00316639 10.0175 0.77652 10.0002 1.764C9.9971 1.95537 10.0002 2.14675 10.0002 2.33735H7.05756C7.05756 2.13969 7.0607 1.95616 7.05756 1.77262C7.04031 0.767892 6.26464 -0.00546129 5.28114 2.90515e-05C4.31254 0.00551939 3.5455 0.779657 3.52981 1.7687C3.52667 1.96008 3.52903 2.15146 3.52903 2.35225C3.14943 2.35225 2.81689 2.35146 2.48435 2.35225C0.996545 2.35538 0.000492085 3.35384 0.000492085 4.848C-0.0010765 12.3972 -0.000292208 19.9456 -0.000292208 27.4949C0.000492085 29.0055 0.994976 29.9992 2.50474 30C10.8379 30 19.171 30.0008 27.5041 29.9992C28.9958 29.9992 29.9981 29.0024 29.9981 27.5145C29.9997 19.9558 29.9997 12.3964 29.9981 4.8378C29.9981 3.34914 28.9974 2.35538 27.5041 2.35225ZM24.1191 1.80164C24.1222 1.42987 24.3795 1.17182 24.7151 1.1781C25.0398 1.18359 25.283 1.43458 25.2908 1.79223C25.2979 2.14989 25.2932 2.50833 25.2932 2.86599C25.2924 2.88952 25.2924 2.91226 25.2924 2.93579C25.2924 3.04403 25.2932 3.15305 25.294 3.26129C25.2947 3.51463 25.2963 3.76719 25.2916 4.01974C25.2853 4.41348 25.0398 4.69584 24.7112 4.70054C24.3873 4.70525 24.123 4.4174 24.1191 4.02915C24.112 3.28639 24.1128 2.54362 24.1191 1.80164ZM17.6479 1.80321C17.6557 1.43144 17.9075 1.17261 18.2432 1.1781C18.5679 1.18281 18.8165 1.43379 18.8196 1.79066C18.8275 2.54284 18.8275 3.2958 18.8204 4.04798C18.8165 4.42132 18.5616 4.69505 18.2424 4.70054C17.9287 4.70603 17.6604 4.42838 17.6494 4.05974C17.6377 3.66993 17.6471 3.27855 17.6471 2.88795C17.6471 2.52637 17.6416 2.16401 17.6479 1.80321ZM11.179 1.78988C11.1822 1.43379 11.4316 1.18202 11.7563 1.1781C12.0919 1.17339 12.3429 1.43144 12.35 1.804C12.357 2.15224 12.3523 2.50127 12.3523 2.84952C12.3515 2.87226 12.3515 2.89501 12.3515 2.91775C12.3515 3.0307 12.3523 3.14364 12.3531 3.25737C12.3547 3.51541 12.3555 3.77346 12.3508 4.03229C12.3429 4.42211 12.0857 4.70525 11.7586 4.70054C11.4425 4.69584 11.1829 4.41818 11.179 4.04641C11.1704 3.29423 11.1712 2.54206 11.179 1.78988ZM4.70704 1.80792C4.7141 1.43379 4.96193 1.17575 5.29761 1.1781C5.63329 1.18045 5.8772 1.4385 5.88034 1.81576C5.88583 2.54833 5.88505 3.2809 5.88034 4.01425C5.87799 4.40956 5.63486 4.69113 5.30624 4.70054C4.97291 4.70996 4.71253 4.41348 4.70704 4.00641C4.70155 3.63463 4.70547 3.26364 4.70547 2.89187C4.70547 2.53029 4.70076 2.16871 4.70704 1.80792ZM28.8225 27.4941C28.8225 28.3521 28.3535 28.8235 27.4986 28.8235H2.50082C1.64437 28.8235 1.17615 28.3529 1.17615 27.4949V9.41675H28.8225V27.4941ZM28.8186 8.21358H1.19262C1.18713 8.13985 1.17693 8.06455 1.17693 7.98926C1.17615 6.92099 1.17379 5.85195 1.17693 4.78368C1.17928 4.0221 1.6679 3.53424 2.42631 3.52953C2.77924 3.52718 3.13139 3.52875 3.52903 3.52875C3.52903 3.73111 3.52824 3.92248 3.52903 4.11308C3.53216 5.10997 4.30313 5.88175 5.29447 5.88175C6.28739 5.88175 7.05599 5.11154 7.05835 4.11308V3.54522H9.99945C9.99945 3.73032 9.99866 3.9217 9.99945 4.11308C10.0026 5.10918 10.7735 5.88175 11.7649 5.88175C12.7578 5.88175 13.5264 5.11075 13.5288 4.11308V3.53502H16.4699C16.4699 3.73032 16.4691 3.9217 16.4699 4.11229C16.473 5.10918 17.2432 5.88175 18.2345 5.88175C19.2282 5.88175 19.9968 5.11154 19.9992 4.11308V3.54522H22.9403C22.9403 3.73032 22.9395 3.92092 22.9403 4.11229C22.9434 5.10918 23.7136 5.88175 24.7049 5.88175C25.6986 5.88175 26.4673 5.11154 26.4696 4.11386V3.53816C26.9308 3.53816 27.3715 3.50757 27.806 3.54522C28.3511 3.59306 28.8029 4.06288 28.8123 4.60721C28.8327 5.80175 28.8186 6.99708 28.8186 8.21358Z" fill="#E74D3A"/>
<path d="M12.3532 3.25746C12.3525 3.14373 12.3518 3.03079 12.3518 2.91785C12.3518 2.8951 12.3518 2.87236 12.3525 2.84961V2.91785C12.3525 3.03079 12.3532 3.14452 12.3532 3.25746Z" fill="white"/>
<path d="M25.2941 3.26152C25.2934 3.15328 25.2927 3.04425 25.2927 2.93602C25.2927 2.91249 25.2927 2.88974 25.2934 2.86621V2.93602C25.2934 3.04504 25.2941 3.15328 25.2941 3.26152Z" fill="white"/>
<path d="M8.2351 13.2488C8.2351 12.7986 8.23667 12.3484 8.23431 11.8982C8.23274 11.3915 8.02491 11.1774 7.52688 11.1766C6.62651 11.1742 5.72614 11.1742 4.82577 11.1766C4.33951 11.1774 4.11991 11.3915 4.11834 11.8691C4.11599 12.779 4.11599 13.6896 4.11834 14.5994C4.11991 15.0661 4.33873 15.2904 4.79597 15.2928C5.71595 15.2959 6.63592 15.2959 7.5559 15.2928C8.01393 15.2904 8.23118 15.0661 8.23431 14.5994C8.23745 14.1492 8.2351 13.699 8.2351 13.2488ZM7.03434 14.1108H5.31674V12.3719H7.03434V14.1108Z" fill="#E74D3A"/>
<path d="M14.1157 11.8197C14.1134 11.4142 13.8804 11.1797 13.4765 11.1774C12.5369 11.1727 11.5974 11.1727 10.6578 11.1774C10.2319 11.1789 10.0037 11.4064 10.0013 11.8307C9.99661 12.7601 9.9974 13.6904 10.0005 14.6198C10.0029 15.0637 10.2272 15.2881 10.6695 15.2928C11.1291 15.2967 11.5895 15.2935 12.0491 15.2935C12.5189 15.2935 12.9887 15.2975 13.4585 15.292C13.8844 15.2873 14.1134 15.0622 14.1157 14.6378C14.1204 13.6982 14.1204 12.7586 14.1157 11.8197ZM12.9173 14.0959H11.1895V12.368H12.9173V14.0959Z" fill="#E74D3A"/>
<path d="M19.9987 11.8557C19.9971 11.4079 19.7752 11.1796 19.336 11.178C18.4058 11.1733 17.4764 11.1741 16.5462 11.178C16.1062 11.1796 15.8866 11.4071 15.8827 11.8549C15.8788 12.3044 15.8819 12.7553 15.8819 13.2056C15.8819 13.6652 15.8804 14.1248 15.8827 14.5852C15.8851 15.0707 16.0984 15.2919 16.5745 15.2934C17.485 15.2966 18.3948 15.2958 19.3054 15.2934C19.772 15.2919 19.9963 15.0738 19.9987 14.6158C20.0018 13.6958 20.0018 12.7757 19.9987 11.8557ZM18.8073 14.0942H17.0788V12.3663H18.8073V14.0942Z" fill="#E74D3A"/>
<path d="M25.8816 13.2347C25.8816 12.7939 25.8824 12.3539 25.8816 11.9131C25.8801 11.3876 25.6746 11.1774 25.1585 11.1766C24.2684 11.1742 23.3774 11.1742 22.4872 11.1766C21.979 11.1774 21.7657 11.3852 21.7649 11.8833C21.7625 12.7837 21.7625 13.6841 21.7649 14.5845C21.7657 15.0708 21.9806 15.2912 22.4574 15.2928C23.3672 15.2959 24.2778 15.2951 25.1875 15.2928C25.6644 15.2912 25.8785 15.0708 25.8809 14.5853C25.8832 14.1351 25.8816 13.6849 25.8816 13.2347ZM24.6927 14.1014H22.9641V12.3735H24.6927V14.1014Z" fill="#E74D3A"/>
<path d="M8.23427 17.75C8.2327 17.2841 8.01389 17.0606 7.55429 17.059C6.6351 17.0559 5.71512 17.0559 4.79515 17.059C4.3481 17.0606 4.12066 17.2833 4.11909 17.7233C4.11517 18.6535 4.11438 19.583 4.11909 20.5132C4.12066 20.9516 4.34967 21.1713 4.7975 21.1752C5.25788 21.1791 5.71748 21.176 6.17786 21.176C6.62804 21.176 7.07822 21.1775 7.52841 21.1752C8.0131 21.1728 8.2327 20.9595 8.23427 20.481C8.23741 19.5704 8.23663 18.6606 8.23427 17.75ZM7.04058 19.994H5.3167V18.2551H7.04058V19.994Z" fill="#E74D3A"/>
<path d="M14.1165 17.7523C14.1134 17.2849 13.8969 17.0613 13.4389 17.059C12.5189 17.0559 11.5989 17.0559 10.679 17.059C10.2201 17.0613 10.0021 17.2841 10.0005 17.7508C9.99819 18.6614 9.99819 19.5712 10.0005 20.4818C10.0021 20.9477 10.2209 21.1728 10.6782 21.1752C11.5981 21.1783 12.5181 21.1783 13.4381 21.1752C13.8961 21.1728 14.1134 20.9485 14.1165 20.4826C14.1197 20.0324 14.1173 19.5822 14.1173 19.132C14.1173 18.6724 14.1197 18.212 14.1165 17.7523ZM12.9181 19.9791H11.1942V18.2402H12.9181V19.9791Z" fill="#E74D3A"/>
<path d="M19.3046 17.0594C18.3948 17.057 17.4843 17.057 16.5745 17.0594C16.1078 17.061 15.8843 17.279 15.8827 17.7386C15.8796 18.6579 15.8796 19.5779 15.8827 20.4979C15.8851 20.9552 16.1094 21.1724 16.576 21.1756C17.0262 21.1787 17.4764 21.1764 17.9266 21.1764C18.3768 21.1764 18.827 21.1779 19.2771 21.1756C19.783 21.174 19.9979 20.9646 19.9987 20.4665C20.001 19.5661 20.001 18.6657 19.9987 17.7653C19.9979 17.2798 19.783 17.061 19.3046 17.0594ZM18.8003 19.9802H17.0827V18.2414H18.8003V19.9802Z" fill="#E74D3A"/>
<path d="M25.8809 17.736C25.8786 17.2889 25.6566 17.0615 25.2166 17.0599C24.2864 17.056 23.3571 17.0552 22.4277 17.0599C21.9877 17.0615 21.7689 17.2897 21.7649 17.7375C21.7618 18.198 21.7642 18.6576 21.7642 19.118C21.7642 19.5682 21.7626 20.0184 21.7649 20.4686C21.7673 20.9541 21.9806 21.1737 22.4583 21.1753C23.3688 21.1776 24.2786 21.1776 25.1892 21.1753C25.655 21.1737 25.8786 20.9549 25.8809 20.4961C25.884 19.576 25.884 18.656 25.8809 17.736ZM24.688 19.9847H22.9626V18.2544H24.688V19.9847Z" fill="#E74D3A"/>
<path d="M8.23269 23.5681C8.23033 23.1783 7.99661 22.9453 7.6076 22.943C6.65783 22.9367 5.70883 22.9375 4.75905 22.9422C4.35436 22.9446 4.12142 23.1783 4.11907 23.583C4.11436 24.5219 4.11436 25.4615 4.11907 26.4011C4.12064 26.8262 4.34887 27.0521 4.77395 27.0568C5.24375 27.0623 5.71354 27.0584 6.18333 27.0576C6.66332 27.0576 7.14252 27.0647 7.62251 27.0553C7.99191 27.0482 8.22877 26.8152 8.2319 26.445C8.23896 25.4858 8.23896 24.5266 8.23269 23.5681ZM7.04683 25.8623H5.31041V24.1313H7.04683V25.8623Z" fill="#E74D3A"/>
<path d="M14.1157 23.5846C14.1134 23.1799 13.8804 22.9453 13.4765 22.943C12.5369 22.9383 11.5974 22.9383 10.6578 22.943C10.2319 22.9446 10.0037 23.172 10.0013 23.5963C9.99661 24.5266 9.9974 25.456 10.0005 26.3862C10.0029 26.8294 10.228 27.0537 10.6695 27.0584C11.1393 27.0623 11.6091 27.0592 12.0789 27.0592C12.5385 27.0592 12.9989 27.0631 13.4585 27.0576C13.8851 27.0529 14.1134 26.8286 14.1157 26.4035C14.1204 25.4638 14.1204 24.5242 14.1157 23.5846ZM12.9275 25.8678H11.1989V24.1383H12.9275V25.8678Z" fill="#E74D3A"/>
<path d="M19.9987 23.6188C19.9964 23.1717 19.7744 22.9443 19.3344 22.9427C18.4042 22.9388 17.4749 22.938 16.5455 22.9427C16.1055 22.9443 15.8867 23.1725 15.8827 23.6204C15.8796 24.0808 15.882 24.5404 15.882 25.0008C15.882 25.451 15.8804 25.9012 15.8827 26.3514C15.8851 26.8369 16.0984 27.0565 16.5761 27.0581C17.4866 27.0605 18.3964 27.0605 19.307 27.0581C19.7728 27.0565 19.9964 26.8377 19.9987 26.3789C20.0018 25.4588 20.0018 24.5388 19.9987 23.6188ZM18.8097 25.8612H17.0764V24.1333H18.8097V25.8612Z" fill="#E74D3A"/>
<path d="M25.8801 23.591C25.8777 23.1801 25.6511 22.9455 25.2479 22.9432C24.2982 22.9369 23.3492 22.9369 22.4002 22.9432C21.9963 22.9455 21.768 23.1801 21.7657 23.5887C21.761 24.5283 21.761 25.468 21.7657 26.4076C21.768 26.8288 22.0002 27.0531 22.4268 27.057C22.8872 27.0625 23.3468 27.0586 23.8072 27.0586C24.277 27.0586 24.7468 27.0617 25.2158 27.0578C25.644 27.0531 25.8777 26.8296 25.8801 26.4099C25.8848 25.4703 25.8848 24.5307 25.8801 23.591ZM24.6864 25.8766H22.9641V24.1385H24.6864V25.8766Z" fill="#E74D3A"/>
</g>
<defs>
<clipPath id="clip0_9759_291656">
<rect width="30" height="30" fill="white"/>
</clipPath>
</defs>
</svg>
