<svg width="24" height="24" viewBox="0 0 24 24" fill="none" xmlns="http://www.w3.org/2000/svg">
<path d="M1.5 21H22.5C22.9142 21 23.25 20.6642 23.25 20.25C23.25 19.8358 22.9142 19.5 22.5 19.5H1.5C1.08579 19.5 0.75 19.8358 0.75 20.25C0.75 20.6642 1.08579 21 1.5 21Z" fill="#858B8F"/>
<path d="M2.25 3.75V20.25C2.25 20.6642 2.58579 21 3 21C3.41421 21 3.75 20.6642 3.75 20.25V3.75H12.75V20.25C12.75 20.6642 13.0858 21 13.5 21C13.9142 21 14.25 20.6642 14.25 20.25V3.75C14.25 3.12868 13.8107 2.68934 13.8107 2.68934C13.3713 2.25 12.75 2.25 12.75 2.25H3.75C3.12868 2.25 2.68934 2.68934 2.68934 2.68934C2.25 3.12868 2.25 3.75 2.25 3.75Z" fill="#858B8F"/>
<path d="M20.25 8.25H13.5C13.0858 8.25 12.75 8.58579 12.75 9C12.75 9.41421 13.0858 9.75 13.5 9.75H20.25V20.25C20.25 20.6642 20.5858 21 21 21C21.4142 21 21.75 20.6642 21.75 20.25V9.75C21.75 9.12868 21.3107 8.68934 21.3107 8.68934C20.8713 8.25 20.25 8.25 20.25 8.25Z" fill="#858B8F"/>
<path d="M6 7.5H9C9.41421 7.5 9.75 7.16421 9.75 6.75C9.75 6.33579 9.41421 6 9 6H6C5.58579 6 5.25 6.33579 5.25 6.75C5.25 7.16421 5.58579 7.5 6 7.5Z" fill="#858B8F"/>
<path d="M7.5 13.5H10.5C10.9142 13.5 11.25 13.1642 11.25 12.75C11.25 12.3358 10.9142 12 10.5 12H7.5C7.08579 12 6.75 12.3358 6.75 12.75C6.75 13.1642 7.08579 13.5 7.5 13.5Z" fill="#858B8F"/>
<path d="M6 17.25H9C9.41421 17.25 9.75 16.9142 9.75 16.5C9.75 16.0858 9.41421 15.75 9 15.75H6C5.58579 15.75 5.25 16.0858 5.25 16.5C5.25 16.9142 5.58579 17.25 6 17.25Z" fill="#858B8F"/>
<path d="M15.75 16.5C15.75 16.9142 16.0858 17.25 16.5 17.25H18C18.4142 17.25 18.75 16.9142 18.75 16.5C18.75 16.0858 18.4142 15.75 18 15.75H16.5C16.0858 15.75 15.75 16.0858 15.75 16.5Z" fill="#858B8F"/>
<path d="M15.75 12.75C15.75 13.1642 16.0858 13.5 16.5 13.5H18C18.4142 13.5 18.75 13.1642 18.75 12.75C18.75 12.3358 18.4142 12 18 12H16.5C16.0858 12 15.75 12.3358 15.75 12.75Z" fill="#858B8F"/>
</svg>
