<svg width="24" height="24" viewBox="0 0 24 24" fill="none" xmlns="http://www.w3.org/2000/svg">
<path fill-rule="evenodd" clip-rule="evenodd" d="M19.5 3C19.5 3 20.1213 3 20.5607 3.43934C20.5607 3.43934 21 3.87868 21 4.5V19.5C21 19.5 21 20.1213 20.5607 20.5607C20.5607 20.5607 20.1213 21 19.5 21H4.5C4.5 21 3.87868 21 3.43934 20.5607C3.43934 20.5607 3 20.1213 3 19.5V4.5C3 4.5 3 3.87868 3.43934 3.43934C3.43934 3.43934 3.87868 3 4.5 3H19.5ZM19.5 4.5H4.5V19.5H19.5V4.5Z" fill="#858B8F"/>
<path d="M12.0418 14.6475C11.9011 14.7881 11.8218 14.9792 11.8218 15.1781C11.8218 15.377 11.9009 15.5678 12.0415 15.7084C12.1822 15.8491 12.3729 15.9281 12.5718 15.9281C12.7708 15.9281 12.9615 15.8491 13.1022 15.7084L16.2803 12.5303C16.5732 12.2374 16.5732 11.7625 16.2803 11.4696L13.1023 8.2916C12.9615 8.15086 12.7708 8.07184 12.5718 8.07184C12.3729 8.07184 12.1822 8.15086 12.0415 8.29151C11.9009 8.43216 11.8218 8.62293 11.8218 8.82184C11.8218 9.02075 11.9009 9.21152 12.0415 9.35217L14.6893 12L12.0418 14.6475Z" fill="#858B8F"/>
<path d="M8.25 12.75H15.75C16.1642 12.75 16.5 12.4142 16.5 12C16.5 11.5858 16.1642 11.25 15.75 11.25H8.25C7.83579 11.25 7.5 11.5858 7.5 12C7.5 12.4142 7.83579 12.75 8.25 12.75Z" fill="#858B8F"/>
</svg>
