<svg width="24" height="24" viewBox="0 0 24 24" fill="none" xmlns="http://www.w3.org/2000/svg">
<path fill-rule="evenodd" clip-rule="evenodd" d="M12 6C12 6 13.5533 6 14.6517 7.09835C14.6517 7.09835 15.75 8.1967 15.75 9.75C15.75 9.75 15.75 11.3033 14.6517 12.4017C14.6517 12.4017 13.5533 13.5 12 13.5C12 13.5 10.4467 13.5 9.34835 12.4017C9.34835 12.4017 8.25 11.3033 8.25 9.75C8.25 9.75 8.25 8.1967 9.34835 7.09835C9.34835 7.09835 10.4467 6 12 6ZM12 7.5C12 7.5 11.068 7.5 10.409 8.15901C10.409 8.15901 9.75 8.81802 9.75 9.75C9.75 9.75 9.75 10.682 10.409 11.341C10.409 11.341 11.068 12 12 12C12 12 12.932 12 13.591 11.341C13.591 11.341 14.25 10.682 14.25 9.75C14.25 9.75 14.25 8.81802 13.591 8.15901C13.591 8.15901 12.932 7.5 12 7.5Z" fill="#858B8F"/>
<path fill-rule="evenodd" clip-rule="evenodd" d="M19.622 6.59286C19.622 6.59286 20.25 8.10897 20.25 9.75C20.25 9.75 20.25 14.2492 16.316 18.7734C16.316 18.7734 15.107 20.1637 13.6576 21.3957C13.6576 21.3957 12.9277 22.0161 12.4301 22.3644C12.1719 22.5452 11.8281 22.5452 11.5699 22.3644C11.5699 22.3644 11.0723 22.0161 10.3424 21.3957C10.3424 21.3957 8.89304 20.1637 7.68405 18.7734C7.68405 18.7734 3.75 14.2492 3.75 9.75C3.75 9.75 3.75 8.10897 4.37799 6.59286C4.37799 6.59286 5.00599 5.07675 6.16637 3.91637C6.16637 3.91637 7.32675 2.75599 8.84286 2.12799C8.84286 2.12799 10.359 1.5 12 1.5C12 1.5 13.641 1.5 15.1571 2.12799C15.1571 2.12799 16.6732 2.75599 17.8336 3.91637C17.8336 3.91637 18.994 5.07675 19.622 6.59286ZM18.75 9.75C18.75 9.75 18.75 8.40734 18.2362 7.16689C18.2362 7.16689 17.7224 5.92643 16.773 4.97703C16.773 4.97703 15.8236 4.02763 14.5831 3.51381C14.5831 3.51381 13.3427 3 12 3C12 3 10.6573 3 9.41689 3.51381C9.41689 3.51381 8.17643 4.02763 7.22703 4.97703C7.22703 4.97703 6.27763 5.92643 5.76381 7.16689C5.76381 7.16689 5.25 8.40734 5.25 9.75C5.25 9.75 5.25 13.6883 8.81595 17.7891C8.81595 17.7891 9.95071 19.0941 11.3139 20.2528C11.3139 20.2528 11.6943 20.5762 12 20.8151C12 20.8151 12.3057 20.5762 12.6861 20.2528C12.6861 20.2528 14.0493 19.0941 15.184 17.7891C15.184 17.7891 18.75 13.6883 18.75 9.75Z" fill="#858B8F"/>
</svg>
