<svg width="32" height="32" viewBox="0 0 32 32" fill="none" xmlns="http://www.w3.org/2000/svg">
<path fill-rule="evenodd" clip-rule="evenodd" d="M21.0605 4.02201C18.6442 3 16 3 16 3C13.3558 3 10.9395 4.02201 10.9395 4.02201C8.60638 5.00884 6.80761 6.80761 6.80761 6.80761C5.00885 8.60638 4.02202 10.9395 4.02202 10.9395C3 13.3558 3 16 3 16C3 18.6442 4.02202 21.0605 4.02202 21.0605C5.00884 23.3936 6.80761 25.1924 6.80761 25.1924C6.94585 25.3306 7.08724 25.4641 7.23048 25.5926C7.28288 25.6511 7.3424 25.7036 7.40817 25.7489C9.08509 27.1936 10.9395 27.978 10.9395 27.978C13.3558 29 16 29 16 29C18.6442 29 21.0605 27.978 21.0605 27.978C22.5397 27.3523 23.8042 26.4003 24.5316 25.7872C24.6374 25.7251 24.7292 25.645 24.804 25.552C25.0539 25.3308 25.1924 25.1924 25.1924 25.1924C26.9912 23.3936 27.978 21.0605 27.978 21.0605C29 18.6442 29 16 29 16C29 13.3558 27.978 10.9395 27.978 10.9395C26.9912 8.60638 25.1924 6.80761 25.1924 6.80761C23.3936 5.00884 21.0605 4.02201 21.0605 4.02201ZM11.7186 26.136C10.7554 25.7285 9.89948 25.1573 9.27559 24.6791C10.3301 23.0926 11.815 22.1812 11.815 22.1812C13.7406 20.9992 16 21 16 21C18.2594 21 20.185 22.1812 20.185 22.1812C21.3973 22.9253 22.2517 23.9995 22.7184 24.6931C21.4727 25.6321 20.2814 26.136 20.2814 26.136C18.2386 27 16 27 16 27C13.7614 27 11.7186 26.136 11.7186 26.136ZM10.7688 20.4766C10.7688 20.4766 11.3715 20.1069 12.3277 19.7374C12.1321 19.5903 11.9408 19.426 11.7574 19.2426C11.7574 19.2426 10 17.4853 10 15C10 15 10 12.5147 11.7574 10.7574C11.7574 10.7574 13.5147 9 16 9C16 9 18.4853 9 20.2426 10.7574C20.2426 10.7574 22 12.5147 22 15C22 15 22 17.4853 20.2426 19.2426C20.2426 19.2426 20.0369 19.4484 19.6666 19.7191C20.1862 19.914 20.7182 20.1617 21.2312 20.4766C21.2312 20.4766 22.9072 21.5054 24.2049 23.3091C24.7181 22.7113 25.5798 21.5964 26.136 20.2814C26.136 20.2814 27 18.2386 27 16C27 16 27 13.7614 26.136 11.7186C26.136 11.7186 25.3011 9.74476 23.7782 8.22183C23.7782 8.22183 22.2552 6.69889 20.2814 5.86402C20.2814 5.86402 18.2386 5 16 5C16 5 13.7614 5 11.7186 5.86402C11.7186 5.86402 9.74476 6.69889 8.22183 8.22182C8.22183 8.22182 6.6989 9.74476 5.86402 11.7186C5.86402 11.7186 5 13.7614 5 16C5 16 5 18.2386 5.86402 20.2814C5.86402 20.2814 6.5461 21.894 7.80183 23.3286C8.41468 22.4719 9.41262 21.3091 10.7688 20.4766ZM18.8284 17.8284C17.6569 19 16 19 16 19C14.3431 19 13.1716 17.8284 13.1716 17.8284C12 16.6569 12 15 12 15C12 13.3431 13.1716 12.1716 13.1716 12.1716C14.3431 11 16 11 16 11C17.6569 11 18.8284 12.1716 18.8284 12.1716C20 13.3431 20 15 20 15C20 16.6569 18.8284 17.8284 18.8284 17.8284Z" fill="#1C1C1C"/>
</svg>
