<svg width="24" height="24" viewBox="0 0 24 24" fill="none" xmlns="http://www.w3.org/2000/svg">
<path fill-rule="evenodd" clip-rule="evenodd" d="M12 8.6244C12 8.6244 13.864 8.6244 15.182 9.94242C15.182 9.94242 16.5 11.2604 16.5 13.1244C16.5 13.1244 16.5 14.9884 15.182 16.3064C15.182 16.3064 13.864 17.6244 12 17.6244C12 17.6244 10.136 17.6244 8.81802 16.3064C8.81802 16.3064 7.5 14.9884 7.5 13.1244C7.5 13.1244 7.5 11.2604 8.81802 9.94242C8.81802 9.94242 10.136 8.6244 12 8.6244ZM12 10.1244C12 10.1244 10.7574 10.1244 9.87868 11.0031C9.87868 11.0031 9 11.8818 9 13.1244C9 13.1244 9 14.367 9.87868 15.2457C9.87868 15.2457 10.7574 16.1244 12 16.1244C12 16.1244 13.2426 16.1244 14.1213 15.2457C14.1213 15.2457 15 14.367 15 13.1244C15 13.1244 15 11.8818 14.1213 11.0031C14.1213 11.0031 13.2426 10.1244 12 10.1244Z" fill="#858B8F"/>
<path d="M22.274 13.5731C22.3931 13.7324 22.5708 13.8382 22.7677 13.8667C22.8032 13.8718 22.8391 13.8744 22.875 13.8744L22.8763 13.8744C23.0377 13.8741 23.1947 13.8218 23.324 13.7252C23.5135 13.5836 23.625 13.3609 23.625 13.1244L23.625 13.1158C23.6231 12.9569 23.5709 12.8027 23.4758 12.6754L23.4751 12.6746C22.5736 11.4688 21.227 10.7954 21.227 10.7954C19.8799 10.1219 18.3738 10.1244 18.3738 10.1244L18.375 10.1244C18.7892 10.1244 19.125 10.4602 19.125 10.8744C19.125 11.288 18.7902 11.6235 18.3767 11.6244L22.274 13.5731Z" fill="#858B8F"/>
<path d="M3.44384 12.1371C4.47305 11.6225 5.62375 11.6244 5.62375 11.6244L5.6248 11.6244C5.63639 11.6244 5.64819 11.6241 5.65977 11.6236C5.84603 11.615 6.02238 11.5372 6.15444 11.4056C6.29533 11.2652 6.37467 11.0746 6.375 10.8757L6.375 10.8746C6.375 10.8293 6.37088 10.7838 6.36271 10.7392C6.29751 10.3835 5.98783 10.125 5.62625 10.1244L5.625 10.1244C4.11958 10.1222 2.77302 10.7954 2.77302 10.7954C1.42638 11.4688 0.524888 12.6746 0.524888 12.6746L0.524345 12.6753C0.427356 12.8051 0.375 12.9626 0.375 13.1244L0.375041 13.1323C0.37539 13.1655 0.377954 13.1988 0.382716 13.2317C0.411176 13.4286 0.516675 13.6061 0.676004 13.7252C0.805645 13.8221 0.963152 13.8744 1.125 13.8744C1.13503 13.8744 1.14505 13.8742 1.15507 13.8738C1.38084 13.8647 1.59049 13.7544 1.72575 13.5734C2.41463 12.6517 3.44384 12.1371 3.44384 12.1371Z" fill="#858B8F"/>
<path d="M14.786 18.4253C16.064 19.2235 16.7254 20.5771 16.7254 20.5771L16.7258 20.578C16.8516 20.8356 17.1134 20.9994 17.4 20.9994L17.4205 20.9991C17.5276 20.9962 17.6328 20.9703 17.7291 20.9233C17.9866 20.7976 18.15 20.536 18.15 20.2494L18.1497 20.2288C18.1468 20.1218 18.1209 20.0166 18.0739 19.9203C17.2239 18.1798 15.5806 17.1531 15.5806 17.1531C13.9374 16.1268 12 16.1268 12 16.1268C10.0626 16.1268 8.41936 17.1531 8.41936 17.1531C6.77641 18.1792 5.92633 19.9197 5.92633 19.9197C5.87626 20.0223 5.84999 20.1353 5.84999 20.2494L5.85005 20.2591C5.85109 20.3388 5.86483 20.4179 5.89074 20.4932C5.95542 20.6813 6.09217 20.836 6.27091 20.9233C6.37339 20.9734 6.48594 20.9994 6.59999 20.9994L6.61721 20.9992C6.89756 20.9927 7.1509 20.8304 7.27394 20.5785C7.93538 19.2239 9.21395 18.4253 9.21395 18.4253C10.4925 17.6268 12 17.6268 12 17.6268C13.5074 17.6268 14.786 18.4253 14.786 18.4253Z" fill="#858B8F"/>
<path d="M7.26176 6.33377C7.70944 6.81028 7.83204 7.45251 7.83204 7.45251C7.86933 7.64789 7.98272 7.82046 8.14725 7.93224C8.27158 8.01672 8.41842 8.06188 8.56873 8.06188L8.5736 8.06186C8.61916 8.06157 8.6646 8.05712 8.70936 8.04858C9.06296 7.98108 9.31874 7.67187 9.31874 7.31188L9.31872 7.30766C9.31846 7.26188 9.31402 7.21622 9.30543 7.17126C9.10111 6.10088 8.35497 5.30669 8.35497 5.30669C7.60884 4.51251 6.55328 4.24187 6.55328 4.24187C5.49772 3.97124 4.4615 4.30845 4.4615 4.30845C3.42528 4.64566 2.73116 5.48568 2.73116 5.48568C2.03703 6.32571 1.90119 7.40691 1.90119 7.40691C1.76535 8.48811 2.2301 9.47374 2.2301 9.47374C2.69486 10.4594 3.61545 11.0424 3.61545 11.0424C4.53572 11.6253 5.6248 11.6244 5.6248 11.6244L5.62575 11.6244C5.82466 11.6242 6.01534 11.545 6.15585 11.4042C6.29618 11.2636 6.375 11.0733 6.375 10.8746L6.37498 10.8736C6.37456 10.4597 6.03892 10.1244 5.625 10.1244L5.62422 10.1244C4.9704 10.125 4.41805 9.77521 4.41805 9.77521C3.86569 9.42537 3.58684 8.834 3.58684 8.834C3.30799 8.24262 3.38949 7.5939 3.38949 7.5939C3.471 6.94518 3.88747 6.44116 3.88747 6.44116C4.30395 5.93715 4.92568 5.73482 4.92568 5.73482C5.54741 5.5325 6.18074 5.69488 6.18074 5.69488C6.81408 5.85726 7.26176 6.33377 7.26176 6.33377Z" fill="#858B8F"/>
<path d="M19.5819 9.77521C19.0296 10.125 18.3758 10.1244 18.3758 10.1244L18.375 10.1244C18.3633 10.1244 18.3515 10.1247 18.3397 10.1252L17.6258 10.9096C17.6346 11.0959 17.7124 11.2722 17.8441 11.4042C17.9846 11.545 18.1753 11.6242 18.3742 11.6244L18.375 11.6244C19.4643 11.6253 20.3845 11.0424 20.3845 11.0424C21.3051 10.4594 21.7699 9.47374 21.7699 9.47374C22.2346 8.48811 22.0988 7.40691 22.0988 7.40691C21.963 6.32571 21.2688 5.48568 21.2688 5.48568C20.5747 4.64566 19.5385 4.30845 19.5385 4.30845C18.5023 3.97124 17.4467 4.24187 17.4467 4.24187C16.3912 4.51251 15.645 5.30669 15.645 5.30669C14.8989 6.10088 14.6946 7.17126 14.6946 7.17126C14.6857 7.21761 14.6813 7.26469 14.6813 7.31188C14.6813 7.33442 14.6823 7.35695 14.6843 7.37939C14.7144 7.71277 14.9618 7.98582 15.2906 8.04858C15.337 8.05743 15.3841 8.06188 15.4313 8.06188C15.4538 8.06188 15.4763 8.06086 15.4988 8.05884C15.8321 8.0287 16.1052 7.7813 16.168 7.45251C16.2906 6.81028 16.7382 6.33377 16.7382 6.33377C17.1859 5.85726 17.8193 5.69488 17.8193 5.69488C18.4526 5.5325 19.0743 5.73482 19.0743 5.73482C19.696 5.93715 20.1125 6.44116 20.1125 6.44116C20.529 6.94518 20.6105 7.5939 20.6105 7.5939C20.692 8.24262 20.4132 8.834 20.4132 8.834C20.1343 9.42537 19.5819 9.77521 19.5819 9.77521Z" fill="#858B8F"/>
</svg>
