<svg width="24" height="24" viewBox="0 0 24 24" fill="none" xmlns="http://www.w3.org/2000/svg">
<path d="M8.24998 5.25V18.75C8.24998 19.1642 8.58577 19.5 8.99998 19.5C9.4142 19.5 9.74998 19.1642 9.74998 18.75V5.25C9.74998 4.83579 9.4142 4.5 8.99998 4.5C8.58577 4.5 8.24998 4.83579 8.24998 5.25Z" fill="#858B8F"/>
<path fill-rule="evenodd" clip-rule="evenodd" d="M1.50001 18V15.675C1.50001 15.675 1.49704 15.1412 1.83826 14.7254C1.83826 14.7254 2.17947 14.3095 2.70762 14.2074C2.70762 14.2074 3.47701 14.0439 3.98068 13.4221C3.98068 13.4221 4.48434 12.8002 4.48434 12C4.48434 12 4.48434 11.1998 3.98068 10.5779C3.98068 10.5779 3.47701 9.9561 2.69423 9.7899C2.69423 9.7899 2.17947 9.69048 1.83826 9.27462C1.83826 9.27462 1.49704 8.85877 1.50002 8.32085L1.50001 6C1.50001 6 1.50001 5.37868 1.93935 4.93934C1.93935 4.93934 2.37869 4.5 3.00001 4.5H21C21 4.5 21.6213 4.5 22.0607 4.93934C22.0607 4.93934 22.5 5.37868 22.5 6V8.325C22.5 8.325 22.503 8.85877 22.1618 9.27462C22.1618 9.27462 21.8205 9.69048 21.2924 9.79261C21.2924 9.79261 20.523 9.9561 20.0193 10.5779C20.0193 10.5779 19.5157 11.1998 19.5157 12C19.5157 12 19.5157 12.8002 20.0193 13.4221C20.0193 13.4221 20.523 14.0439 21.3058 14.2101C21.3058 14.2101 21.8205 14.3095 22.1618 14.7254C22.1618 14.7254 22.503 15.1412 22.5 15.6791L22.5 18C22.5 18 22.5 18.6213 22.0607 19.0607C22.0607 19.0607 21.6213 19.5 21 19.5H3.00001C3.00001 19.5 2.37869 19.5 1.93935 19.0607C1.93935 19.0607 1.50001 18.6213 1.50001 18ZM3.00001 18H21L21 15.6783C21 15.6783 20.998 15.6782 20.9942 15.6774C20.9942 15.6774 19.6918 15.4008 18.8537 14.3662C18.8537 14.3662 18.0157 13.3315 18.0157 12C18.0157 12 18.0157 10.6685 18.8537 9.63383C18.8537 9.63383 19.6894 8.60215 21 8.32151V6H3.00001L3 8.32171C3 8.32171 3.00205 8.32184 3.00578 8.3226C3.00578 8.3226 4.30824 8.59915 5.14629 9.63383C5.14629 9.63383 5.98434 10.6685 5.98434 12C5.98434 12 5.98434 13.3315 5.14629 14.3662C5.14629 14.3662 4.31067 15.3979 3.00001 15.6785V18Z" fill="#858B8F"/>
</svg>
