<svg width="48" height="46" viewBox="0 0 48 46" fill="none" xmlns="http://www.w3.org/2000/svg">
<rect width="48" height="46" rx="5" fill="#F2F0FE"/>
<g clip-path="url(#clip0_10707_324077)">
<path d="M33.989 15.6994C33.9615 14.7591 33.1781 14.0062 32.2136 14.005C28.0206 13.9983 23.8282 13.9995 19.6357 14.0038C18.8136 14.0044 18.1102 14.5498 17.9078 15.3309C17.8566 15.5286 17.8422 15.7392 17.8403 15.9436C17.8322 16.677 17.8372 17.4103 17.8372 18.1645C17.766 18.1737 17.7285 18.1786 17.6904 18.1841C14.7811 18.6083 13.1469 21.6047 14.4594 24.142C15.121 25.422 16.2042 26.1658 17.651 26.4015C17.7173 26.4119 17.826 26.478 17.8272 26.5208C17.8403 26.9701 17.8353 27.4201 17.8353 27.8969H17.5586C16.8795 27.8969 16.1999 27.8957 15.5208 27.8975C15.1316 27.8987 15.0079 28.023 15.0073 28.4099C15.006 28.9914 15.0054 29.5723 15.0073 30.1539C15.0117 31.2392 15.7888 31.9995 16.8976 31.9995C21.0201 32.0007 25.1419 32.0001 29.2644 31.9989C29.3887 31.9989 29.5155 31.9976 29.6373 31.9762C30.5731 31.8122 31.1678 31.0911 31.1678 30.1171C31.1697 26.2154 31.1685 22.3136 31.1685 18.4118V18.1027H31.454C32.1493 18.1027 32.8439 18.1051 33.5386 18.1014C33.8478 18.0996 33.9921 17.9649 33.994 17.6729C33.9984 17.0149 34.0078 16.3568 33.989 15.6994ZM14.8143 22.2364C14.838 20.4012 16.3985 18.9095 18.2695 18.9327C20.1855 18.9572 21.6892 20.4765 21.6654 22.3644C21.6423 24.1898 20.073 25.6797 18.1977 25.6577C16.3017 25.6351 14.7905 24.1071 14.8143 22.2364ZM27.6076 31.2172C24.0418 31.2178 20.476 31.2184 16.9101 31.2172C16.2248 31.2172 15.8075 30.804 15.8057 30.1282C15.8044 29.6556 15.8057 29.183 15.8057 28.6896H27.5039C27.6195 29.524 27.3265 30.3993 27.825 31.2037C27.7382 31.2092 27.6732 31.2172 27.6076 31.2172ZM30.3713 16.2675C30.3738 20.8506 30.3738 25.4337 30.3701 30.0168C30.3695 30.1979 30.3532 30.3877 30.2964 30.5579C30.1452 31.0121 29.6579 31.2857 29.1869 31.208C28.6921 31.126 28.3398 30.7262 28.3304 30.2053C28.3192 29.6091 28.3279 29.0122 28.3267 28.4154C28.326 28.0138 28.2067 27.8975 27.7957 27.8975C24.852 27.8969 21.9084 27.8969 18.9648 27.8969H18.6406C18.6406 27.4194 18.6368 26.9701 18.6481 26.5214C18.6487 26.4792 18.7424 26.4112 18.8005 26.4027C20.2061 26.1897 21.2506 25.4698 21.9534 24.2645C21.9959 24.1916 22.0509 24.1188 22.0677 24.0398C22.1389 23.6976 22.3645 23.6584 22.6812 23.6609C24.4141 23.6762 26.1477 23.6689 27.8813 23.6676C27.99 23.6676 28.1018 23.6682 28.2067 23.6444C28.3973 23.6009 28.4991 23.4687 28.501 23.2795C28.5028 23.0794 28.396 22.9453 28.1955 22.9006C28.1055 22.8804 28.0093 22.8829 27.9162 22.8829C26.1902 22.8816 24.4647 22.8823 22.7393 22.8823H22.4319C22.5238 22.1134 22.4426 21.3856 22.1314 20.6583H27.9119C27.9893 20.6583 28.0687 20.6626 28.1455 20.6528C28.3673 20.6259 28.5153 20.4545 28.5053 20.2452C28.4953 20.0438 28.3448 19.895 28.1286 19.8785C28.0587 19.873 27.9881 19.876 27.9175 19.876C25.9109 19.876 23.9044 19.8748 21.8972 19.8791C21.7448 19.8791 21.6467 19.8393 21.5461 19.7169C20.8346 18.8507 19.9125 18.3389 18.788 18.181C18.7505 18.1761 18.713 18.17 18.6556 18.162C18.6556 17.3105 18.6375 16.4848 18.6631 15.6596C18.6774 15.1717 19.1272 14.7934 19.6376 14.7836C20.0356 14.7757 20.4341 14.7818 20.8327 14.7818H30.6843C30.3463 15.2562 30.3713 15.7624 30.3713 16.2675ZM33.1938 17.3057H31.181C31.181 16.729 31.1466 16.1628 31.191 15.6021C31.2303 15.1075 31.7276 14.7573 32.2417 14.783C32.7502 14.8081 33.1769 15.2152 33.19 15.7171C33.2044 16.2424 33.1938 16.7682 33.1938 17.3057Z" fill="#B53CFF"/>
<path d="M28.5026 17.2809C28.4913 17.4707 28.3826 17.5937 28.1914 17.6311C28.1009 17.6488 28.0053 17.647 27.9122 17.6476C26.7734 17.6482 25.6345 17.6482 24.4957 17.6482C23.3725 17.6482 22.2492 17.6482 21.126 17.6476C21.0329 17.6476 20.9386 17.6488 20.8461 17.636C20.6437 17.6084 20.5032 17.4535 20.4982 17.265C20.4932 17.0795 20.6294 16.9142 20.8274 16.8769C20.9036 16.8628 20.983 16.8634 21.0604 16.8634C23.3537 16.8628 25.6464 16.8628 27.9397 16.8641C28.0328 16.8641 28.1296 16.8641 28.2177 16.8879C28.4145 16.9424 28.515 17.0801 28.5026 17.2809Z" fill="#B53CFF"/>
<path d="M19.8183 23.3332C19.7946 23.9471 19.4366 24.3536 18.8669 24.5752C18.7107 24.6364 18.6314 24.697 18.6214 24.8727C18.6101 25.0759 18.4383 25.2039 18.2409 25.2026C18.0448 25.2014 17.8717 25.0716 17.8605 24.8702C17.8505 24.6939 17.7686 24.6327 17.6118 24.5746C17.0409 24.3646 16.651 23.8418 16.6585 23.3307C16.6617 23.0993 16.821 22.9236 17.0377 22.9114C17.2458 22.8991 17.4251 23.0405 17.4488 23.2658C17.4831 23.5884 17.6631 23.7825 17.9667 23.8737C18.2978 23.9735 18.6045 23.9202 18.855 23.679C19.1249 23.4195 19.0886 23.0999 18.7594 22.9138C18.5795 22.8122 18.374 22.7535 18.1784 22.6794C17.9461 22.5918 17.7024 22.5276 17.48 22.4204C16.9859 22.1836 16.6385 21.8236 16.6585 21.2464C16.6792 20.6605 17.0115 20.2614 17.5425 20.0276C17.7224 19.9486 17.8542 19.8923 17.8692 19.6609C17.8817 19.4656 18.0585 19.3653 18.2609 19.3769C18.4621 19.3885 18.6089 19.5011 18.6214 19.7025C18.6326 19.8758 18.7076 19.9407 18.8663 20.0007C19.3998 20.2039 19.7352 20.581 19.8158 21.1503C19.8539 21.4227 19.7102 21.632 19.4722 21.6638C19.2429 21.6938 19.0712 21.542 19.0262 21.2702C18.9712 20.9385 18.7444 20.7254 18.3846 20.6673C18.0366 20.611 17.6599 20.7726 17.5175 21.0401C17.4063 21.2476 17.4338 21.4514 17.6343 21.5898C17.7974 21.7018 17.9873 21.7808 18.1735 21.8536C18.4333 21.9558 18.7101 22.0189 18.9637 22.1334C19.4816 22.3666 19.8414 22.7394 19.8183 23.3332Z" fill="#B53CFF"/>
</g>
<defs>
<clipPath id="clip0_10707_324077">
<rect width="20" height="18" fill="white" transform="translate(14 14)"/>
</clipPath>
</defs>
</svg>
