<svg width="10" height="18" viewBox="0 0 10 18" fill="none" xmlns="http://www.w3.org/2000/svg">
<path d="M9.53005 2.03061L9.53033 2.03033C9.67098 1.88968 9.75 1.69891 9.75 1.5C9.75 1.30109 9.67098 1.11032 9.53033 0.96967L9.5299 0.969241L9.52386 0.963274L9.52342 0.96285C9.38337 0.826376 9.19555 0.75 9 0.75C8.80109 0.75 8.61032 0.829018 8.46967 0.96967L8.46939 0.969951L0.96967 8.46967C0.829018 8.61032 0.75 8.80109 0.75 9C0.75 9.19891 0.829018 9.38968 0.96967 9.53033L8.46967 17.0303C8.61032 17.171 8.80109 17.25 9 17.25C9.19891 17.25 9.38968 17.171 9.53033 17.0303C9.67098 16.8897 9.75 16.6989 9.75 16.5C9.75 16.3011 9.67098 16.1103 9.53033 15.9697L2.56066 9L9.53005 2.03061Z" fill="#1C1C1C"/>
</svg>
