<svg width="21" height="20" viewBox="0 0 21 20" fill="none" xmlns="http://www.w3.org/2000/svg">
<path d="M17.375 9.375H3.625C3.27982 9.375 3 9.65482 3 10C3 10.3452 3.27982 10.625 3.625 10.625H17.375C17.7202 10.625 18 10.3452 18 10C18 9.65482 17.7202 9.375 17.375 9.375Z" fill="#858B8F"/>
<path d="M9.69171 4.81718L9.69194 4.81694C9.80915 4.69973 9.875 4.54076 9.875 4.375C9.875 4.20924 9.80915 4.05027 9.69194 3.93306L9.69158 3.9327L9.68655 3.92773L9.68618 3.92737C9.56947 3.81365 9.41296 3.75 9.25 3.75C9.08424 3.75 8.92527 3.81585 8.80806 3.93306L8.80782 3.93329L3.18306 9.55806C3.06585 9.67527 3 9.83424 3 10C3 10.1658 3.06585 10.3247 3.18306 10.4419L8.80806 16.0669C8.92527 16.1841 9.08424 16.25 9.25 16.25C9.41576 16.25 9.57473 16.1841 9.69194 16.0669C9.80915 15.9497 9.875 15.7908 9.875 15.625C9.875 15.4592 9.80915 15.3003 9.69194 15.1831L4.50888 10L9.69171 4.81718Z" fill="#858B8F"/>
</svg>
