<svg width="50" height="50" viewBox="0 0 50 50" fill="none" xmlns="http://www.w3.org/2000/svg">
<rect width="50" height="50" rx="8" fill="#E3F5FF"/>
<path fill-rule="evenodd" clip-rule="evenodd" d="M25 15.25C25 15.25 26.9831 15.25 28.7954 16.0165C28.7954 16.0165 30.5452 16.7566 31.8943 18.1057C31.8943 18.1057 33.2434 19.4548 33.9835 21.2046C33.9835 21.2046 34.75 23.0169 34.75 25C34.75 25 34.75 26.9831 33.9835 28.7954C33.9835 28.7954 33.2434 30.5452 31.8943 31.8943C31.8943 31.8943 30.5452 33.2434 28.7954 33.9835C28.7954 33.9835 26.9831 34.75 25 34.75C25 34.75 23.0169 34.75 21.2046 33.9835C21.2046 33.9835 19.4548 33.2434 18.1057 31.8943C18.1057 31.8943 16.7566 30.5452 16.0165 28.7954C16.0165 28.7954 15.25 26.9831 15.25 25C15.25 25 15.25 23.0169 16.0165 21.2046C16.0165 21.2046 16.7566 19.4548 18.1057 18.1057C18.1057 18.1057 19.4548 16.7566 21.2046 16.0165C21.2046 16.0165 23.0169 15.25 25 15.25ZM25 16.75C25 16.75 23.321 16.75 21.789 17.398C21.789 17.398 20.3086 18.0242 19.1664 19.1664C19.1664 19.1664 18.0242 20.3086 17.398 21.789C17.398 21.789 16.75 23.321 16.75 25C16.75 25 16.75 26.679 17.398 28.211C17.398 28.211 18.0242 29.6914 19.1664 30.8336C19.1664 30.8336 20.3086 31.9758 21.789 32.602C21.789 32.602 23.321 33.25 25 33.25C25 33.25 26.679 33.25 28.211 32.602C28.211 32.602 29.6914 31.9758 30.8336 30.8336C30.8336 30.8336 31.9758 29.6914 32.602 28.211C32.602 28.211 33.25 26.6789 33.25 25C33.25 25 33.25 23.3211 32.602 21.789C32.602 21.789 31.9758 20.3086 30.8336 19.1664C30.8336 19.1664 29.6914 18.0242 28.211 17.398C28.211 17.398 26.679 16.75 25 16.75Z" fill="#333333"/>
<path d="M25 25.75H30.25C30.6642 25.75 31 25.4142 31 25C31 24.5858 30.6642 24.25 30.25 24.25H25C24.5858 24.25 24.25 24.5858 24.25 25C24.25 25.4142 24.5858 25.75 25 25.75Z" fill="#333333"/>
<path d="M25.5303 24.4697C25.3897 24.329 25.1989 24.25 25 24.25C24.8011 24.25 24.6103 24.329 24.4697 24.4697C24.329 24.6103 24.25 24.8011 24.25 25C24.25 25.1989 24.329 25.3897 24.4697 25.5303L28.1818 29.2424C28.3224 29.3831 28.5136 29.4625 28.7125 29.4625C28.9114 29.4625 29.1022 29.3835 29.2428 29.2428C29.3835 29.1022 29.4625 28.9114 29.4625 28.7125C29.4625 28.5136 29.3835 28.3228 29.2428 28.1822L25.5303 24.4697Z" fill="#333333"/>
</svg>
