<svg width="14" height="14" viewBox="0 0 14 14" fill="none" xmlns="http://www.w3.org/2000/svg">
<path d="M7.2032 11.1407C6.5625 11.7814 6.5625 12.6875 6.5625 12.6875C6.5625 12.9291 6.75838 13.125 7 13.125C7.24162 13.125 7.4375 12.9291 7.4375 12.6875C7.4375 12.1438 7.82192 11.7594 7.82192 11.7594C8.20635 11.375 8.75 11.375 8.75 11.375H12.25C12.6124 11.375 12.8687 11.1187 12.8687 11.1187C13.125 10.8624 13.125 10.5 13.125 10.5V3.5C13.125 3.13756 12.8687 2.88128 12.8687 2.88128C12.6124 2.625 12.25 2.625 12.25 2.625H8.75C7.84391 2.625 7.2032 3.2657 7.2032 3.2657C6.5625 3.90641 6.5625 4.8125 6.5625 4.8125C6.5625 5.05412 6.75838 5.25 7 5.25C7.11603 5.25 7.22731 5.20391 7.30936 5.12186C7.39141 5.03981 7.4375 4.92853 7.4375 4.8125C7.4375 4.26884 7.82192 3.88442 7.82192 3.88442C8.20635 3.5 8.75 3.5 8.75 3.5H12.25V10.5H8.75C7.84391 10.5 7.2032 11.1407 7.2032 11.1407Z" fill="#00AEEB"/>
<path fill-rule="evenodd" clip-rule="evenodd" d="M0.875 3.5C0.875 3.5 0.875 3.13756 1.13128 2.88128C1.13128 2.88128 1.38756 2.625 1.75 2.625H5.25C5.25 2.625 6.15609 2.625 6.7968 3.2657C6.7968 3.2657 7.4375 3.90641 7.4375 4.8125V12.6875C7.4375 12.9291 7.24162 13.125 7 13.125C6.75838 13.125 6.5625 12.9291 6.5625 12.6875C6.5625 12.6875 6.5625 12.1438 6.17808 11.7594C6.17808 11.7594 5.79365 11.375 5.25 11.375H1.75C1.75 11.375 1.38756 11.375 1.13128 11.1187C1.13128 11.1187 0.875 10.8624 0.875 10.5V3.5ZM6.5625 4.8125V10.9346C6.5625 10.9346 5.99626 10.5 5.25 10.5H1.75V3.5H5.25C5.25 3.5 5.79366 3.5 6.17808 3.88442C6.17808 3.88442 6.5625 4.26884 6.5625 4.8125Z" fill="#00AEEB"/>
</svg>
