<svg width="14" height="14" viewBox="0 0 14 14" fill="none" xmlns="http://www.w3.org/2000/svg">
<path d="M4.375 1.3125V3.0625C4.375 3.30412 4.57088 3.5 4.8125 3.5C5.05412 3.5 5.25 3.30412 5.25 3.0625V1.3125C5.25 1.07088 5.05412 0.875 4.8125 0.875C4.57088 0.875 4.375 1.07088 4.375 1.3125Z" fill="#858B8F"/>
<path d="M6.125 1.3125V3.0625C6.125 3.30412 6.32088 3.5 6.5625 3.5C6.80412 3.5 7 3.30412 7 3.0625V1.3125C7 1.07088 6.80412 0.875 6.5625 0.875C6.32088 0.875 6.125 1.07088 6.125 1.3125Z" fill="#858B8F"/>
<path d="M7.875 1.3125V3.0625C7.875 3.30412 8.07088 3.5 8.3125 3.5C8.55412 3.5 8.75 3.30412 8.75 3.0625V1.3125C8.75 1.07088 8.55412 0.875 8.3125 0.875C8.07088 0.875 7.875 1.07088 7.875 1.3125Z" fill="#858B8F"/>
<path d="M1.75 12.25H11.375C11.6166 12.25 11.8125 12.0541 11.8125 11.8125C11.8125 11.5709 11.6166 11.375 11.375 11.375H1.75C1.50838 11.375 1.3125 11.5709 1.3125 11.8125C1.3125 12.0541 1.50838 12.25 1.75 12.25Z" fill="#858B8F"/>
<path d="M10.2453 9.80011C9.55293 10.8799 8.38707 11.4149 8.38707 11.4149C8.23166 11.4862 8.13203 11.6415 8.13203 11.8125L8.13203 11.814C8.13224 11.8764 8.14583 11.9382 8.17189 11.995C8.24321 12.1504 8.39853 12.25 8.56953 12.25L8.57099 12.25C8.63348 12.2498 8.6952 12.2362 8.75199 12.2101C10.151 11.5682 10.9819 10.2724 10.9819 10.2724C11.8128 8.97669 11.8125 7.43741 11.8125 7.43741V4.8125C11.8125 4.57088 11.6166 4.375 11.375 4.375H1.75C1.50838 4.375 1.3125 4.57088 1.3125 4.8125V7.4375C1.31218 8.97669 2.14309 10.2724 2.14309 10.2724C2.97399 11.5682 4.37301 12.2101 4.37301 12.2101C4.43025 12.2364 4.49249 12.25 4.55547 12.25L4.56082 12.25C4.61095 12.2494 4.66061 12.2401 4.70762 12.2227C4.81641 12.1823 4.90472 12.1004 4.95311 11.995C4.97937 11.9377 4.99297 11.8755 4.99297 11.8125C4.99297 11.8056 4.99281 11.7988 4.99249 11.7919C4.9848 11.6285 4.8866 11.4831 4.73793 11.4149C3.57207 10.8799 2.87965 9.80011 2.87965 9.80011C2.18724 8.72032 2.1875 7.4375 2.1875 7.4375V5.25H10.9375V7.43759C10.9378 8.72032 10.2453 9.80011 10.2453 9.80011Z" fill="#858B8F"/>
<path d="M11.375 8.3125H11.189C10.9474 8.3125 10.7515 8.50838 10.7515 8.75C10.7515 8.99162 10.9474 9.1875 11.189 9.1875H11.375C12.2811 9.1875 12.9218 8.5468 12.9218 8.5468C13.5625 7.90609 13.5625 7 13.5625 7V6.5625C13.5625 5.65641 12.9218 5.0157 12.9218 5.0157C12.2811 4.375 11.375 4.375 11.375 4.375C11.1334 4.375 10.9375 4.57088 10.9375 4.8125C10.9375 4.92853 10.9836 5.03981 11.0656 5.12186C11.1477 5.20391 11.2589 5.25 11.375 5.25C11.9186 5.25 12.3031 5.63442 12.3031 5.63442C12.6875 6.01884 12.6875 6.5625 12.6875 6.5625V7C12.6875 7.54365 12.3031 7.92808 12.3031 7.92808C11.9186 8.3125 11.375 8.3125 11.375 8.3125Z" fill="#858B8F"/>
</svg>
