<svg width="16" height="13" viewBox="0 0 16 13" fill="none" xmlns="http://www.w3.org/2000/svg">
<path d="M1 13H15C15.2761 13 15.5 12.7761 15.5 12.5C15.5 12.2239 15.2761 12 15 12H1C0.723858 12 0.5 12.2239 0.5 12.5C0.5 12.7761 0.723858 13 1 13Z" fill="#1C1C1C"/>
<path d="M1.5 1.5V12.5C1.5 12.7761 1.72386 13 2 13C2.27614 13 2.5 12.7761 2.5 12.5V1.5H8.5V12.5C8.5 12.7761 8.72386 13 9 13C9.27614 13 9.5 12.7761 9.5 12.5V1.5C9.5 1.08579 9.20711 0.792893 9.20711 0.792893C8.91422 0.5 8.5 0.5 8.5 0.5H2.5C2.08579 0.5 1.79289 0.792893 1.79289 0.792893C1.5 1.08579 1.5 1.5 1.5 1.5Z" fill="#1C1C1C"/>
<path d="M13.5 4.5H9C8.72386 4.5 8.5 4.72386 8.5 5C8.5 5.27614 8.72386 5.5 9 5.5H13.5V12.5C13.5 12.7761 13.7239 13 14 13C14.2761 13 14.5 12.7761 14.5 12.5V5.5C14.5 5.08579 14.2071 4.79289 14.2071 4.79289C13.9142 4.5 13.5 4.5 13.5 4.5Z" fill="#1C1C1C"/>
<path d="M4 4H6C6.27614 4 6.5 3.77614 6.5 3.5C6.5 3.22386 6.27614 3 6 3H4C3.72386 3 3.5 3.22386 3.5 3.5C3.5 3.77614 3.72386 4 4 4Z" fill="#1C1C1C"/>
<path d="M5 8H7C7.27614 8 7.5 7.77614 7.5 7.5C7.5 7.22386 7.27614 7 7 7H5C4.72386 7 4.5 7.22386 4.5 7.5C4.5 7.77614 4.72386 8 5 8Z" fill="#1C1C1C"/>
<path d="M4 10.5H6C6.27614 10.5 6.5 10.2761 6.5 10C6.5 9.72386 6.27614 9.5 6 9.5H4C3.72386 9.5 3.5 9.72386 3.5 10C3.5 10.2761 3.72386 10.5 4 10.5Z" fill="#1C1C1C"/>
<path d="M10.5 10C10.5 10.2761 10.7239 10.5 11 10.5H12C12.2761 10.5 12.5 10.2761 12.5 10C12.5 9.72386 12.2761 9.5 12 9.5H11C10.7239 9.5 10.5 9.72386 10.5 10Z" fill="#1C1C1C"/>
<path d="M10.5 7.5C10.5 7.77614 10.7239 8 11 8H12C12.2761 8 12.5 7.77614 12.5 7.5C12.5 7.22386 12.2761 7 12 7H11C10.7239 7 10.5 7.22386 10.5 7.5Z" fill="#1C1C1C"/>
</svg>
