<svg width="14" height="14" viewBox="0 0 14 14" fill="none" xmlns="http://www.w3.org/2000/svg">
<path fill-rule="evenodd" clip-rule="evenodd" d="M9.1875 1.75V1.3125C9.1875 1.07088 9.38338 0.875 9.625 0.875C9.86662 0.875 10.0625 1.07088 10.0625 1.3125V1.75H11.375C11.375 1.75 11.7374 1.75 11.9937 2.00628C11.9937 2.00628 12.25 2.26256 12.25 2.625V11.375C12.25 11.375 12.25 11.7374 11.9937 11.9937C11.9937 11.9937 11.7374 12.25 11.375 12.25H2.625C2.625 12.25 2.26256 12.25 2.00628 11.9937C2.00628 11.9937 1.75 11.7374 1.75 11.375V2.625C1.75 2.625 1.75 2.26256 2.00628 2.00628C2.00628 2.00628 2.26256 1.75 2.625 1.75H3.9375V1.3125C3.9375 1.07088 4.13338 0.875 4.375 0.875C4.61662 0.875 4.8125 1.07088 4.8125 1.3125V1.75H9.1875ZM2.625 5.25V11.375H11.375V5.25H2.625ZM11.375 4.375H2.625V2.625H3.9375V3.0625C3.9375 3.30412 4.13338 3.5 4.375 3.5C4.61662 3.5 4.8125 3.30412 4.8125 3.0625V2.625H9.1875V3.0625C9.1875 3.30412 9.38338 3.5 9.625 3.5C9.86662 3.5 10.0625 3.30412 10.0625 3.0625V2.625H11.375V4.375Z" fill="#00AEEB"/>
</svg>
