<svg width="16" height="16" viewBox="0 0 16 16" fill="none" xmlns="http://www.w3.org/2000/svg">
<path fill-rule="evenodd" clip-rule="evenodd" d="M7.27404 5.99965L6.23226 7.58412C6.23226 7.58412 6.95085 9.0664 8.43273 9.77931L8.43477 9.77795L9.99434 8.73616C9.99434 8.73616 10.2062 8.5925 10.461 8.56903C10.461 8.56903 10.7159 8.54556 10.9473 8.6468L13.8671 9.90085C13.8671 9.90085 14.1773 10.03 14.3455 10.3208C14.3455 10.3208 14.5137 10.6117 14.4709 10.9448C14.4709 10.9448 14.3031 12.2546 13.3119 13.1271C13.3119 13.1271 12.3207 13.9997 11 14C11 14 9.20979 14 7.55585 13.3149C7.55585 13.3149 5.90191 12.6298 4.63604 11.3639C4.63604 11.3639 3.37017 10.0981 2.68508 8.44412C2.68508 8.44412 2 6.79018 2 4.99985C2 4.99985 2.0003 3.6793 2.87283 2.68807C2.87283 2.68807 3.74536 1.69684 5.05505 1.52904C5.05505 1.52904 5.3883 1.48623 5.67915 1.65444C5.67915 1.65444 5.97001 1.82264 6.09707 2.12801L7.35236 5.05703C7.35236 5.05703 7.45187 5.28615 7.43195 5.53515C7.43195 5.53515 7.41203 5.78414 7.27404 5.99965ZM5.33024 8.01581L5.32944 8.01414C5.32944 8.01414 5.21768 7.77957 5.23431 7.52015C5.23431 7.52015 5.251 7.25982 5.39274 7.04081L6.43512 5.45536L5.17793 2.52193L5.17775 2.5215C5.17775 2.5215 4.24512 2.64256 3.62345 3.34881C3.62345 3.34881 3.00021 4.05683 3 5.00008C3 5.00008 3 6.59126 3.60896 8.06143C3.60896 8.06143 4.21793 9.5316 5.34315 10.6568C5.34315 10.6568 6.46836 11.782 7.93853 12.391C7.93853 12.391 9.4087 13 11 13C11 13 11.9431 12.9998 12.6512 12.3765C12.6512 12.3765 13.3575 11.7548 13.4785 10.8222L10.5528 9.56568L8.99023 10.6095C8.99023 10.6095 8.77267 10.7564 8.50846 10.7764C8.50846 10.7764 8.24425 10.7965 8.00477 10.6831C8.00477 10.6831 6.20186 9.81578 5.33124 8.01788L5.33086 8.01711L5.33064 8.01664L5.33024 8.01581Z" fill="#1C1C1C"/>
<path d="M10.0924 2.0172C11.516 2.39937 12.5583 3.44164 12.5583 3.44164C13.6006 4.48397 13.9827 5.90762 13.9827 5.90762L13.9828 5.9079C13.9938 5.94893 13.9996 5.9912 13.9999 6.03368L13.9999 6.0375C13.9999 6.26373 13.848 6.46177 13.6295 6.52041C13.5902 6.53096 13.5498 6.53667 13.5091 6.53742L13.4999 6.5375C13.4122 6.5375 13.326 6.51443 13.2501 6.47061C13.1352 6.40435 13.0514 6.29518 13.017 6.1671L13.0168 6.16633C12.704 5.00158 11.8512 4.14875 11.8512 4.14875C10.998 3.29564 9.8328 2.98291 9.8328 2.98291C9.6143 2.92427 9.4624 2.72623 9.4624 2.5C9.4624 2.45751 9.46782 2.4152 9.47852 2.37409L9.47949 2.3704C9.51136 2.25164 9.58588 2.14879 9.6888 2.0815C9.69659 2.07641 9.70452 2.07154 9.71258 2.06689C9.78854 2.02307 9.8747 2 9.9624 2C10.0049 2 10.0472 2.00542 10.0883 2.01611L10.092 2.01709L10.0924 2.0172Z" fill="#1C1C1C"/>
<path d="M11.0855 6.68425L11.0856 6.68449C11.1438 6.90361 11.3421 7.05615 11.5688 7.05615L11.5714 7.05615C11.6138 7.05593 11.6561 7.05031 11.6972 7.0394C11.9163 6.98121 12.0688 6.78287 12.0688 6.55615L12.0688 6.55364C12.0686 6.51116 12.063 6.46887 12.0521 6.42781L12.052 6.42741C11.8106 5.51888 11.1459 4.85414 11.1459 4.85414C10.481 4.18926 9.57219 3.9479 9.57219 3.9479C9.53032 3.93678 9.48717 3.93115 9.44385 3.93115L9.43427 3.93124C9.21115 3.93552 9.01788 4.08713 8.9606 4.30281C8.94948 4.34468 8.94385 4.38783 8.94385 4.43115C8.94385 4.43678 8.94394 4.4424 8.94413 4.44802C8.94691 4.5304 8.97002 4.61082 9.01139 4.68211C9.07795 4.7968 9.18734 4.88036 9.31551 4.9144L9.31593 4.91451C9.96433 5.08683 10.4387 5.56125 10.4387 5.56125C10.9132 6.03574 11.0855 6.68425 11.0855 6.68425Z" fill="#1C1C1C"/>
</svg>
