<svg width="24" height="24" viewBox="0 0 24 24" fill="none" xmlns="http://www.w3.org/2000/svg">
<path d="M13.0594 11.9997L19.2844 5.7841C19.404 5.63838 19.4651 5.45338 19.4559 5.26509C19.4466 5.0768 19.3677 4.89869 19.2344 4.76539C19.1011 4.63208 18.9229 4.55313 18.7346 4.54388C18.5464 4.53464 18.3614 4.59575 18.2156 4.71535L12 10.9404L5.78438 4.71535C5.63866 4.59575 5.45366 4.53464 5.26537 4.54388C5.07708 4.55313 4.89897 4.63208 4.76567 4.76539C4.63236 4.89869 4.55341 5.0768 4.54416 5.26509C4.53492 5.45338 4.59604 5.63838 4.71563 5.7841L10.9406 11.9997L4.71563 18.2154C4.5748 18.3575 4.49579 18.5496 4.49579 18.7497C4.49579 18.9499 4.5748 19.1419 4.71563 19.2841C4.85899 19.4227 5.0506 19.5002 5.25001 19.5002C5.44942 19.5002 5.64103 19.4227 5.78438 19.2841L12 13.0591L18.2156 19.2841C18.359 19.4227 18.5506 19.5002 18.75 19.5002C18.9494 19.5002 19.141 19.4227 19.2844 19.2841C19.4252 19.1419 19.5042 18.9499 19.5042 18.7497C19.5042 18.5496 19.4252 18.3575 19.2844 18.2154L13.0594 11.9997Z" fill="white"/>
</svg>
