<svg width="221" height="220" viewBox="0 0 221 220" fill="none" xmlns="http://www.w3.org/2000/svg">
<circle cx="110.5" cy="110" r="110" fill="url(#paint0_linear_9548_271183)"/>
<circle cx="110.5" cy="110" r="98" fill="url(#paint1_linear_9548_271183)"/>
<path d="M131.469 93L121.532 102.937C121.122 103.347 120.891 103.904 120.891 104.484C120.891 104.519 120.891 104.554 120.893 104.589C120.919 105.133 121.147 105.647 121.531 106.031C121.942 106.441 122.498 106.672 123.078 106.672C123.658 106.672 124.215 106.441 124.625 106.031L136.109 94.5468C136.52 94.1366 136.75 93.5802 136.75 93C136.75 92.4198 136.52 91.8634 136.109 91.4532L124.625 79.9691C124.215 79.5586 123.658 79.3281 123.078 79.3281C122.498 79.3281 121.942 79.5586 121.531 79.9688C121.121 80.3791 120.891 80.9355 120.891 81.5156C120.891 82.0958 121.121 82.6522 121.531 83.0624L131.469 93Z" fill="white"/>
<path d="M103.938 95.1875H134.562C135.771 95.1875 136.75 94.2081 136.75 93C136.75 91.7919 135.771 90.8125 134.562 90.8125H103.938C102.729 90.8125 101.75 91.7919 101.75 93C101.75 94.2081 102.729 95.1875 103.938 95.1875Z" fill="white"/>
<path d="M88.625 71.125H103.938C105.146 71.125 106.125 70.1456 106.125 68.9375C106.125 67.7294 105.146 66.75 103.938 66.75H88.625C86.8128 66.75 85.5314 68.0314 85.5314 68.0314C84.25 69.3128 84.25 71.125 84.25 71.125V114.875C84.25 116.687 85.5314 117.969 85.5314 117.969C86.8128 119.25 88.625 119.25 88.625 119.25H103.938C105.146 119.25 106.125 118.271 106.125 117.062C106.125 115.854 105.146 114.875 103.938 114.875H88.625V71.125Z" fill="white"/>
<path d="M73.7005 146.185H71.4846C71.3993 145.711 71.2407 145.295 71.0087 144.935C70.7767 144.575 70.4926 144.269 70.1564 144.018C69.8203 143.768 69.4438 143.578 69.0272 143.45C68.6152 143.322 68.1773 143.259 67.7132 143.259C66.8752 143.259 66.1247 143.469 65.4618 143.891C64.8037 144.312 64.2828 144.93 63.8993 145.744C63.5205 146.559 63.3311 147.553 63.3311 148.727C63.3311 149.911 63.5205 150.91 63.8993 151.724C64.2828 152.539 64.806 153.154 65.4689 153.571C66.1318 153.988 66.8775 154.196 67.7061 154.196C68.1654 154.196 68.601 154.134 69.013 154.011C69.4296 153.884 69.806 153.696 70.1422 153.45C70.4784 153.204 70.7625 152.903 70.9945 152.548C71.2312 152.188 71.3946 151.777 71.4846 151.312L73.7005 151.32C73.5821 152.035 73.3525 152.693 73.0115 153.294C72.6754 153.891 72.2421 154.407 71.7118 154.842C71.1863 155.273 70.5849 155.607 69.9078 155.844C69.2308 156.08 68.4921 156.199 67.6919 156.199C66.4325 156.199 65.3103 155.901 64.3255 155.304C63.3406 154.703 62.5641 153.843 61.9959 152.726C61.4325 151.608 61.1507 150.276 61.1507 148.727C61.1507 147.174 61.4348 145.841 62.003 144.729C62.5712 143.611 63.3477 142.754 64.3326 142.158C65.3174 141.556 66.4372 141.256 67.6919 141.256C68.4637 141.256 69.1834 141.367 69.851 141.589C70.5234 141.807 71.1271 142.129 71.6621 142.555C72.1971 142.977 72.6399 143.493 72.9902 144.104C73.3406 144.71 73.5774 145.403 73.7005 146.185ZM78.2797 149.523V156H76.1561V141.455H78.2512V146.866H78.3862C78.6419 146.279 79.0325 145.813 79.5581 145.467C80.0836 145.122 80.7702 144.949 81.6177 144.949C82.3658 144.949 83.0192 145.103 83.5779 145.411C84.1414 145.718 84.577 146.178 84.8848 146.788C85.1973 147.394 85.3535 148.152 85.3535 149.061V156H83.2299V149.317C83.2299 148.517 83.024 147.896 82.612 147.456C82.2001 147.011 81.6272 146.788 80.8933 146.788C80.3914 146.788 79.9416 146.895 79.5439 147.108C79.1509 147.321 78.8407 147.634 78.6135 148.045C78.3909 148.453 78.2797 148.945 78.2797 149.523ZM92.889 156.22C91.8142 156.22 90.8886 155.991 90.112 155.531C89.3403 155.067 88.7437 154.416 88.3223 153.578C87.9056 152.735 87.6973 151.748 87.6973 150.616C87.6973 149.499 87.9056 148.514 88.3223 147.662C88.7437 146.81 89.3308 146.144 90.0836 145.666C90.8412 145.188 91.7266 144.949 92.7399 144.949C93.3554 144.949 93.952 145.051 94.5297 145.254C95.1073 145.458 95.6258 145.777 96.085 146.213C96.5443 146.649 96.9065 147.214 97.1717 147.911C97.4368 148.602 97.5694 149.442 97.5694 150.432V151.185H88.8975V149.594H95.4885C95.4885 149.035 95.3748 148.54 95.1475 148.109C94.9203 147.674 94.6007 147.33 94.1887 147.08C93.7815 146.829 93.3033 146.703 92.7541 146.703C92.1575 146.703 91.6367 146.85 91.1916 147.143C90.7512 147.432 90.4103 147.811 90.1689 148.28C89.9321 148.744 89.8137 149.248 89.8137 149.793V151.036C89.8137 151.765 89.9416 152.385 90.1973 152.896C90.4577 153.408 90.8199 153.798 91.2839 154.068C91.7479 154.333 92.2901 154.466 92.9103 154.466C93.3128 154.466 93.6797 154.409 94.0112 154.295C94.3426 154.177 94.6291 154.002 94.8706 153.77C95.112 153.538 95.2967 153.251 95.4245 152.911L97.4345 153.273C97.2735 153.865 96.9847 154.383 96.568 154.828C96.1561 155.268 95.6376 155.612 95.0126 155.858C94.3923 156.099 93.6845 156.22 92.889 156.22ZM104.521 156.22C103.465 156.22 102.556 155.981 101.794 155.503C101.036 155.02 100.454 154.355 100.046 153.507C99.6391 152.66 99.4355 151.689 99.4355 150.595C99.4355 149.487 99.6439 148.509 100.061 147.662C100.477 146.81 101.064 146.144 101.822 145.666C102.579 145.188 103.472 144.949 104.499 144.949C105.328 144.949 106.067 145.103 106.715 145.411C107.364 145.714 107.887 146.14 108.285 146.689C108.687 147.238 108.927 147.88 109.002 148.614H106.936C106.822 148.102 106.561 147.662 106.154 147.293C105.752 146.923 105.212 146.739 104.535 146.739C103.943 146.739 103.425 146.895 102.98 147.207C102.539 147.515 102.196 147.955 101.95 148.528C101.704 149.097 101.58 149.769 101.58 150.545C101.58 151.341 101.701 152.027 101.943 152.605C102.184 153.183 102.525 153.63 102.965 153.947C103.41 154.265 103.934 154.423 104.535 154.423C104.937 154.423 105.302 154.35 105.629 154.203C105.96 154.052 106.237 153.836 106.46 153.557C106.687 153.277 106.846 152.941 106.936 152.548H109.002C108.927 153.254 108.697 153.884 108.313 154.438C107.93 154.991 107.416 155.427 106.772 155.744C106.133 156.062 105.383 156.22 104.521 156.22ZM113.226 152.3L113.212 149.707H113.581L117.928 145.091H120.471L115.513 150.347H115.18L113.226 152.3ZM111.273 156V141.455H113.397V156H111.273ZM118.162 156L114.256 150.815L115.719 149.331L120.769 156H118.162ZM140.504 148.727C140.504 150.28 140.22 151.616 139.652 152.733C139.084 153.846 138.305 154.703 137.316 155.304C136.331 155.901 135.211 156.199 133.956 156.199C132.697 156.199 131.572 155.901 130.583 155.304C129.598 154.703 128.821 153.843 128.253 152.726C127.685 151.608 127.401 150.276 127.401 148.727C127.401 147.174 127.685 145.841 128.253 144.729C128.821 143.611 129.598 142.754 130.583 142.158C131.572 141.556 132.697 141.256 133.956 141.256C135.211 141.256 136.331 141.556 137.316 142.158C138.305 142.754 139.084 143.611 139.652 144.729C140.22 145.841 140.504 147.174 140.504 148.727ZM138.331 148.727C138.331 147.544 138.139 146.547 137.756 145.737C137.377 144.923 136.856 144.307 136.193 143.891C135.535 143.469 134.789 143.259 133.956 143.259C133.118 143.259 132.37 143.469 131.712 143.891C131.054 144.307 130.533 144.923 130.149 145.737C129.771 146.547 129.581 147.544 129.581 148.727C129.581 149.911 129.771 150.91 130.149 151.724C130.533 152.534 131.054 153.15 131.712 153.571C132.37 153.988 133.118 154.196 133.956 154.196C134.789 154.196 135.535 153.988 136.193 153.571C136.856 153.15 137.377 152.534 137.756 151.724C138.139 150.91 138.331 149.911 138.331 148.727ZM149.981 151.476V145.091H152.111V156H150.023V154.111H149.91C149.659 154.693 149.256 155.179 148.702 155.567C148.153 155.95 147.469 156.142 146.65 156.142C145.949 156.142 145.329 155.988 144.789 155.68C144.254 155.368 143.832 154.906 143.525 154.295C143.222 153.685 143.07 152.929 143.07 152.03V145.091H145.194V151.774C145.194 152.518 145.4 153.109 145.812 153.55C146.224 153.99 146.759 154.21 147.417 154.21C147.814 154.21 148.21 154.111 148.603 153.912C149.001 153.713 149.33 153.412 149.59 153.01C149.855 152.607 149.985 152.096 149.981 151.476ZM160.057 145.091V146.795H154.098V145.091H160.057ZM155.696 142.477H157.82V152.797C157.82 153.209 157.881 153.519 158.004 153.727C158.128 153.931 158.286 154.071 158.48 154.146C158.679 154.217 158.895 154.253 159.127 154.253C159.297 154.253 159.446 154.241 159.574 154.217C159.702 154.194 159.801 154.175 159.872 154.161L160.256 155.915C160.133 155.962 159.958 156.009 159.73 156.057C159.503 156.109 159.219 156.137 158.878 156.142C158.319 156.152 157.798 156.052 157.316 155.844C156.833 155.635 156.442 155.313 156.144 154.878C155.845 154.442 155.696 153.895 155.696 153.237V142.477Z" fill="white"/>
<defs>
<linearGradient id="paint0_linear_9548_271183" x1="110.5" y1="0" x2="110.5" y2="220" gradientUnits="userSpaceOnUse">
<stop stop-color="#FFF2F5"/>
<stop offset="1" stop-color="#FFD1DC"/>
</linearGradient>
<linearGradient id="paint1_linear_9548_271183" x1="110.5" y1="12" x2="110.5" y2="208" gradientUnits="userSpaceOnUse">
<stop stop-color="#FF4747"/>
<stop offset="1" stop-color="#8F1818"/>
</linearGradient>
</defs>
</svg>
