<svg width="221" height="220" viewBox="0 0 221 220" fill="none" xmlns="http://www.w3.org/2000/svg">
<circle cx="110.5" cy="110" r="110" fill="url(#paint0_linear_9514_270905)"/>
<circle cx="110.5" cy="110" r="98" fill="url(#paint1_linear_9514_270905)"/>
<path d="M102.75 79.9688C102.34 79.5586 101.783 79.3281 101.203 79.3281C100.623 79.3281 100.067 79.5586 99.6563 79.9688C99.2461 80.3791 99.0156 80.9355 99.0156 81.5156C99.0156 82.0958 99.2461 82.6522 99.6563 83.0624L109.594 93L99.6571 102.937C99.2469 103.347 99.0156 103.904 99.0156 104.484C99.0156 104.519 99.0165 104.554 99.0182 104.589C99.0443 105.133 99.2718 105.647 99.6563 106.031C100.067 106.441 100.623 106.672 101.203 106.672C101.783 106.672 102.34 106.441 102.75 106.031L114.234 94.5468C114.645 94.1366 114.875 93.5802 114.875 93C114.875 92.4198 114.645 91.8634 114.234 91.4532L102.75 79.9688Z" fill="white"/>
<path d="M82.0625 95.1875H112.688C113.896 95.1875 114.875 94.2081 114.875 93C114.875 91.7919 113.896 90.8125 112.688 90.8125H82.0625C80.8544 90.8125 79.875 91.7919 79.875 93C79.875 94.2081 80.8544 95.1875 82.0625 95.1875Z" fill="white"/>
<path d="M128 114.875H112.688C111.479 114.875 110.5 115.854 110.5 117.062C110.5 118.271 111.479 119.25 112.688 119.25H128C129.812 119.25 131.094 117.969 131.094 117.969C132.375 116.687 132.375 114.875 132.375 114.875V71.125C132.375 69.3128 131.094 68.0314 131.094 68.0314C129.812 66.75 128 66.75 128 66.75H112.688C111.479 66.75 110.5 67.7294 110.5 68.9375C110.5 70.1456 111.479 71.125 112.688 71.125H128V114.875Z" fill="white"/>
<path d="M82.3821 146.185H80.1662C80.081 145.711 79.9223 145.295 79.6903 144.935C79.4583 144.575 79.1742 144.269 78.8381 144.018C78.5019 143.768 78.1255 143.578 77.7088 143.45C77.2969 143.322 76.8589 143.259 76.3949 143.259C75.5568 143.259 74.8063 143.469 74.1435 143.891C73.4853 144.312 72.9645 144.93 72.581 145.744C72.2022 146.559 72.0128 147.553 72.0128 148.727C72.0128 149.911 72.2022 150.91 72.581 151.724C72.9645 152.539 73.4877 153.154 74.1506 153.571C74.8134 153.988 75.5592 154.196 76.3878 154.196C76.8471 154.196 77.2827 154.134 77.6946 154.011C78.1113 153.884 78.4877 153.696 78.8239 153.45C79.16 153.204 79.4441 152.903 79.6761 152.548C79.9129 152.188 80.0762 151.777 80.1662 151.312L82.3821 151.32C82.2637 152.035 82.0341 152.693 81.6932 153.294C81.357 153.891 80.9238 154.407 80.3935 154.842C79.8679 155.273 79.2666 155.607 78.5895 155.844C77.9124 156.08 77.1738 156.199 76.3736 156.199C75.1141 156.199 73.992 155.901 73.0071 155.304C72.0223 154.703 71.2457 153.843 70.6776 152.726C70.1141 151.608 69.8324 150.276 69.8324 148.727C69.8324 147.174 70.1165 145.841 70.6847 144.729C71.2528 143.611 72.0294 142.754 73.0142 142.158C73.9991 141.556 75.1188 141.256 76.3736 141.256C77.1454 141.256 77.8651 141.367 78.5327 141.589C79.205 141.807 79.8087 142.129 80.3438 142.555C80.8788 142.977 81.3215 143.493 81.6719 144.104C82.0223 144.71 82.259 145.403 82.3821 146.185ZM86.9613 149.523V156H84.8377V141.455H86.9329V146.866H87.0678C87.3235 146.279 87.7141 145.813 88.2397 145.467C88.7653 145.122 89.4518 144.949 90.2994 144.949C91.0475 144.949 91.7009 145.103 92.2596 145.411C92.823 145.718 93.2586 146.178 93.5664 146.788C93.8789 147.394 94.0352 148.152 94.0352 149.061V156H91.9116V149.317C91.9116 148.517 91.7056 147.896 91.2937 147.456C90.8817 147.011 90.3088 146.788 89.5749 146.788C89.073 146.788 88.6232 146.895 88.2255 147.108C87.8325 147.321 87.5224 147.634 87.2951 148.045C87.0726 148.453 86.9613 148.945 86.9613 149.523ZM101.571 156.22C100.496 156.22 99.5702 155.991 98.7937 155.531C98.0219 155.067 97.4253 154.416 97.0039 153.578C96.5872 152.735 96.3789 151.748 96.3789 150.616C96.3789 149.499 96.5872 148.514 97.0039 147.662C97.4253 146.81 98.0124 146.144 98.7653 145.666C99.5228 145.188 100.408 144.949 101.422 144.949C102.037 144.949 102.634 145.051 103.211 145.254C103.789 145.458 104.307 145.777 104.767 146.213C105.226 146.649 105.588 147.214 105.853 147.911C106.118 148.602 106.251 149.442 106.251 150.432V151.185H97.5792V149.594H104.17C104.17 149.035 104.056 148.54 103.829 148.109C103.602 147.674 103.282 147.33 102.87 147.08C102.463 146.829 101.985 146.703 101.436 146.703C100.839 146.703 100.318 146.85 99.8732 147.143C99.4329 147.432 99.092 147.811 98.8505 148.28C98.6138 148.744 98.4954 149.248 98.4954 149.793V151.036C98.4954 151.765 98.6232 152.385 98.8789 152.896C99.1393 153.408 99.5015 153.798 99.9656 154.068C100.43 154.333 100.972 154.466 101.592 154.466C101.994 154.466 102.361 154.409 102.693 154.295C103.024 154.177 103.311 154.002 103.552 153.77C103.794 153.538 103.978 153.251 104.106 152.911L106.116 153.273C105.955 153.865 105.666 154.383 105.25 154.828C104.838 155.268 104.319 155.612 103.694 155.858C103.074 156.099 102.366 156.22 101.571 156.22ZM113.202 156.22C112.147 156.22 111.237 155.981 110.475 155.503C109.718 155.02 109.135 154.355 108.728 153.507C108.321 152.66 108.117 151.689 108.117 150.595C108.117 149.487 108.326 148.509 108.742 147.662C109.159 146.81 109.746 146.144 110.504 145.666C111.261 145.188 112.154 144.949 113.181 144.949C114.01 144.949 114.748 145.103 115.397 145.411C116.046 145.714 116.569 146.14 116.967 146.689C117.369 147.238 117.608 147.88 117.684 148.614H115.617C115.504 148.102 115.243 147.662 114.836 147.293C114.433 146.923 113.894 146.739 113.217 146.739C112.625 146.739 112.106 146.895 111.661 147.207C111.221 147.515 110.878 147.955 110.631 148.528C110.385 149.097 110.262 149.769 110.262 150.545C110.262 151.341 110.383 152.027 110.624 152.605C110.866 153.183 111.207 153.63 111.647 153.947C112.092 154.265 112.615 154.423 113.217 154.423C113.619 154.423 113.984 154.35 114.31 154.203C114.642 154.052 114.919 153.836 115.141 153.557C115.369 153.277 115.527 152.941 115.617 152.548H117.684C117.608 153.254 117.379 153.884 116.995 154.438C116.612 154.991 116.098 155.427 115.454 155.744C114.815 156.062 114.064 156.22 113.202 156.22ZM121.908 152.3L121.894 149.707H122.263L126.61 145.091H129.152L124.195 150.347H123.861L121.908 152.3ZM119.955 156V141.455H122.078V156H119.955ZM126.844 156L122.938 150.815L124.401 149.331L129.451 156H126.844ZM138.746 141.455V156H136.551V141.455H138.746ZM143.895 149.523V156H141.771V145.091H143.81V146.866H143.945C144.196 146.289 144.589 145.825 145.124 145.474C145.663 145.124 146.343 144.949 147.162 144.949C147.905 144.949 148.556 145.105 149.115 145.418C149.674 145.725 150.107 146.185 150.415 146.795C150.723 147.406 150.876 148.161 150.876 149.061V156H148.753V149.317C148.753 148.526 148.547 147.908 148.135 147.463C147.723 147.013 147.157 146.788 146.438 146.788C145.945 146.788 145.507 146.895 145.124 147.108C144.745 147.321 144.444 147.634 144.222 148.045C144.004 148.453 143.895 148.945 143.895 149.523Z" fill="white"/>
<defs>
<linearGradient id="paint0_linear_9514_270905" x1="110.5" y1="0" x2="110.5" y2="220" gradientUnits="userSpaceOnUse">
<stop stop-color="#F1F5FF"/>
<stop offset="1" stop-color="#D1DFFF"/>
</linearGradient>
<linearGradient id="paint1_linear_9514_270905" x1="-200.3" y1="-2.38809" x2="-183.419" y2="280.338" gradientUnits="userSpaceOnUse">
<stop stop-color="#40BE54"/>
<stop offset="1" stop-color="#00AEEB"/>
</linearGradient>
</defs>
</svg>
