<svg width="20" height="20" viewBox="0 0 20 20" fill="none" xmlns="http://www.w3.org/2000/svg">
<path d="M3.75 3.125H16.25C16.5952 3.125 16.875 3.40485 16.875 3.75V16.25C16.875 16.5952 16.5952 16.875 16.25 16.875H3.75C3.40485 16.875 3.125 16.5952 3.125 16.25V3.75C3.125 3.40485 3.40485 3.125 3.75 3.125Z" fill="black" fill-opacity="0.1"/>
<path d="M6.9943 9.86065C6.87801 9.74952 6.72335 9.6875 6.5625 9.6875C6.56237 9.6875 6.54832 9.68766 6.54832 9.68766C6.38261 9.69142 6.22517 9.76086 6.11065 9.8807C5.99952 9.99699 5.9375 10.1516 5.9375 10.3125L5.93766 10.3267C5.94142 10.4924 6.01086 10.6498 6.1307 10.7644L8.41976 12.9519C8.66119 13.1826 9.04135 13.1827 9.28298 12.9522L13.8688 8.57737L13.8689 8.57722C13.9889 8.4628 14.0584 8.30542 14.0623 8.13971C14.0626 8.1297 14.0626 8.11969 14.0623 8.10968C14.0585 7.95435 13.997 7.806 13.8897 7.69358C13.7718 7.56995 13.6084 7.5 13.4375 7.5L13.4199 7.50025C13.2653 7.50461 13.1179 7.56608 13.0061 7.67278L13.0059 7.67293L8.85193 11.6359L6.9943 9.86065Z" fill="#1C1C1C"/>
<path fill-rule="evenodd" clip-rule="evenodd" d="M2.5 3.75C2.5 3.75 2.5 3.23223 2.86612 2.86612C2.86612 2.86612 3.23223 2.5 3.75 2.5H16.25C16.25 2.5 16.7678 2.5 17.1339 2.86612C17.1339 2.86612 17.5 3.23223 17.5 3.75V16.25C17.5 16.25 17.5 16.7678 17.1339 17.1339C17.1339 17.1339 16.7678 17.5 16.25 17.5H3.75C3.75 17.5 3.23223 17.5 2.86612 17.1339C2.86612 17.1339 2.5 16.7678 2.5 16.25V3.75ZM3.75 3.75V16.25H16.25V3.75H3.75Z" fill="#1C1C1C"/>
</svg>
