<svg width="18" height="19" viewBox="0 0 18 19" fill="none" xmlns="http://www.w3.org/2000/svg">
<path fill-rule="evenodd" clip-rule="evenodd" d="M9 2.1875C9 2.1875 10.4873 2.1875 11.8465 2.76238C11.8465 2.76238 13.1589 3.31747 14.1707 4.32928C14.1707 4.32928 15.1825 5.34109 15.7376 6.65347C15.7376 6.65347 16.3125 8.01265 16.3125 9.5C16.3125 9.5 16.3125 10.9873 15.7376 12.3465C15.7376 12.3465 15.1825 13.6589 14.1707 14.6707C14.1707 14.6707 13.1589 15.6825 11.8465 16.2376C11.8465 16.2376 10.4873 16.8125 9 16.8125C9 16.8125 7.51265 16.8125 6.15347 16.2376C6.15347 16.2376 4.84109 15.6825 3.82928 14.6707C3.82928 14.6707 2.81747 13.6589 2.26238 12.3465C2.26238 12.3465 1.6875 10.9873 1.6875 9.5C1.6875 9.5 1.6875 8.01265 2.26238 6.65347C2.26238 6.65347 2.81748 5.34109 3.82928 4.32928C3.82928 4.32928 4.84109 3.31747 6.15347 2.76238C6.15347 2.76238 7.51265 2.1875 9 2.1875ZM9 3.3125C9 3.3125 7.74078 3.3125 6.59172 3.79851C6.59172 3.79851 5.48143 4.26813 4.62478 5.12478C4.62478 5.12478 3.76813 5.98143 3.29851 7.09172C3.29851 7.09172 2.8125 8.24078 2.8125 9.5C2.8125 9.5 2.8125 10.7592 3.29851 11.9083C3.29851 11.9083 3.76813 13.0186 4.62478 13.8752C4.62478 13.8752 5.48143 14.7319 6.59172 15.2015C6.59172 15.2015 7.74079 15.6875 9 15.6875C9 15.6875 10.2592 15.6875 11.4083 15.2015C11.4083 15.2015 12.5186 14.7319 13.3752 13.8752C13.3752 13.8752 14.2319 13.0186 14.7015 11.9083C14.7015 11.9083 15.1875 10.7592 15.1875 9.5C15.1875 9.5 15.1875 8.24079 14.7015 7.09172C14.7015 7.09172 14.2319 5.98143 13.3752 5.12478C13.3752 5.12478 12.5186 4.26813 11.4083 3.79851C11.4083 3.79851 10.2592 3.3125 9 3.3125Z" fill="#28A745"/>
<path d="M9 10.0625H12.9375C13.2482 10.0625 13.5 9.81066 13.5 9.5C13.5 9.18934 13.2482 8.9375 12.9375 8.9375H9C8.68934 8.9375 8.4375 9.18934 8.4375 9.5C8.4375 9.81066 8.68934 10.0625 9 10.0625Z" fill="#28A745"/>
<path d="M9.39775 9.10225C9.29226 8.99676 9.14918 8.9375 9 8.9375C8.85082 8.9375 8.70774 8.99676 8.60225 9.10225C8.49676 9.20774 8.4375 9.35082 8.4375 9.5C8.4375 9.64918 8.49676 9.79226 8.60225 9.89775L11.3863 12.6818C11.4918 12.7873 11.6352 12.8469 11.7844 12.8469C11.9336 12.8469 12.0766 12.7876 12.1821 12.6821C12.2876 12.5766 12.3469 12.4336 12.3469 12.2844C12.3469 12.1352 12.2876 11.9921 12.1821 11.8866L9.39775 9.10225Z" fill="#28A745"/>
</svg>
