<svg width="23" height="22" viewBox="0 0 23 22" fill="none" xmlns="http://www.w3.org/2000/svg">
<path fill-rule="evenodd" clip-rule="evenodd" d="M3.76031 4.46875C3.76031 4.46875 3.76031 3.89921 4.16304 3.49648C4.16304 3.49648 4.56577 3.09375 5.13531 3.09375H18.1978C18.1978 3.09375 18.7674 3.09375 19.1701 3.49648C19.1701 3.49648 19.5728 3.8992 19.5728 4.46875V17.5312C19.5728 17.5312 19.5728 18.1008 19.1701 18.5035C19.1701 18.5035 18.7674 18.9062 18.1978 18.9062H5.13531C5.13531 18.9062 4.56577 18.9062 4.16304 18.5035C4.16304 18.5035 3.76031 18.1008 3.76031 17.5312V4.46875ZM5.13531 4.46875V17.5312H18.1978V4.46875H5.13531Z" fill="#636480"/>
<path d="M10.9791 3.78125V18.2188C10.9791 18.5984 11.2869 18.9062 11.6666 18.9062C12.0463 18.9062 12.3541 18.5984 12.3541 18.2188V3.78125C12.3541 3.40155 12.0463 3.09375 11.6666 3.09375C11.2869 3.09375 10.9791 3.40155 10.9791 3.78125Z" fill="#636480"/>
<path d="M18.8853 10.3125H4.44781C4.06812 10.3125 3.76031 10.6203 3.76031 11C3.76031 11.3797 4.06812 11.6875 4.44781 11.6875H18.8853C19.265 11.6875 19.5728 11.3797 19.5728 11C19.5728 10.6203 19.265 10.3125 18.8853 10.3125Z" fill="#636480"/>
</svg>
