<svg width="25" height="26" viewBox="0 0 25 26" fill="none" xmlns="http://www.w3.org/2000/svg">
<path d="M23.5 4H1.5C0.947715 4 0.5 4.44772 0.5 5C0.5 5.55228 0.947715 6 1.5 6H23.5C24.0523 6 24.5 5.55228 24.5 5C24.5 4.44772 24.0523 4 23.5 4Z" fill="#00AEEB"/>
<path d="M8.5 11V19C8.5 19.5523 8.94771 20 9.5 20C10.0523 20 10.5 19.5523 10.5 19V11C10.5 10.4477 10.0523 10 9.5 10C8.94771 10 8.5 10.4477 8.5 11Z" fill="#00AEEB"/>
<path d="M14.5 11V19C14.5 19.5523 14.9477 20 15.5 20C16.0523 20 16.5 19.5523 16.5 19V11C16.5 10.4477 16.0523 10 15.5 10C14.9477 10 14.5 10.4477 14.5 11Z" fill="#00AEEB"/>
<path d="M4.5 24V5C4.5 4.44772 4.05228 4 3.5 4C2.94772 4 2.5 4.44772 2.5 5V24C2.5 24.8284 3.08579 25.4142 3.08579 25.4142C3.67157 26 4.5 26 4.5 26H20.5C21.3284 26 21.9142 25.4142 21.9142 25.4142C22.5 24.8284 22.5 24 22.5 24V5C22.5 4.44772 22.0523 4 21.5 4C20.9477 4 20.5 4.44772 20.5 5V24H4.5Z" fill="#00AEEB"/>
<path d="M7.37868 0.87868C6.5 1.75736 6.5 3 6.5 3V5C6.5 5.55228 6.94772 6 7.5 6C8.05228 6 8.5 5.55228 8.5 5V3C8.5 2.58579 8.79289 2.29289 8.79289 2.29289C9.08579 2 9.5 2 9.5 2H15.5C15.9142 2 16.2071 2.29289 16.2071 2.29289C16.5 2.58579 16.5 3 16.5 3V5C16.5 5.55228 16.9477 6 17.5 6C18.0523 6 18.5 5.55228 18.5 5V3C18.5 1.75736 17.6213 0.87868 17.6213 0.87868C16.7426 0 15.5 0 15.5 0H9.5C8.25736 0 7.37868 0.87868 7.37868 0.87868Z" fill="#00AEEB"/>
</svg>
