<svg width="20" height="21" viewBox="0 0 20 21" fill="none" xmlns="http://www.w3.org/2000/svg">
<path fill-rule="evenodd" clip-rule="evenodd" d="M10 2.375C10 2.375 11.6526 2.375 13.1628 3.01376C13.1628 3.01376 14.621 3.63053 15.7452 4.75476C15.7452 4.75476 16.8695 5.87899 17.4862 7.33719C17.4862 7.33719 18.125 8.84739 18.125 10.5C18.125 10.5 18.125 12.1526 17.4862 13.6628C17.4862 13.6628 16.8695 15.121 15.7452 16.2452C15.7452 16.2452 14.621 17.3695 13.1628 17.9862C13.1628 17.9862 11.6526 18.625 10 18.625C10 18.625 8.34739 18.625 6.83719 17.9862C6.83719 17.9862 5.37899 17.3695 4.25476 16.2452C4.25476 16.2452 3.13053 15.121 2.51376 13.6628C2.51376 13.6628 1.875 12.1526 1.875 10.5C1.875 10.5 1.875 8.84739 2.51376 7.33719C2.51376 7.33719 3.13053 5.87899 4.25476 4.75476C4.25476 4.75476 5.37899 3.63053 6.83719 3.01376C6.83719 3.01376 8.34739 2.375 10 2.375ZM10 3.625C10 3.625 8.60087 3.625 7.32413 4.16501C7.32413 4.16501 6.09047 4.68681 5.13864 5.63864C5.13864 5.63864 4.18681 6.59047 3.66502 7.82413C3.66502 7.82413 3.125 9.10087 3.125 10.5C3.125 10.5 3.125 11.8991 3.66502 13.1759C3.66502 13.1759 4.18681 14.4095 5.13864 15.3614C5.13864 15.3614 6.09047 16.3132 7.32413 16.835C7.32413 16.835 8.60087 17.375 10 17.375C10 17.375 11.3991 17.375 12.6759 16.835C12.6759 16.835 13.9095 16.3132 14.8614 15.3614C14.8614 15.3614 15.8132 14.4095 16.335 13.1759C16.335 13.1759 16.875 11.8991 16.875 10.5C16.875 10.5 16.875 9.10087 16.335 7.82413C16.335 7.82413 15.8132 6.59047 14.8614 5.63864C14.8614 5.63864 13.9095 4.68681 12.6759 4.16501C12.6759 4.16501 11.3991 3.625 10 3.625Z" fill="black" fill-opacity="0.4"/>
<path d="M5.625 14.25V17C5.625 17.3452 5.90482 17.625 6.25 17.625C6.59518 17.625 6.875 17.3452 6.875 17V14.3873L10 7.61644L13.125 14.3873V17C13.125 17.3452 13.4048 17.625 13.75 17.625C14.0952 17.625 14.375 17.3452 14.375 17V14.25C14.375 14.1596 14.3554 14.0702 14.3175 13.9881L10.5675 5.86309C10.5052 5.72814 10.3969 5.61981 10.2619 5.55752C9.9485 5.41287 9.57718 5.54968 9.43253 5.86309L5.68253 13.9881C5.64463 14.0702 5.625 14.1596 5.625 14.25Z" fill="black" fill-opacity="0.4"/>
<path d="M12.7589 14.6161C13.125 14.9822 13.125 15.5 13.125 15.5C13.125 15.8452 13.4048 16.125 13.75 16.125C14.0952 16.125 14.375 15.8452 14.375 15.5C14.375 14.4645 13.6428 13.7322 13.6428 13.7322C12.9105 13 11.875 13 11.875 13C10.8395 13 10.1072 13.7322 10.1072 13.7322C9.37531 14.4642 9.375 15.4991 9.375 15.4991V15.5C9.375 15.6658 9.44085 15.8247 9.55806 15.9419C9.67527 16.0592 9.83424 16.125 10 16.125C10.3452 16.125 10.625 15.8452 10.625 15.5C10.625 14.9822 10.9911 14.6161 10.9911 14.6161C11.3572 14.25 11.875 14.25 11.875 14.25C12.3928 14.25 12.7589 14.6161 12.7589 14.6161Z" fill="black" fill-opacity="0.4"/>
<path d="M6.35723 13.7322C5.625 14.4645 5.625 15.5 5.625 15.5C5.625 15.8452 5.90482 16.125 6.25 16.125C6.59518 16.125 6.875 15.8452 6.875 15.5C6.875 14.9822 7.24112 14.6161 7.24112 14.6161C7.60723 14.25 8.125 14.25 8.125 14.25C8.64277 14.25 9.00888 14.6161 9.00888 14.6161C9.375 14.9822 9.375 15.5 9.375 15.5V18C9.375 18.3452 9.65482 18.625 10 18.625C10.3452 18.625 10.625 18.3452 10.625 18V15.5C10.625 14.4645 9.89277 13.7322 9.89277 13.7322C9.16053 13 8.125 13 8.125 13C7.08947 13 6.35723 13.7322 6.35723 13.7322Z" fill="black" fill-opacity="0.4"/>
<path d="M7.98439 11.125H12.0156C12.3608 11.125 12.6406 10.8452 12.6406 10.5C12.6406 10.1548 12.3608 9.875 12.0156 9.875H7.98439C7.63921 9.875 7.35939 10.1548 7.35939 10.5C7.35939 10.8452 7.63921 11.125 7.98439 11.125Z" fill="black" fill-opacity="0.4"/>
</svg>
