<svg width="19" height="19" viewBox="0 0 19 19" fill="none" xmlns="http://www.w3.org/2000/svg">
<path fill-rule="evenodd" clip-rule="evenodd" d="M17.9944 7.31622L6.53033 18.7802C6.38968 18.9209 6.19891 18.9999 6 18.9999H1.5C1.5 18.9999 0.87868 18.9999 0.439341 18.5606C0.439341 18.5606 2.92668e-07 18.1212 2.92668e-07 17.4999L3.37372e-07 13.3093C3.37372e-07 13.3093 -0.00103598 13.015 0.111763 12.7404C0.111763 12.7404 0.224563 12.4657 0.433985 12.2553L11.6853 1.00396C11.6853 1.00396 11.8927 0.793323 12.1707 0.676935C12.1707 0.676935 12.4486 0.560547 12.75 0.560547C12.75 0.560547 13.0514 0.560547 13.3293 0.676936C13.3293 0.676936 13.6073 0.793323 13.8187 1.00804L17.996 5.18521C17.996 5.18521 18.2066 5.39262 18.323 5.67059C18.323 5.67059 18.4394 5.94857 18.4394 6.24992C18.4394 6.24992 18.4394 6.55127 18.323 6.82924C18.323 6.82924 18.2077 7.10456 17.996 7.31463L17.9944 7.31622ZM16.9394 6.24992L16.9353 6.24587L12.75 2.06055L12.746 2.06462L1.5 13.3106V17.4999H5.68934L16.9353 6.25396L16.9394 6.24992Z" fill="#333333"/>
<path d="M14.4693 9.77994C14.6099 9.92059 14.8011 10 15 10C15.1989 10 15.3897 9.92098 15.5303 9.78033C15.671 9.63968 15.75 9.44891 15.75 9.25C15.75 9.05109 15.671 8.86032 15.5303 8.71967L10.2804 3.46976C10.1397 3.32902 9.9489 3.25 9.74999 3.25C9.55108 3.25 9.36031 3.32902 9.21966 3.46967C9.07901 3.61032 8.99999 3.80109 8.99999 4C8.99999 4.19891 9.07901 4.38968 9.21966 4.53033L14.4693 9.77994Z" fill="#333333"/>
<path d="M1.3272 12.5165C1.18654 12.3759 0.995778 12.2969 0.796866 12.2969C0.597954 12.2969 0.407188 12.3759 0.266536 12.5165C0.125884 12.6572 0.046866 12.848 0.046866 13.0469C0.046866 13.2458 0.125884 13.4366 0.266536 13.5772L5.46966 18.7803C5.61031 18.921 5.80109 18.9999 6 18.9999L17.25 19C17.6642 19 18 18.6642 18 18.25C18 17.8358 17.6642 17.5 17.25 17.5H6.31065L1.3272 12.5165Z" fill="#333333"/>
<path d="M12.905 7.15561C13.0457 7.01496 13.125 6.82391 13.125 6.625C13.125 6.42609 13.046 6.23532 12.9053 6.09467L12.8988 6.08827C12.7588 5.9518 12.5705 5.875 12.375 5.875C12.3525 5.875 12.33 5.87601 12.3076 5.87803C12.1327 5.89381 11.9688 5.97048 11.8447 6.09467L2.84494 15.0944C2.70429 15.235 2.62499 15.4261 2.62499 15.625C2.62499 15.637 2.62528 15.649 2.62586 15.661C2.63481 15.8473 2.71282 16.0235 2.84466 16.1553C2.98531 16.296 3.17608 16.375 3.37499 16.375C3.5739 16.375 3.76467 16.296 3.90532 16.1553L12.905 7.15561Z" fill="#333333"/>
</svg>
