<svg width="28" height="28" viewBox="0 0 28 28" fill="none" xmlns="http://www.w3.org/2000/svg">
<rect width="28" height="28" rx="4" fill="black" fill-opacity="0.05"/>
<path d="M9.35355 11.6464C9.25979 11.5527 9.13261 11.5 9 11.5C8.86739 11.5 8.74021 11.5527 8.64645 11.6464C8.55268 11.7402 8.5 11.8674 8.5 12C8.5 12.1326 8.55268 12.2598 8.64645 12.3536L13.6464 17.3536C13.8417 17.5488 14.1583 17.5488 14.3536 17.3536L19.3536 12.3536C19.4473 12.2598 19.5 12.1326 19.5 12C19.5 11.8674 19.4473 11.7402 19.3536 11.6464C19.2598 11.5527 19.1326 11.5 19 11.5C18.8674 11.5 18.7402 11.5527 18.6464 11.6464L14 16.2929L9.35355 11.6464Z" fill="#858B8F"/>
</svg>
