<svg width="18" height="18" viewBox="0 0 18 18" fill="none" xmlns="http://www.w3.org/2000/svg">
<path fill-rule="evenodd" clip-rule="evenodd" d="M3.79122 2.43412C3.78521 2.42752 3.77906 2.42106 3.77275 2.41475C3.6738 2.31581 3.54153 2.25729 3.40176 2.25064L3.40008 2.25056C3.39172 2.25019 3.38336 2.25 3.375 2.25C3.23507 2.25 3.10016 2.30216 2.99662 2.39628C2.99002 2.40229 2.98356 2.40844 2.97725 2.41475C2.87831 2.5137 2.81979 2.64597 2.81314 2.78574L2.81306 2.78742C2.81269 2.79578 2.8125 2.80414 2.8125 2.8125C2.8125 2.95243 2.86466 3.08734 2.95878 3.19088L4.32192 4.69033C3.64329 5.12582 2.53837 5.94193 1.64169 7.11286C1.64169 7.11286 0.940161 8.02895 0.610763 8.77201C0.546336 8.91735 0.546416 9.08315 0.610981 9.22842C0.610981 9.22842 0.768049 9.58183 1.08845 10.0907C1.08845 10.0907 1.71973 11.0933 2.55538 11.929C2.55538 11.929 5.25138 14.625 8.99542 14.625C8.99542 14.625 10.8571 14.6401 12.6592 13.8613L14.2088 15.5659C14.3154 15.6831 14.4665 15.75 14.625 15.75L14.6274 15.75C14.7665 15.7494 14.9004 15.6973 15.0034 15.6037C15.1206 15.4971 15.1875 15.346 15.1875 15.1875L15.1875 15.1851C15.1869 15.046 15.1348 14.9121 15.0412 14.8091L7.53979 6.55755C7.53888 6.55646 7.53796 6.55538 7.53705 6.5543C7.53306 6.54962 7.529 6.545 7.52485 6.54044C7.51972 6.53479 7.51448 6.52926 7.50915 6.52385L3.79122 2.43412ZM5.08475 5.52944C3.5981 6.40844 2.53488 7.79685 2.53488 7.79685C2.02675 8.46038 1.75013 8.99706 1.75013 8.99706C1.86445 9.21174 2.04046 9.49128 2.04046 9.49128C2.60449 10.3871 3.35087 11.1335 3.35087 11.1335C5.71737 13.5 9.00458 13.5 9.00458 13.5C10.1313 13.5092 11.1855 13.2073 11.8453 12.966L10.812 11.8294C10.4059 12.0793 9.76087 12.3779 8.99995 12.375C8.99995 12.375 7.9542 12.3749 7.09173 11.7835C7.09173 11.7835 6.22925 11.1922 5.85225 10.2167C5.85225 10.2167 5.47526 9.2413 5.71583 8.2236C5.71583 8.2236 5.87485 7.55094 6.35016 6.92139L5.08475 5.52944ZM6.81066 8.48241C6.87611 8.20554 7.00076 7.96356 7.12538 7.77414L10.045 10.9857C9.51549 11.252 9.00007 11.25 9.00007 11.25C8.3029 11.25 7.72792 10.8557 7.72792 10.8557C7.15294 10.4614 6.90161 9.81116 6.90161 9.81116C6.65027 9.16088 6.81066 8.48241 6.81066 8.48241Z" fill="#858B8F"/>
<path d="M7.45165 3.50227C7.30451 3.5269 7.17319 3.60897 7.08656 3.73043C7.01856 3.82576 6.98202 3.93995 6.98202 4.05705L6.98204 4.0617C6.98228 4.09126 6.98486 4.12076 6.98974 4.14992C7.01437 4.29705 7.09644 4.42838 7.2179 4.515C7.31323 4.583 7.42742 4.61955 7.54452 4.61955L7.54917 4.61953C7.57873 4.61928 7.60823 4.61671 7.63738 4.61183C8.31343 4.49866 8.99888 4.50002 8.99888 4.50002C12.2826 4.50002 14.6491 6.86652 14.6491 6.86652C15.3955 7.6129 15.9595 8.50871 15.9595 8.50871C16.1346 8.78675 16.2486 9.00062 16.2486 9.00062C16.1055 9.27054 15.8751 9.62293 15.8751 9.62293C15.1953 10.6625 14.2931 11.4698 14.2931 11.4698L14.2926 11.4702C14.1733 11.577 14.1047 11.7298 14.1047 11.8899C14.1047 11.8966 14.1048 11.9033 14.105 11.91L14.1052 11.9134L14.1053 11.9168C14.1115 12.0457 14.1618 12.1686 14.2479 12.2649C14.3546 12.3842 14.5071 12.4524 14.6672 12.4524C14.6761 12.4524 14.6851 12.4521 14.6941 12.4517C14.823 12.4455 14.946 12.3952 15.0422 12.3091C16.0553 11.4029 16.8167 10.2386 16.8167 10.2386C17.2018 9.64959 17.389 9.22847 17.389 9.22847C17.4536 9.08303 17.4536 8.91701 17.389 8.77157C17.2319 8.41815 16.9115 7.9093 16.9115 7.9093C16.2803 6.90666 15.4446 6.07102 15.4446 6.07102C12.7486 3.37502 9.0011 3.37502 9.0011 3.37502C8.22117 3.37348 7.45165 3.50227 7.45165 3.50227Z" fill="#858B8F"/>
<path d="M11.2384 8.78495C11.2384 8.78495 11.1688 8.03828 10.6641 7.48361C10.6641 7.48361 10.1594 6.92893 9.42263 6.78933C9.27605 6.76156 9.14651 6.6767 9.0625 6.55341C8.99965 6.46117 8.96566 6.35232 8.96486 6.24071L8.96484 6.23666C8.96484 6.20153 8.96814 6.16647 8.97468 6.13195C9.02141 5.88529 9.22595 5.69946 9.47595 5.67652C9.49303 5.67495 9.51018 5.67416 9.52734 5.67416C9.56248 5.67416 9.59754 5.67746 9.63206 5.684C9.63206 5.684 10.7384 5.89362 11.4962 6.7265C11.4962 6.7265 12.2539 7.55959 12.3585 8.68056C12.3601 8.69736 12.3609 8.71422 12.3609 8.7311L12.3609 8.73276C12.3609 9.02319 12.1398 9.26588 11.8506 9.29283C11.8338 9.2944 11.817 9.29521 11.8001 9.29526L11.7984 9.29526C11.508 9.29526 11.2653 9.07414 11.2384 8.78495Z" fill="#858B8F"/>
</svg>
