<svg width="20" height="20" viewBox="0 0 20 20" fill="none" xmlns="http://www.w3.org/2000/svg">
<path fill-rule="evenodd" clip-rule="evenodd" d="M14.0089 17.7589C14.0089 17.7589 13.6428 18.125 13.125 18.125H4.375C4.375 18.125 3.85723 18.125 3.49112 17.7589C3.49112 17.7589 3.125 17.3928 3.125 16.875V5.625C3.125 5.625 3.125 5.10723 3.49112 4.74112C3.49112 4.74112 3.85723 4.375 4.375 4.375H10.625C10.7908 4.375 10.9497 4.44085 11.0669 4.55806L14.1919 7.68306C14.3092 7.80027 14.375 7.95924 14.375 8.125V16.875C14.375 16.875 14.375 17.3928 14.0089 17.7589ZM13.125 16.875V8.38388L10.3661 5.625H4.375V16.875H13.125Z" fill="#00AEEB"/>
<path d="M15.625 14.375H13.75C13.4048 14.375 13.125 14.6548 13.125 15C13.125 15.3452 13.4048 15.625 13.75 15.625H15.625C16.1428 15.625 16.5089 15.2589 16.5089 15.2589C16.875 14.8928 16.875 14.375 16.875 14.375V5.625C16.875 5.45924 16.8092 5.30027 16.6919 5.18306L13.5669 2.05806C13.4497 1.94085 13.2908 1.875 13.125 1.875L6.875 1.875C6.35723 1.875 5.99112 2.24112 5.99112 2.24112C5.625 2.60723 5.625 3.125 5.625 3.125V5C5.625 5.34518 5.90482 5.625 6.25 5.625C6.59518 5.625 6.875 5.34518 6.875 5V3.125H12.8661L15.625 5.88388V14.375Z" fill="#00AEEB"/>
<path d="M6.875 12.5H10.625C10.9702 12.5 11.25 12.2202 11.25 11.875C11.25 11.5298 10.9702 11.25 10.625 11.25H6.875C6.52982 11.25 6.25 11.5298 6.25 11.875C6.25 12.2202 6.52982 12.5 6.875 12.5Z" fill="#00AEEB"/>
<path d="M6.875 15H10.625C10.9702 15 11.25 14.7202 11.25 14.375C11.25 14.0298 10.9702 13.75 10.625 13.75H6.875C6.52982 13.75 6.25 14.0298 6.25 14.375C6.25 14.7202 6.52982 15 6.875 15Z" fill="#00AEEB"/>
</svg>
