<svg width="20" height="20" viewBox="0 0 20 20" fill="none" xmlns="http://www.w3.org/2000/svg">
<path fill-rule="evenodd" clip-rule="evenodd" d="M16.5089 17.7589C16.5089 17.7589 16.1428 18.125 15.625 18.125H4.375C4.375 18.125 3.85723 18.125 3.49112 17.7589C3.49112 17.7589 3.125 17.3928 3.125 16.875V3.125C3.125 3.125 3.125 2.60723 3.49112 2.24112C3.49112 2.24112 3.85723 1.875 4.375 1.875H11.875C12.0408 1.875 12.1997 1.94085 12.3169 2.05806L16.6919 6.43306C16.8092 6.55027 16.875 6.70924 16.875 6.875V16.875C16.875 16.875 16.875 17.3928 16.5089 17.7589ZM15.625 16.875V7.13388L11.6161 3.125H4.375V16.875H15.625Z" fill="#1C1C1C"/>
<path d="M11.875 7.5H16.25C16.5952 7.5 16.875 7.22018 16.875 6.875C16.875 6.52982 16.5952 6.25 16.25 6.25H12.5V2.5C12.5 2.15482 12.2202 1.875 11.875 1.875C11.5298 1.875 11.25 2.15482 11.25 2.5V6.875C11.25 7.22018 11.5298 7.5 11.875 7.5Z" fill="#1C1C1C"/>
<path d="M11.7452 12.0041C11.8624 12.1213 12.0217 12.1875 12.1875 12.1875C12.3533 12.1875 12.5122 12.1217 12.6294 12.0044C12.7467 11.8872 12.8125 11.7283 12.8125 11.5625C12.8125 11.3967 12.7467 11.2378 12.6294 11.1206L10.4419 8.93306C10.3247 8.81585 10.1658 8.75 10 8.75C9.83424 8.75 9.67527 8.81585 9.55806 8.93306L7.37056 11.1206C7.25335 11.2378 7.1875 11.3967 7.1875 11.5625C7.1875 11.5725 7.18774 11.5825 7.18822 11.5925C7.19569 11.7477 7.26069 11.8946 7.37056 12.0044C7.48777 12.1217 7.64674 12.1875 7.8125 12.1875C7.97826 12.1875 8.13723 12.1217 8.25444 12.0044L10 10.2589L11.7452 12.0041Z" fill="#1C1C1C"/>
<path d="M10.625 14.375V9.375C10.625 9.02982 10.3452 8.75 10 8.75C9.65482 8.75 9.375 9.02982 9.375 9.375V14.375C9.375 14.7202 9.65482 15 10 15C10.3452 15 10.625 14.7202 10.625 14.375Z" fill="#1C1C1C"/>
</svg>
