<svg width="22" height="22" viewBox="0 0 22 22" fill="none" xmlns="http://www.w3.org/2000/svg">
<path d="M4.125 18.5623V4.12481C4.125 3.74511 3.8172 3.43731 3.4375 3.43731C3.0578 3.43731 2.75 3.74511 2.75 4.12481V18.5623C2.75 18.942 3.0578 19.2498 3.4375 19.2498C3.8172 19.2498 4.125 18.942 4.125 18.5623Z" fill="#636480"/>
<path d="M7.4184 2.28085C5.07374 2.0383 3.025 3.57486 3.025 3.57486C2.87913 3.68426 2.7827 3.84713 2.75691 4.02763C2.75231 4.05983 2.75 4.09228 2.75 4.12481L2.75 4.12721C2.75051 4.27516 2.79873 4.419 2.8875 4.53736C3.01734 4.71047 3.2211 4.81236 3.4375 4.81236L3.44652 4.8123C3.59218 4.81039 3.73346 4.76226 3.85 4.67486C5.46792 3.46141 7.27691 3.64855 7.27691 3.64855C8.02891 3.72634 8.96565 4.04964 8.96565 4.04964C9.54899 4.25097 10.7292 4.75677 10.7292 4.75677C11.9552 5.28222 12.5858 5.49984 12.5858 5.49984C13.6721 5.87478 14.5816 5.96886 14.5816 5.96886C16.3086 6.14751 17.875 5.36097 17.875 5.36097V14.0826C16.3791 15.085 14.7231 14.9137 14.7231 14.9137C13.9711 14.8359 13.0344 14.5126 13.0344 14.5126C12.451 14.3112 11.2708 13.8054 11.2708 13.8054C10.0448 13.28 9.41424 13.0624 9.41424 13.0624C8.32786 12.6874 7.4184 12.5934 7.4184 12.5934C5.07487 12.3509 3.02696 13.8859 3.02696 13.8859C3.02598 13.8866 3.025 13.8874 3.025 13.8874C2.87913 13.9968 2.7827 14.1596 2.75691 14.3401C2.75231 14.3723 2.75 14.4048 2.75 14.4374L2.75 14.4397C2.75051 14.5877 2.79873 14.7315 2.8875 14.8499C3.01734 15.023 3.2211 15.1249 3.4375 15.1249L3.44652 15.1248C3.59218 15.1229 3.73346 15.0748 3.85 14.9874C5.46792 13.7739 7.27691 13.9611 7.27691 13.9611C8.02891 14.0388 8.96565 14.3621 8.96565 14.3621C9.54899 14.5635 10.7292 15.0693 10.7292 15.0693C11.9552 15.5947 12.5858 15.8123 12.5858 15.8123C13.6721 16.1873 14.5816 16.2814 14.5816 16.2814C16.9263 16.5239 18.975 14.9874 18.975 14.9874C19.1481 14.8575 19.25 14.6538 19.25 14.4374V4.12486C19.25 3.9761 19.2018 3.83136 19.1125 3.71236C18.8847 3.4086 18.4538 3.34704 18.15 3.57485C16.5321 4.7883 14.7231 4.60116 14.7231 4.60116C13.9711 4.52337 13.0344 4.20007 13.0344 4.20007C12.451 3.99874 11.2708 3.49294 11.2708 3.49294C10.0448 2.96749 9.41424 2.74987 9.41424 2.74987C8.32786 2.37493 7.4184 2.28085 7.4184 2.28085Z" fill="#636480"/>
</svg>
