<svg width="16" height="16" viewBox="0 0 16 16" fill="none" xmlns="http://www.w3.org/2000/svg">
<path fill-rule="evenodd" clip-rule="evenodd" d="M15.101 6.10816C15.101 6.10816 15.2882 6.2849 15.392 6.52045C15.392 6.52045 15.4958 6.756 15.4999 7.01337L15.5 14.25C15.5 14.25 15.5 14.7678 15.1339 15.1339C15.1339 15.1339 14.7678 15.5 14.25 15.5H1.75C1.75 15.5 1.23223 15.5 0.866117 15.1339C0.866117 15.1339 0.5 14.7678 0.5 14.25V7.02348C0.5 7.02348 0.504246 6.756 0.608047 6.52045C0.608047 6.52045 0.711849 6.2849 0.898989 6.10816L7.15779 0.420317C7.15779 0.420317 7.51448 0.0939941 8 0.0939941C8 0.0939941 8.48552 0.0939941 8.84375 0.421723L15.0918 6.09961L15.101 6.10816ZM14.2441 7.01832L8 1.34399L7.99846 1.3454L1.75726 7.01693C1.75726 7.01693 1.75382 7.02019 1.75191 7.02452C1.75191 7.02452 1.75101 7.02655 1.75054 7.02645C1.75054 7.02645 1.75 7.02635 1.75 7.02354V14.25H14.25L14.2501 7.0336C14.2501 7.0336 14.25 7.02886 14.2481 7.02452C14.2481 7.02452 14.2466 7.02108 14.2441 7.01832Z" fill="#858B8F"/>
</svg>
