<svg width="20" height="18" viewBox="0 0 20 18" fill="none" xmlns="http://www.w3.org/2000/svg">
<g clip-path="url(#clip0_10300_282992)">
<path d="M19.989 1.69915C19.9615 0.758902 19.1781 0.00596837 18.2136 0.00474409C14.0206 -0.00198946 9.82815 -0.000765176 5.63574 0.00351981C4.81363 0.00413195 4.11021 0.549549 3.9078 1.33064C3.85657 1.52836 3.84221 1.73894 3.84033 1.94339C3.83221 2.67674 3.83721 3.41008 3.83721 4.16424C3.76599 4.17342 3.72851 4.17832 3.6904 4.18383C0.781141 4.60804 -0.853093 7.60447 0.459417 10.1418C1.12098 11.4218 2.20422 12.1655 3.65105 12.4012C3.71727 12.4116 3.82596 12.4777 3.82721 12.5206C3.84033 12.9699 3.83533 13.4198 3.83533 13.8967H3.55859C2.87953 13.8967 2.19985 13.8954 1.52079 13.8973C1.1316 13.8985 1.00791 14.0228 1.00729 14.4096C1.00604 14.9912 1.00541 15.5721 1.00729 16.1536C1.01166 17.239 1.78879 17.9992 2.89765 17.9992C7.02009 18.0005 11.1419 17.9998 15.2644 17.9986C15.3887 17.9986 15.5155 17.9974 15.6373 17.976C16.5731 17.8119 17.1678 17.0908 17.1678 16.1169C17.1697 12.2151 17.1685 8.31333 17.1685 4.41155V4.10241H17.454C18.1493 4.10241 18.8439 4.10486 19.5386 4.10119C19.8478 4.09935 19.9921 3.96468 19.994 3.67269C19.9984 3.01464 20.0078 2.35659 19.989 1.69915ZM0.814251 8.2362C0.83799 6.401 2.39851 4.90922 4.26951 4.93248C6.18548 4.95696 7.68915 6.4763 7.66541 8.36414C7.6423 10.1895 6.07304 11.6795 4.19767 11.6575C2.30168 11.6348 0.790512 10.1069 0.814251 8.2362ZM13.6076 17.2169C10.0418 17.2175 6.47597 17.2181 2.91014 17.2169C2.22484 17.2169 1.80754 16.8037 1.80566 16.1279C1.80441 15.6553 1.80566 15.1828 1.80566 14.6894H13.5039C13.6195 15.5237 13.3265 16.3991 13.825 17.2035C13.7382 17.209 13.6732 17.2169 13.6076 17.2169ZM16.3713 2.26722C16.3738 6.85032 16.3738 11.4334 16.3701 16.0165C16.3695 16.1977 16.3532 16.3875 16.2964 16.5576C16.1452 17.0119 15.6579 17.2855 15.1869 17.2077C14.6921 17.1257 14.3398 16.726 14.3304 16.2051C14.3192 15.6088 14.3279 15.012 14.3267 14.4152C14.326 14.0136 14.2067 13.8973 13.7957 13.8973C10.852 13.8967 7.90843 13.8967 4.96481 13.8967H4.64058C4.64058 13.4192 4.63683 12.9699 4.64808 12.5212C4.6487 12.4789 4.74241 12.411 4.80051 12.4024C6.2061 12.1894 7.25061 11.4695 7.9534 10.2642C7.99588 10.1914 8.05086 10.1185 8.06773 10.0396C8.13894 9.69738 8.36446 9.65821 8.68119 9.66065C10.4141 9.67596 12.1477 9.66861 13.8813 9.66739C13.99 9.66739 14.1018 9.668 14.2067 9.64413C14.3973 9.60066 14.4991 9.46844 14.501 9.27929C14.5028 9.07912 14.396 8.94506 14.1955 8.90037C14.1055 8.88017 14.0093 8.88262 13.9162 8.88262C12.1902 8.8814 10.4647 8.88201 8.73929 8.88201H8.43193C8.52376 8.11316 8.44255 7.38533 8.13145 6.6581H13.9119C13.9893 6.6581 14.0687 6.66239 14.1455 6.65259C14.3673 6.62566 14.5153 6.45426 14.5053 6.24491C14.4953 6.04351 14.3448 5.89476 14.1286 5.87823C14.0587 5.87273 13.9881 5.87579 13.9175 5.87579C11.9109 5.87579 9.90437 5.87456 7.89718 5.87885C7.74475 5.87885 7.64667 5.83906 7.5461 5.71663C6.83455 4.85045 5.91249 4.3387 4.78801 4.18077C4.75053 4.17587 4.71305 4.16975 4.65558 4.16179C4.65558 3.3103 4.63746 2.48453 4.66307 1.65936C4.67744 1.17148 5.12723 0.793181 5.63762 0.783387C6.03555 0.775429 6.43412 0.781551 6.83268 0.781551H16.6843C16.3463 1.25596 16.3713 1.7622 16.3713 2.26722ZM19.1938 3.30541H17.181C17.181 2.72877 17.1466 2.16254 17.191 1.60182C17.2303 1.10721 17.7276 0.757065 18.2417 0.782775C18.7502 0.807873 19.1769 1.21495 19.19 1.7169C19.2044 2.24212 19.1938 2.76795 19.1938 3.30541Z" fill="#B53CFF"/>
<path d="M14.5026 3.28116C14.4913 3.47093 14.3826 3.59397 14.1914 3.63131C14.1009 3.64906 14.0053 3.64722 13.9122 3.64784C12.7734 3.64845 11.6345 3.64845 10.4957 3.64845C9.37246 3.64845 8.24923 3.64845 7.12601 3.64784C7.03293 3.64784 6.9386 3.64906 6.84614 3.63621C6.64374 3.60866 6.50318 3.45379 6.49818 3.26525C6.49318 3.07977 6.62937 2.91449 6.8274 2.87715C6.90362 2.86307 6.98295 2.86368 7.06042 2.86368C9.35372 2.86307 11.6464 2.86307 13.9397 2.8643C14.0328 2.8643 14.1296 2.8643 14.2177 2.88817C14.4145 2.94265 14.515 3.08038 14.5026 3.28116Z" fill="#B53CFF"/>
<path d="M5.8183 9.33315C5.79457 9.94713 5.43661 10.3536 4.86688 10.5752C4.7107 10.6364 4.63136 10.697 4.62137 10.8727C4.61012 11.0759 4.43833 11.2039 4.24092 11.2026C4.04476 11.2014 3.87172 11.0716 3.86047 10.8702C3.85048 10.6939 3.76864 10.6327 3.61184 10.5746C3.04086 10.3646 2.65104 9.84184 2.65854 9.3307C2.66166 9.09931 2.82096 8.92363 3.03773 8.91139C3.24576 8.89914 3.42505 9.04055 3.44879 9.26582C3.48315 9.58841 3.66306 9.78246 3.96667 9.87367C4.29777 9.97345 4.6045 9.92019 4.85501 9.67901C5.12488 9.41946 5.08865 9.09992 4.75943 8.91383C4.57951 8.81222 4.37398 8.75345 4.17845 8.67938C3.94606 8.59185 3.70242 8.52757 3.48003 8.42045C2.98588 8.18355 2.63854 7.82361 2.65854 7.24636C2.67915 6.66054 3.01149 6.26143 3.5425 6.02759C3.72241 5.94862 3.85422 5.89231 3.86922 5.66092C3.88171 5.46565 4.0585 5.36525 4.26091 5.37688C4.46206 5.38852 4.60887 5.50115 4.62137 5.70254C4.63261 5.87578 4.70758 5.94067 4.86625 6.00066C5.39975 6.20389 5.73522 6.58097 5.81581 7.15026C5.85391 7.42266 5.71023 7.63201 5.47222 7.66384C5.24295 7.69384 5.07115 7.54203 5.02618 7.27024C4.9712 6.93846 4.74443 6.72543 4.3846 6.66728C4.03664 6.61096 3.65994 6.77257 3.51751 7.04007C3.40631 7.24759 3.4338 7.45143 3.63433 7.58977C3.79738 7.7018 3.98729 7.78076 4.17345 7.85361C4.43333 7.95583 4.71007 8.01888 4.9637 8.13335C5.48159 8.36658 5.84142 8.73937 5.8183 9.33315Z" fill="#B53CFF"/>
</g>
<defs>
<clipPath id="clip0_10300_282992">
<rect width="20" height="18" fill="white"/>
</clipPath>
</defs>
</svg>
