<svg width="15" height="18" viewBox="0 0 15 18" fill="none" xmlns="http://www.w3.org/2000/svg">
<g clip-path="url(#clip0_10300_282997)">
<path d="M14.9878 4.57687C14.9667 4.45781 14.9274 4.31859 14.8468 4.2375C13.4905 2.86875 12.1268 1.5075 10.7636 0.145312C10.7106 0.0923437 10.6483 0.0482812 10.5906 0H2.01465C1.84313 0.0895313 1.79065 0.233906 1.79861 0.421875C1.80939 0.672188 1.80142 0.923437 1.80142 1.19766H1.60179C1.1922 1.19766 0.782148 1.19578 0.372563 1.19859C0.11669 1.20047 0.00937266 1.30875 0.00234316 1.56C0.0014059 1.58953 0.00187453 1.61859 0.00187453 1.64812C0.00187453 6.94828 0.00234316 12.2484 0 17.5486C0 17.7422 0.0201512 17.9123 0.222132 18H12.9807C13.1522 17.9105 13.2004 17.7656 13.1972 17.5781C13.1878 17.1281 13.1939 16.6781 13.1939 16.2136C13.2623 16.2094 13.3185 16.2038 13.3748 16.2033C13.7497 16.2028 14.1246 16.2033 14.4995 16.2033C14.9208 16.2028 14.9934 16.1316 14.9934 15.7177V4.99781C14.9934 4.85719 15.0117 4.71328 14.9878 4.57687ZM10.8104 1.13344C11.8156 2.1375 12.8494 3.17062 13.8711 4.19156H10.8104V1.13344ZM12.5856 17.3873H0.616721V1.80656H1.80142V15.7219C1.80142 16.1278 1.87641 16.2028 2.28271 16.2028C5.63906 16.2033 8.99588 16.2033 12.3522 16.2033H12.5856V17.3873ZM14.3777 15.5934H2.4144V0.6075H10.1998V0.817031C10.1998 2.00063 10.1998 3.18375 10.2003 4.36734C10.2003 4.71516 10.286 4.80047 10.6384 4.80094C11.8095 4.80141 12.9811 4.80094 14.1522 4.80094H14.3777V15.5934Z" fill="#3478FF"/>
<path d="M13.1897 13.1902C13.1948 13.3448 13.1095 13.4456 12.9638 13.485C12.8977 13.5028 12.8246 13.4991 12.7543 13.4991C11.601 13.4995 10.4472 13.4995 9.29346 13.4995C8.13969 13.4995 6.98592 13.5 5.83214 13.4991C5.76231 13.4991 5.69015 13.4995 5.62313 13.4831C5.4802 13.447 5.40334 13.3402 5.40381 13.2C5.40428 13.0519 5.4877 12.945 5.63906 12.9117C5.70092 12.8981 5.767 12.9009 5.8312 12.9009C8.14438 12.9005 10.4575 12.9005 12.7712 12.9009C12.8293 12.9009 12.8898 12.8972 12.946 12.9094C13.0941 12.9422 13.1845 13.0364 13.1897 13.1902Z" fill="#3478FF"/>
<path d="M13.1915 9.59669C13.1929 9.75981 13.0766 9.87747 12.8887 9.89809C12.8306 9.90466 12.7716 9.90184 12.713 9.90184C11.5714 9.90231 10.4293 9.90231 9.28728 9.90231C8.14522 9.90231 7.00363 9.90231 5.86157 9.90137C5.78612 9.90137 5.7088 9.89762 5.63475 9.88309C5.47964 9.85309 5.40278 9.74247 5.40559 9.59481C5.40794 9.44716 5.48901 9.34028 5.64506 9.31403C5.70833 9.30372 5.773 9.30137 5.8372 9.30137C8.14475 9.3009 10.4518 9.30091 12.7594 9.30091C12.8001 9.30091 12.8414 9.29997 12.8822 9.30325C13.0729 9.32012 13.1896 9.43169 13.1915 9.59669Z" fill="#3478FF"/>
<path d="M13.1893 11.3847C13.1982 11.53 13.1255 11.6336 12.9859 11.6768C12.9203 11.6969 12.8481 11.7021 12.7788 11.7021C10.4595 11.7035 8.14023 11.7035 5.82096 11.7021C5.74598 11.7021 5.66678 11.6969 5.59649 11.673C5.45777 11.6261 5.3931 11.515 5.40716 11.3725C5.42075 11.2305 5.50417 11.1354 5.64944 11.1114C5.71833 11.1002 5.78956 11.103 5.85986 11.103C7.00801 11.1025 8.15569 11.1025 9.30384 11.1025C10.4515 11.1025 11.5997 11.1025 12.7474 11.103C12.8116 11.103 12.8772 11.1002 12.94 11.111C13.0918 11.1368 13.1799 11.2319 13.1893 11.3847Z" fill="#3478FF"/>
<path d="M13.1888 6.02949C13.1672 6.18933 13.0697 6.27886 12.909 6.29433C12.8509 6.29996 12.7923 6.29714 12.7337 6.29714C11.5856 6.29761 10.4379 6.29761 9.29021 6.29761C8.14815 6.29761 7.00609 6.29761 5.86403 6.29714C5.79983 6.29714 5.73469 6.29996 5.67096 6.29246C5.51912 6.27511 5.40477 6.16074 5.40431 6.01449C5.40337 5.86449 5.4746 5.75574 5.62644 5.71777C5.68783 5.70277 5.75344 5.69902 5.81717 5.69902C8.13644 5.69808 10.4552 5.69808 12.7745 5.69855C12.8326 5.69855 12.8926 5.69949 12.9488 5.71214C13.11 5.74824 13.2094 5.87761 13.1888 6.02949Z" fill="#3478FF"/>
<path d="M13.1915 7.80644C13.1868 7.99301 13.0546 8.09707 12.8081 8.09707C11.637 8.09848 10.4659 8.09801 9.29478 8.09801H5.85126C5.54665 8.09754 5.40278 8.00238 5.40138 7.80129C5.39997 7.60019 5.54993 7.49754 5.84752 7.49754C8.14897 7.49707 10.4504 7.49707 12.7519 7.49707C12.7697 7.49707 12.787 7.49707 12.8048 7.49754C13.0542 7.50223 13.1957 7.61613 13.1915 7.80644Z" fill="#3478FF"/>
<path d="M5.9933 3.03796C5.99189 2.81296 5.88083 2.70702 5.65588 2.70421C5.36908 2.70046 5.08275 2.70327 4.79594 2.70327C4.51523 2.70327 4.23452 2.70046 3.95381 2.70374C3.71153 2.70655 3.59999 2.81577 3.59859 3.05999C3.59531 3.62155 3.59484 4.18311 3.59859 4.74468C3.59999 4.98561 3.71574 5.09718 3.95803 5.09811C4.51992 5.10046 5.08134 5.10046 5.64276 5.09811C5.87895 5.09671 5.99189 4.9903 5.99377 4.7578C5.99799 4.18452 5.99799 3.61124 5.9933 3.03796ZM5.38783 4.48827H4.20734V3.31171H5.38783V4.48827Z" fill="#3478FF"/>
<path d="M4.79132 6.02656C4.77867 6.17844 4.66573 6.28484 4.49702 6.29469C4.39767 6.30031 4.29785 6.29563 4.1985 6.29563C4.09915 6.29563 3.99933 6.30031 3.89998 6.29469C3.73455 6.28531 3.6188 6.1775 3.60287 6.02656C3.5874 5.88125 3.6891 5.7275 3.84843 5.71437C4.0804 5.69562 4.31613 5.69516 4.5481 5.71484C4.71212 5.72844 4.80444 5.87094 4.79132 6.02656Z" fill="#3478FF"/>
<path d="M4.79128 11.3831C4.7955 11.5458 4.71443 11.6686 4.55556 11.6817C4.31796 11.7019 4.07662 11.7009 3.83949 11.6817C3.68765 11.669 3.59111 11.5205 3.60189 11.3812C3.61314 11.2289 3.72608 11.1173 3.89198 11.1061C3.99695 11.099 4.10286 11.1047 4.20784 11.1047C4.30765 11.1047 4.40747 11.099 4.50635 11.1061C4.67506 11.1183 4.78707 11.228 4.79128 11.3831Z" fill="#3478FF"/>
<path d="M4.79223 13.1895C4.79738 13.3494 4.68585 13.4844 4.51573 13.4942C4.30579 13.5059 4.09396 13.5054 3.88402 13.4947C3.71718 13.4862 3.59628 13.3451 3.60096 13.1928C3.60565 13.0372 3.72749 12.9148 3.89854 12.9036C4.00352 12.897 4.10896 12.9026 4.2144 12.9026C4.2144 12.9026 4.2144 12.9031 4.2144 12.9036C4.31375 12.9036 4.41404 12.8965 4.51292 12.905C4.67694 12.919 4.78754 13.0362 4.79223 13.1895Z" fill="#3478FF"/>
<path d="M4.78984 7.81859C4.78 7.97141 4.69237 8.07031 4.53819 8.08719C4.42853 8.09891 4.31652 8.08953 4.20546 8.08953C4.20546 8.08906 4.20546 8.08906 4.20546 8.08906C4.0883 8.08906 3.97067 8.09797 3.85492 8.08672C3.69793 8.07078 3.61311 7.9625 3.60514 7.81531C3.5967 7.66766 3.67075 7.535 3.82493 7.52281C4.07377 7.50313 4.32637 7.50219 4.57474 7.52375C4.72611 7.53734 4.79968 7.66625 4.78984 7.81859Z" fill="#3478FF"/>
<path d="M4.55426 9.8809C4.31667 9.89824 4.07626 9.8973 3.83866 9.8809C3.68214 9.87012 3.61091 9.74543 3.60294 9.59777C3.59497 9.45574 3.70698 9.32965 3.85881 9.31324C3.97456 9.30059 4.09219 9.31043 4.20888 9.31043C4.20935 9.30574 4.20935 9.30059 4.20935 9.2959C4.31995 9.30105 4.43195 9.29871 4.54161 9.31277C4.69626 9.33293 4.77874 9.43184 4.79139 9.58418C4.80311 9.73277 4.70891 9.87012 4.55426 9.8809Z" fill="#3478FF"/>
</g>
<defs>
<clipPath id="clip0_10300_282997">
<rect width="15" height="18" fill="white"/>
</clipPath>
</defs>
</svg>
