<svg width="18" height="18" viewBox="0 0 18 18" fill="none" xmlns="http://www.w3.org/2000/svg">
<path d="M17.5467 12.6615C16.011 12.6609 14.4759 12.6615 12.9407 12.6615H12.7125V7.44297C13.052 7.48726 13.3424 7.599 13.5976 7.79159C13.8902 8.01251 14.0947 8.28182 14.0974 8.66649C14.0989 8.84724 14.2344 8.98164 14.3963 8.99554C14.5697 9.00996 14.7163 8.89307 14.7505 8.70151C14.7711 8.58822 14.7621 8.46875 14.7922 8.35855C14.944 7.80344 15.4612 7.41929 16.0453 7.41774C16.6289 7.41568 17.1471 7.79777 17.3026 8.3534C17.3332 8.46309 17.3295 8.58204 17.3479 8.69584C17.3791 8.8874 17.523 9.00842 17.6959 8.99503C17.8688 8.98112 17.999 8.84157 18.0001 8.65156C18.0006 8.52951 17.9816 8.40747 17.9732 8.28594C17.8245 6.09484 16.2883 4.15658 14.139 3.48251C13.6793 3.33781 13.1954 3.26829 12.6945 3.15809V2.98198C12.694 2.70494 12.6993 2.42841 12.6908 2.15189C12.6845 1.95312 12.5501 1.82129 12.3761 1.82129C12.1995 1.82129 12.0746 1.95106 12.0635 2.15086C12.0593 2.2281 12.0619 2.30534 12.0619 2.38258C12.0614 2.6519 12.0619 2.92122 12.0619 3.19568C11.8416 3.22504 11.6391 3.24666 11.4388 3.27911C8.95157 3.67871 6.83442 5.75343 6.75587 8.60882C6.7506 8.80141 6.87501 8.94456 7.04951 8.95795C7.23824 8.97288 7.38058 8.84981 7.40693 8.65001C7.42117 8.54187 7.4238 8.43064 7.45438 8.32714C7.6236 7.75503 8.2151 7.36367 8.81187 7.42186C9.46346 7.48571 9.94688 7.96462 9.99327 8.59337C10.0133 8.85702 10.1267 8.99554 10.3238 8.99554C10.5247 8.99606 10.6407 8.85599 10.6533 8.59852C10.6807 8.03825 11.4588 7.40744 12.0435 7.46924V12.6558H6.12009C6.10269 12.5873 6.08793 12.5312 6.07475 12.475C5.88286 11.6728 5.40313 11.0919 4.62343 10.7901C4.30818 10.6686 3.94706 10.6351 3.60334 10.6135C3.14417 10.5842 3.14311 10.6058 2.9897 10.1753C2.9101 9.95077 2.83682 9.72368 2.74773 9.50225C2.51102 8.91263 1.8647 8.61603 1.26161 8.81377C0.653772 9.01254 0.298981 9.65313 0.506162 10.2556C0.909981 11.4307 1.32065 12.6048 1.76612 13.7655C2.01969 14.4257 2.54582 14.8484 3.26384 14.9396C3.81579 15.0091 4.38093 14.9741 4.94026 14.9844C5.04834 14.9864 5.15694 14.9849 5.2882 14.9849C5.24181 15.0899 5.21018 15.1656 5.17591 15.2408C4.83272 15.9921 4.48795 16.7429 4.14739 17.4953C4.01296 17.7924 4.14739 17.9927 4.47793 17.9953C4.89282 17.9979 5.30876 17.986 5.72313 17.9994C5.96405 18.0071 6.09531 17.9098 6.18915 17.6992C6.5703 16.8449 6.96516 15.9963 7.34947 15.1435C7.40008 15.0307 7.45544 14.9803 7.59303 14.9808C9.31269 14.987 11.0329 14.9864 12.7525 14.9813C12.8859 14.9813 12.9465 15.0215 12.9992 15.1399C13.3851 15.9993 13.7837 16.8531 14.168 17.7131C14.2597 17.9191 14.3931 18.0061 14.6235 17.9989C15.0183 17.987 15.4137 17.9963 15.8091 17.9958C16.2187 17.9953 16.3442 17.8078 16.1781 17.4427C15.8355 16.6909 15.4918 15.9401 15.1491 15.1888C15.1217 15.1281 15.0985 15.0652 15.0653 14.9849H17.5288C17.9031 14.9844 17.9901 14.8984 17.9906 14.5266C17.9911 14.0503 17.9911 13.5739 17.9901 13.0976C17.9895 12.7521 17.8973 12.6615 17.5467 12.6615ZM17.0469 7.03926C16.1992 6.62524 15.4158 6.71278 14.6767 7.32145C14.5217 6.14737 14.3035 5.01551 13.6414 3.98922C15.0985 4.27913 16.6684 5.68803 17.0469 7.03926ZM10.0713 7.31939C9.33957 6.71381 8.56198 6.6273 7.72535 7.03102C7.81919 5.94551 9.73285 4.21734 11.0808 4.00106C10.3317 5.40121 10.2769 6.00112 10.0713 7.31939ZM10.6913 7.32505C10.7904 6.82452 10.8494 6.36467 10.9775 5.92388C11.1072 5.47536 11.2817 5.03508 11.4815 4.61128C11.5885 4.3847 11.7683 4.17872 11.9539 4.00209C12.2243 3.74513 12.5338 3.73792 12.7958 4.00364C13.0198 4.23073 13.2186 4.49902 13.363 4.78121C13.7536 5.54333 13.9181 6.37034 14.0183 7.21073C14.0215 7.23494 14.0156 7.25965 14.0125 7.29827C12.9191 6.6206 11.831 6.62575 10.6913 7.32505ZM5.44688 12.6362C4.41888 12.7588 3.69401 12.5276 3.38509 11.2438C4.38409 11.1001 5.33618 11.7474 5.44688 12.6362ZM6.64411 15.177C6.33413 15.8572 6.01887 16.5349 5.7168 17.2182C5.65881 17.3485 5.58711 17.3887 5.45163 17.3804C5.28135 17.3701 5.11002 17.3779 4.9118 17.3779C4.93499 17.3114 4.94923 17.2599 4.97084 17.2115C5.28557 16.5194 5.60293 15.8284 5.91449 15.1347C5.96246 15.0282 6.01676 14.9731 6.14592 14.9818C6.32885 14.9937 6.51284 14.9849 6.72318 14.9849C6.69155 15.0616 6.66994 15.1203 6.64411 15.177ZM15.4543 17.3768C15.2092 17.3768 14.9904 17.3804 14.7716 17.3732C14.7389 17.3722 14.6931 17.33 14.6773 17.296C14.3314 16.5395 13.9888 15.7815 13.6456 15.024C13.6435 15.0194 13.6487 15.0117 13.654 14.9942C13.6751 14.99 13.6877 14.9859 13.7009 14.9859C13.9181 14.9885 14.1791 14.92 14.3393 15.0148C14.4885 15.1033 14.5339 15.3639 14.6198 15.5508C14.8939 16.1477 15.166 16.746 15.4543 17.3768ZM17.3342 14.367H3.7636C2.97178 14.367 2.52684 14.0575 2.26694 13.3299C1.8879 12.268 1.50675 11.2072 1.13087 10.1444C0.975879 9.70565 1.28481 9.31687 1.73133 9.3833C1.98068 9.42037 2.11459 9.58361 2.19313 9.8071C2.42773 10.4755 2.66707 11.1418 2.90324 11.8097C3.25224 12.7964 3.94548 13.2794 5.01618 13.2794H17.3342V14.367Z" fill="#56B611"/>
<path d="M3.6539 1.42578C2.44456 1.42681 1.45715 2.39337 1.45557 3.57723C1.45399 4.75904 2.44456 5.73075 3.65127 5.73023C4.88645 5.73023 5.87227 4.76419 5.86858 3.55921C5.86489 2.37998 4.8738 1.42527 3.6539 1.42578ZM3.66076 5.11281C2.79618 5.11384 2.09029 4.4269 2.08766 3.58187C2.08555 2.73787 2.79197 2.04423 3.65443 2.04423C4.53219 2.04372 5.2365 2.73014 5.23597 3.58547C5.23597 4.42896 4.53113 5.11178 3.66076 5.11281Z" fill="#56B611"/>
<path d="M2.0471 5.46263C2.0123 5.54863 2.0044 5.61403 1.96697 5.65265C1.80618 5.82052 1.64644 5.99148 1.4672 6.13979C1.34384 6.24278 1.19254 6.22166 1.07498 6.10941C0.957418 5.99766 0.928423 5.84936 1.03386 5.72731C1.1899 5.5476 1.36176 5.37664 1.55208 5.23245C1.6185 5.18198 1.77402 5.18971 1.85889 5.2309C1.94324 5.2721 1.99016 5.38796 2.0471 5.46263Z" fill="#56B611"/>
<path d="M3.97326 0.601594C3.97326 0.697375 3.97853 0.79367 3.97221 0.88945C3.96061 1.0599 3.83409 1.18246 3.67224 1.18863C3.51567 1.19533 3.36121 1.07638 3.34961 0.911078C3.33538 0.700979 3.33538 0.488306 3.34908 0.278207C3.36015 0.110334 3.50776 -0.0044992 3.66908 0.00013533C3.83356 0.00425491 3.95956 0.122693 3.97168 0.294171C3.97906 0.39613 3.97326 0.49912 3.97326 0.601594Z" fill="#56B611"/>
<path d="M7.32277 3.57078C7.3291 3.72836 7.23842 3.85709 7.07763 3.87151C6.83776 3.89262 6.59315 3.89262 6.35381 3.87048C6.19302 3.85503 6.10393 3.7263 6.11237 3.56769C6.12027 3.40188 6.21833 3.29322 6.39493 3.27829C6.47137 3.2716 6.5494 3.27314 6.62689 3.2752C6.66063 3.27572 6.6949 3.27675 6.72864 3.27675C6.75974 3.27675 6.79084 3.27623 6.82142 3.2752H6.83144C6.86149 3.27417 6.89154 3.27366 6.92106 3.27366C6.96218 3.27366 7.00224 3.27469 7.04284 3.27829C7.21944 3.29477 7.31592 3.40651 7.32277 3.57078Z" fill="#56B611"/>
<path d="M6.302 1.39573C6.13647 1.59141 5.94194 1.76392 5.75426 1.94054C5.72527 1.96784 5.66991 1.96784 5.58187 1.99358C5.51492 1.94621 5.39683 1.90192 5.35519 1.82056C5.31301 1.73766 5.30247 1.58369 5.35413 1.52035C5.50754 1.33188 5.68889 1.16091 5.87867 1.00643C5.99044 0.915284 6.13277 0.951845 6.23768 1.04969C6.34206 1.1465 6.39478 1.28553 6.302 1.39573Z" fill="#56B611"/>
<path d="M1.20802 3.56203C1.21646 3.73454 1.10206 3.86688 0.913857 3.88594C0.809476 3.89624 0.703513 3.88748 0.598077 3.88748V3.88542C0.492641 3.88542 0.386151 3.89572 0.282297 3.88336C0.104638 3.86276 -0.00607 3.73145 -0.000271034 3.56821C0.00552793 3.40446 0.123616 3.28448 0.305493 3.27675C0.502658 3.26851 0.70035 3.26851 0.897515 3.27624C1.08308 3.28345 1.19959 3.39777 1.20802 3.56203Z" fill="#56B611"/>
<path d="M3.97329 6.57166C3.97329 6.66795 3.97909 6.76476 3.97223 6.86054C3.95958 7.03151 3.86363 7.13346 3.68756 7.15097C3.51781 7.16797 3.36598 7.06292 3.35227 6.8935C3.33487 6.67619 3.3354 6.45579 3.35174 6.23849C3.3644 6.06855 3.51306 5.96247 3.68281 5.97689C3.85942 5.99183 3.95747 6.09224 3.97171 6.26269C3.98014 6.36516 3.97329 6.46867 3.97329 6.57166Z" fill="#56B611"/>
<path d="M2.04333 1.70622C1.98851 1.77523 1.93895 1.89315 1.85407 1.92765C1.76076 1.96524 1.60366 1.96576 1.52933 1.91117C1.34851 1.77677 1.19036 1.60993 1.04116 1.44051C0.934147 1.31847 0.95418 1.17428 1.06647 1.05687C1.17191 0.946161 1.32215 0.908569 1.43918 1.0028C1.63477 1.15986 1.80663 1.34627 1.98165 1.52651C2.01381 1.55946 2.01539 1.62126 2.04333 1.70622Z" fill="#56B611"/>
<path d="M6.3677 5.92478C6.3076 5.9979 6.25383 6.12046 6.16421 6.15651C6.07301 6.19255 5.91749 6.18019 5.84052 6.12407C5.66919 5.99893 5.52105 5.8393 5.37872 5.6807C5.27064 5.56071 5.27855 5.41601 5.38451 5.295C5.49048 5.17347 5.64547 5.13022 5.77094 5.23063C5.96283 5.38306 6.12889 5.56638 6.2997 5.74249C6.33238 5.77596 6.33607 5.83621 6.3677 5.92478Z" fill="#56B611"/>
</svg>
