<svg width="18" height="18" viewBox="0 0 18 18" fill="none" xmlns="http://www.w3.org/2000/svg">
<g clip-path="url(#clip0_10295_305358)">
<path d="M17.9981 3.64875C17.9972 2.90672 17.4445 2.37516 16.6786 2.37187C15.6887 2.36766 14.6987 2.37094 13.7087 2.37094H13.5217C13.5001 2.34375 13.4931 2.33859 13.494 2.33484C13.5526 1.95141 13.3136 1.72312 13.0689 1.48687C12.6386 1.0725 12.2223 0.643594 11.7977 0.223594C11.7156 0.142031 11.62 0.0740625 11.5309 0H4.74597C4.55894 0.118594 4.50926 0.292031 4.51301 0.506719C4.52332 1.05703 4.51629 1.60781 4.51629 2.15812V2.37094H4.29223C3.44335 2.37094 2.59399 2.37047 1.74464 2.37094C0.810916 2.37094 0.263899 2.79375 0.0215619 3.70031C0.0192182 3.71016 0.0074998 3.71766 0 3.72656V14.1328C0.124216 14.393 0.210932 14.6812 0.380615 14.9072C0.704513 15.3389 1.17747 15.4913 1.70996 15.4898C3.23757 15.4861 4.76519 15.4884 6.2928 15.4884H6.51077C6.59936 15.878 6.54874 16.7967 6.41374 17.2969H4.57769C4.30583 17.2969 4.17036 17.3634 4.11739 17.5312C4.04849 17.7464 4.16098 17.8852 4.32411 18H13.6754C13.7359 17.94 13.8118 17.8889 13.8545 17.8177C13.9974 17.5781 13.8231 17.3006 13.5259 17.2983C12.9343 17.2936 12.3428 17.2927 11.7513 17.2997C11.6059 17.3016 11.5389 17.2734 11.5131 17.1112C11.4283 16.5783 11.3711 16.0467 11.4353 15.4884H11.6692C13.2095 15.4884 14.7498 15.4866 16.2905 15.4894C16.9847 15.4908 17.5233 15.2184 17.8298 14.5842C17.9306 14.3756 17.9916 14.1248 17.9925 13.8933C18.0023 10.4784 18.0009 7.06359 17.9981 3.64875ZM11.7916 1.25672C11.9378 1.39453 12.0827 1.53094 12.2458 1.68469H11.7916V1.25672ZM5.23393 0.711563H11.0763V1.92703C11.0767 2.28984 11.1864 2.40141 11.5455 2.40234C11.9481 2.40281 12.3512 2.40234 12.767 2.40234V10.4527H5.23393V0.711563ZM0.703107 4.05094C0.703575 3.44109 1.06497 3.07547 1.67292 3.07453C2.55743 3.07266 3.44241 3.07406 4.32692 3.07406H4.51629V3.3225C4.51629 5.76 4.51629 8.19703 4.51676 10.6345C4.51676 10.7105 4.51582 10.7873 4.52613 10.8623C4.54863 11.0264 4.64707 11.1263 4.80831 11.1553C4.88284 11.1689 4.96018 11.1675 5.03612 11.1675C7.67839 11.168 10.3207 11.168 12.9629 11.168C13.3829 11.168 13.4828 11.0691 13.4828 10.6528C13.4832 8.20922 13.4832 5.76609 13.4832 3.32297V3.07406H13.6721C14.6682 3.07406 15.6643 3.07266 16.6603 3.07453C17.078 3.075 17.296 3.29672 17.2964 3.71719V12.3009H0.703107V4.05094ZM7.18059 17.288C7.21294 16.6959 7.24528 16.1086 7.27856 15.5044H10.6802C10.7182 16.0959 10.7566 16.688 10.795 17.288H7.18059ZM17.2397 14.168C17.1675 14.5195 16.8849 14.7211 16.5193 14.7708C16.4264 14.7834 16.3322 14.7848 16.2385 14.7848C11.4114 14.7853 6.58436 14.7858 1.7573 14.7839C1.62371 14.7839 1.48402 14.782 1.357 14.7464C0.997005 14.6447 0.761699 14.3986 0.72045 14.0297C0.683888 13.7016 0.71295 13.3664 0.71295 13.0242H17.3147C17.2936 13.4077 17.3156 13.7977 17.2397 14.168Z" fill="#FF943B"/>
<path d="M10.9923 3.02833C10.989 2.75833 10.8596 2.63177 10.591 2.62615C10.4049 2.6224 10.2184 2.62568 10.0314 2.62568C10.0182 2.58255 10.0121 2.5713 10.0117 2.56052C10.0103 2.39037 10.0117 2.22068 10.0079 2.05099C10.0018 1.76974 9.87715 1.64412 9.59591 1.64177C9.20358 1.63849 8.81124 1.63943 8.41844 1.64177C8.11564 1.64318 7.9947 1.76599 7.99095 2.07021C7.98908 2.24974 7.99048 2.4288 7.99048 2.62568C7.77908 2.62568 7.59252 2.6224 7.40643 2.62615C7.13832 2.63177 7.00988 2.75927 7.00707 3.02974C7.00285 3.42818 7.00285 3.82662 7.00707 4.22505C7.00988 4.50818 7.14629 4.63568 7.43597 4.63802C7.61596 4.63943 7.79549 4.63802 7.96704 4.63802C7.97923 4.67037 7.98626 4.68068 7.98626 4.69146C7.98814 4.86115 7.98767 5.03083 7.99095 5.20052C7.99658 5.48927 8.12642 5.62052 8.41188 5.62193C8.79249 5.6238 9.17311 5.62287 9.55419 5.6224C9.88371 5.62193 10.0065 5.49771 10.0084 5.16396C10.0093 4.99146 10.0084 4.81849 10.0084 4.63802C10.2203 4.63802 10.4012 4.6399 10.5826 4.63755C10.8484 4.6338 10.9881 4.50396 10.9918 4.24052C10.9974 3.83646 10.997 3.4324 10.9923 3.02833ZM10.277 3.9349H9.77169C9.41076 3.93583 9.30623 4.0413 9.30576 4.40787C9.30529 4.57052 9.30529 4.73318 9.30529 4.91271H8.69359C8.69359 4.72146 8.69546 4.5363 8.69312 4.35068C8.68984 4.05677 8.5689 3.93771 8.27547 3.93537C8.10579 3.93349 7.93611 3.93349 7.76643 3.93208C7.75564 3.93208 7.74486 3.92505 7.72143 3.91708V3.32833C7.90658 3.32833 8.08564 3.32974 8.26469 3.32787C8.5689 3.32458 8.69031 3.20365 8.69312 2.9013C8.695 2.72177 8.69359 2.54177 8.69359 2.35568H9.30576C9.30576 2.55255 9.30342 2.73865 9.30623 2.92427C9.31045 3.1938 9.4356 3.32037 9.70419 3.3274C9.8795 3.33208 10.0553 3.33021 10.2306 3.33255C10.2418 3.33255 10.2526 3.33958 10.277 3.34849V3.9349Z" fill="#FF943B"/>
<path d="M11.4757 8.07135C11.4706 8.26307 11.3309 8.40323 11.1223 8.40838C10.8472 8.41541 10.5725 8.4112 10.2973 8.41166H8.98111C8.30237 8.41166 7.62364 8.41588 6.94538 8.40651C6.8371 8.4051 6.70679 8.36854 6.62757 8.30057C6.43445 8.13557 6.51461 7.81354 6.75835 7.73573C6.83382 7.71135 6.91913 7.70948 7.00022 7.70948C8.33425 7.70807 9.66781 7.70854 11.0018 7.70854C11.0487 7.70854 11.0956 7.7062 11.142 7.71135C11.3473 7.73385 11.4809 7.87916 11.4757 8.07135Z" fill="#FF943B"/>
<path d="M11.4752 9.36699C11.4691 9.56433 11.3229 9.70355 11.1035 9.70495C10.5832 9.70824 10.0624 9.70636 9.54167 9.70636H8.98012C8.30701 9.70636 7.63437 9.7073 6.96127 9.70449C6.88158 9.70449 6.79533 9.69745 6.72268 9.66745C6.58534 9.61074 6.52112 9.49308 6.52534 9.34495C6.53003 9.19683 6.60221 9.0848 6.74284 9.03605C6.81783 9.0098 6.90314 9.00464 6.9833 9.00464C8.32904 9.00277 9.67479 9.00324 11.0205 9.00324C11.0496 9.00324 11.0791 9.0023 11.1082 9.0037C11.3332 9.01495 11.4813 9.16167 11.4752 9.36699Z" fill="#FF943B"/>
<path d="M11.4748 6.78367C11.4669 6.95805 11.3469 7.09023 11.1678 7.10992C11.0755 7.12023 10.9812 7.11695 10.8875 7.11695C10.2556 7.11742 9.62424 7.11742 8.99238 7.11742C8.33146 7.11742 7.67007 7.11742 7.00915 7.11695C6.93931 7.11695 6.86806 7.11742 6.79963 7.10524C6.64213 7.07805 6.53339 6.9468 6.52495 6.78602C6.51604 6.61914 6.61916 6.47008 6.78041 6.43398C6.85916 6.41617 6.94259 6.41477 7.02415 6.41477C8.34037 6.41383 9.65659 6.41383 10.9728 6.41477C11.0426 6.41477 11.1139 6.41523 11.1823 6.42648C11.3665 6.45648 11.4833 6.60227 11.4748 6.78367Z" fill="#FF943B"/>
</g>
<defs>
<clipPath id="clip0_10295_305358">
<rect width="18" height="18" fill="white"/>
</clipPath>
</defs>
</svg>
