<svg width="14" height="14" viewBox="0 0 14 14" fill="none" xmlns="http://www.w3.org/2000/svg">
<path fill-rule="evenodd" clip-rule="evenodd" d="M7 3.5C7 3.5 7.90609 3.5 8.5468 4.1407C8.5468 4.1407 9.1875 4.78141 9.1875 5.6875C9.1875 5.6875 9.1875 6.59359 8.5468 7.2343C8.5468 7.2343 7.90609 7.875 7 7.875C7 7.875 6.09391 7.875 5.4532 7.2343C5.4532 7.2343 4.8125 6.59359 4.8125 5.6875C4.8125 5.6875 4.8125 4.78141 5.4532 4.1407C5.4532 4.1407 6.09391 3.5 7 3.5ZM7 4.375C7 4.375 6.45635 4.375 6.07192 4.75942C6.07192 4.75942 5.6875 5.14384 5.6875 5.6875C5.6875 5.6875 5.6875 6.23116 6.07192 6.61558C6.07192 6.61558 6.45634 7 7 7C7 7 7.54366 7 7.92808 6.61558C7.92808 6.61558 8.3125 6.23116 8.3125 5.6875C8.3125 5.6875 8.3125 5.14384 7.92808 4.75942C7.92808 4.75942 7.54366 4.375 7 4.375Z" fill="#00AEEB"/>
<path fill-rule="evenodd" clip-rule="evenodd" d="M11.4462 3.84584C11.4462 3.84584 11.8125 4.73024 11.8125 5.6875C11.8125 5.6875 11.8125 8.31205 9.51764 10.9511C9.51764 10.9511 8.8124 11.7622 7.96694 12.4808C7.96694 12.4808 7.54115 12.8427 7.25089 13.0459C7.10025 13.1514 6.89975 13.1514 6.74911 13.0459C6.74911 13.0459 6.45886 12.8427 6.03306 12.4808C6.03306 12.4808 5.18761 11.7622 4.48236 10.9511C4.48236 10.9511 2.1875 8.31205 2.1875 5.6875C2.1875 5.6875 2.1875 4.73023 2.55383 3.84584C2.55383 3.84584 2.92016 2.96144 3.59705 2.28455C3.59705 2.28455 4.27394 1.60766 5.15834 1.24133C5.15834 1.24133 6.04273 0.875 7 0.875C7 0.875 7.95727 0.875 8.84166 1.24133C8.84166 1.24133 9.72606 1.60766 10.403 2.28455C10.403 2.28455 11.0798 2.96144 11.4462 3.84584ZM10.9375 5.6875C10.9375 5.6875 10.9375 4.90428 10.6378 4.18068C10.6378 4.18068 10.3381 3.45709 9.78423 2.90327C9.78423 2.90327 9.23041 2.34945 8.50682 2.04972C8.50682 2.04972 7.78322 1.75 7 1.75C7 1.75 6.21678 1.75 5.49318 2.04972C5.49318 2.04972 4.76959 2.34945 4.21577 2.90327C4.21577 2.90327 3.66195 3.45709 3.36222 4.18068C3.36222 4.18068 3.0625 4.90428 3.0625 5.6875C3.0625 5.6875 3.0625 7.98482 5.14264 10.377C5.14264 10.377 5.80458 11.1382 6.59975 11.8141C6.59975 11.8141 6.8217 12.0028 7 12.1421C7 12.1421 7.1783 12.0028 7.40025 11.8141C7.40025 11.8141 8.19542 11.1382 8.85736 10.377C8.85736 10.377 10.9375 7.98482 10.9375 5.6875Z" fill="#00AEEB"/>
</svg>
