<svg width="27" height="20" viewBox="0 0 27 20" fill="none" xmlns="http://www.w3.org/2000/svg">
<path fill-rule="evenodd" clip-rule="evenodd" d="M0.5 18V1C0.5 0.447715 0.947715 0 1.5 0H25.5C26.0523 0 26.5 0.447715 26.5 1V18C26.5 18 26.5 18.8284 25.9142 19.4142C25.9142 19.4142 25.3284 20 24.5 20H2.5C2.5 20 1.67157 20 1.08579 19.4142C1.08579 19.4142 0.5 18.8284 0.5 18ZM2.5 18H24.5V2H2.5V18Z" fill="#00AEEB"/>
<path d="M2.17572 0.262846C1.99129 0.0937852 1.75019 0 1.5 0C1.48552 0 1.47103 0.000314713 1.45656 0.00094384C1.1916 0.0124641 0.942059 0.12877 0.762846 0.324275C0.593785 0.508705 0.5 0.749808 0.5 1C0.5 1.01448 0.500315 1.02897 0.500944 1.04344C0.512464 1.3084 0.62877 1.55794 0.824275 1.73715L12.8243 12.7372C13.2066 13.0876 13.7934 13.0876 14.1757 12.7372L26.1751 1.73777C26.3817 1.54836 26.5 1.28031 26.5 1L26.5 0.991686C26.4979 0.744371 26.4043 0.506591 26.2372 0.324275C26.0579 0.12877 25.8084 0.0124643 25.5434 0.000943899C25.529 0.000314772 25.5145 0 25.5 0L25.4954 1.06096e-05C25.2468 0.00115496 25.0075 0.0948582 24.8243 0.262846L13.5 10.6434L2.17572 0.262846Z" fill="#00AEEB"/>
</svg>
