<svg width="40" height="40" viewBox="0 0 40 40" fill="none" xmlns="http://www.w3.org/2000/svg">
<rect width="40" height="40" rx="8" fill="url(#paint0_linear_10086_297903)"/>
<g clip-path="url(#clip0_10086_297903)">
<path d="M31.9952 18.2925V18.0863C31.4567 18.0078 30.9826 18.0538 30.5506 18.3535C30.3658 18.4818 30.1549 18.5728 29.9517 18.6716C29.8951 18.6987 29.8168 18.7156 29.7587 18.6996C29.1651 18.5389 28.5735 18.3729 27.9828 18.201C27.8953 18.1758 27.8183 18.1143 27.7366 18.0693C27.7888 17.9904 27.8261 17.8941 27.8953 17.8355C28.2233 17.5581 28.4753 17.2279 28.6577 16.8396C28.9523 16.2122 28.9218 15.5441 28.8904 14.8818C28.8338 13.6807 27.9978 12.6471 26.845 12.3387C26.6012 12.2734 26.3433 12.2603 26.0695 12.2196C26.1827 11.9558 26.2872 11.6881 26.4111 11.4295C26.4735 11.2998 26.4435 11.2228 26.3472 11.1279C25.7469 10.5349 25.1528 9.93601 24.5554 9.34006C24.5133 9.29794 24.4654 9.26163 24.4165 9.21999C24.0663 9.44802 23.7233 9.6649 23.388 9.89293C23.2724 9.97136 23.1858 9.98055 23.0523 9.91713C22.6934 9.74769 22.3257 9.59519 21.9537 9.4577C21.8182 9.40783 21.7539 9.34684 21.7273 9.2045C21.6508 8.80026 21.5584 8.3994 21.4728 8H18.5214C18.4348 8.40618 18.3443 8.80074 18.2684 9.19821C18.2422 9.33667 18.1885 9.4059 18.0487 9.45722C17.669 9.59664 17.296 9.7564 16.9279 9.92343C16.8147 9.97474 16.7377 9.98055 16.6328 9.90987C16.2849 9.67362 15.9294 9.4485 15.5632 9.2108C14.9004 9.8755 14.2425 10.5315 13.5938 11.1962C13.5546 11.2359 13.5642 11.3535 13.5894 11.4203C13.692 11.6919 13.81 11.9572 13.9247 12.2313C13.8676 12.2434 13.8526 12.2487 13.8376 12.2496C13.8061 12.2521 13.7752 12.2516 13.7437 12.253C12.7157 12.2952 11.9475 12.7725 11.4313 13.6546C11.1198 14.1871 11.1014 14.7777 11.0879 15.3776C11.0646 16.3933 11.3568 17.2521 12.1778 17.8945C12.3181 18.0044 12.2895 18.1255 12.1217 18.171C11.8508 18.2446 11.5794 18.3182 11.3051 18.3758C11.2315 18.3913 11.1358 18.3675 11.0675 18.3298C10.7337 18.1434 10.3888 17.9701 10.0797 17.7483C9.54853 17.3678 8.97769 17.1911 8.32751 17.2758C8.22011 17.2899 8.10885 17.2749 8 17.2729V25.2929C9.04058 25.6449 10.0802 25.9988 11.1222 26.3469C11.4604 26.4602 11.7888 26.6035 12.1638 26.5783C12.5096 26.555 12.5111 26.5734 12.6683 26.2709C13.0229 26.4829 13.378 26.6935 13.7297 26.9099C13.7694 26.9341 13.8052 26.9898 13.8129 27.0358C13.9193 27.6855 14.3126 28.0336 14.9628 28.1309C15.0078 28.4983 15.1394 28.8358 15.463 29.0376C15.6623 29.1616 15.9516 29.1708 16.1079 29.3252C16.2578 29.4729 16.2612 29.7585 16.3788 29.9531C16.5379 30.217 16.8016 30.3661 17.1083 30.415C17.2438 30.4368 17.2989 30.492 17.3255 30.6323C17.4711 31.4065 18.2834 31.8262 18.9974 31.4931C19.1425 31.4253 19.219 31.4505 19.3423 31.5411C19.5774 31.7139 19.8401 31.849 20.0912 32H20.6069C20.9552 31.8644 21.2701 31.6844 21.4254 31.3213C21.4912 31.1663 21.5265 30.9983 21.5749 30.8376C22.2115 30.7529 22.539 30.446 22.6943 29.8142C22.7103 29.7508 22.8037 29.6738 22.8719 29.6607C23.3716 29.5668 23.7659 29.1969 23.8375 28.705C23.8602 28.5487 23.9211 28.5041 24.0682 28.4794C24.5839 28.3928 24.9845 27.9484 25.0106 27.4303C25.0188 27.259 25.0793 27.1733 25.2317 27.0978C27.4178 26.0109 29.6 24.9163 31.7857 23.8285C31.9347 23.7544 32.001 23.6774 32 23.4978C31.9918 21.7627 31.9952 20.0276 31.9952 18.2925ZM26.2026 13.0242C26.9635 13.0117 27.7651 13.6008 28.0012 14.3619C28.1807 14.9409 28.1638 15.5373 28.0718 16.1246C27.9833 16.6876 27.6514 17.1112 27.1633 17.3973C27.0032 17.4908 26.9529 17.5954 26.9635 17.7696C26.9776 18.0035 26.9868 18.2402 26.9626 18.4721C26.9379 18.7055 27.038 18.7771 27.2465 18.8231C27.7758 18.9398 28.2992 19.0806 28.8957 19.2298C27.4497 19.9918 26.0637 20.7223 24.6429 21.4708C24.6202 20.625 24.776 19.7734 24.0769 19.0845C24.462 18.9877 24.8006 18.8875 25.146 18.8207C25.3623 18.7786 25.446 18.6909 25.4252 18.4639C25.4024 18.216 25.4111 17.9643 25.4232 17.7144C25.4305 17.5692 25.3744 17.4917 25.2529 17.4201C24.5752 17.0202 24.2404 16.4189 24.2617 15.6342C24.2728 15.2154 24.2641 14.7831 24.3648 14.3822C24.5699 13.5674 25.3289 13.0393 26.2026 13.0242ZM23.8733 21.7215C23.8757 21.875 23.8157 21.9409 23.6667 21.9244C23.5665 21.9128 23.4645 21.905 23.3682 21.8779C22.6779 21.6852 21.989 21.4848 21.2982 21.2931C20.3916 21.0414 19.4821 20.7978 18.5756 20.5456C17.8533 20.3447 17.1272 20.3529 16.3962 20.4856C16.3149 20.5006 16.2332 20.5103 16.1504 20.5224C16.0982 19.9201 16.448 19.4476 17.0565 19.2898C17.6903 19.1252 18.325 18.9635 18.9631 18.8178C19.1691 18.7708 19.2596 18.6841 19.2233 18.4721C19.2117 18.4038 19.2141 18.3312 19.2228 18.262C19.2804 17.805 19.1982 17.4598 18.7473 17.1771C18.2809 16.8851 18.0729 16.3608 18.0763 15.7997C18.0787 15.3267 18.0662 14.8383 18.1755 14.3842C18.3738 13.5597 19.1774 13.0117 20.0331 13.0238C20.813 13.0344 21.5884 13.6178 21.8144 14.3846C21.9924 14.9883 21.9832 15.609 21.8603 16.2166C21.7534 16.7462 21.4186 17.1432 20.9504 17.4104C20.8057 17.4932 20.7607 17.5886 20.7685 17.7454C20.7801 17.9875 20.7883 18.2315 20.768 18.4716C20.7506 18.6841 20.8246 18.7708 21.0311 18.8178C21.662 18.9616 22.2884 19.1237 22.9149 19.2849C23.5225 19.4413 23.8452 19.8315 23.8674 20.456C23.8824 20.8772 23.8665 21.2999 23.8733 21.7215ZM23.2536 18.489C23.1868 18.505 23.1118 18.5278 23.0489 18.5133C22.5787 18.4014 22.1095 18.2857 21.6426 18.1613C21.496 18.1226 21.5028 17.9919 21.6566 17.8694C22.0311 17.5711 22.3523 17.2168 22.4892 16.7607C22.8801 15.4599 22.9081 14.1823 21.9247 13.1075C21.1506 12.2618 20.157 12.0236 19.0806 12.4167C17.9912 12.8141 17.3865 13.6405 17.2989 14.802C17.2558 15.3756 17.236 15.9576 17.4126 16.5225C17.578 17.0522 17.8765 17.4879 18.3017 17.8427C18.3782 17.9062 18.4246 18.0054 18.5117 18.1255C17.9505 18.2654 17.4818 18.3821 17.0135 18.4982C16.9685 18.5094 16.9182 18.5292 16.8771 18.5191C16.3996 18.4034 15.9226 18.2877 15.448 18.1608C15.3053 18.1221 15.315 17.987 15.4688 17.865C15.8055 17.5987 16.0827 17.2802 16.2467 16.8842C16.6429 15.9256 16.6182 14.952 16.2927 13.9809C16.2433 13.8332 16.2428 13.7282 16.3251 13.5941C17.1654 12.2279 18.3946 11.4891 19.9838 11.4852C21.6136 11.4809 22.8622 12.2448 23.6972 13.6546C23.7373 13.7224 23.7117 13.8444 23.686 13.9325C23.3643 15.0401 23.3082 16.1343 23.911 17.1698C24.06 17.4259 24.3111 17.622 24.5084 17.8515C24.5636 17.9158 24.6226 17.9996 24.6255 18.0766C24.627 18.1134 24.506 18.1719 24.4325 18.1913C24.0411 18.2959 23.6473 18.3927 23.2536 18.489ZM14.5071 11.3768C14.8844 10.9832 15.2719 10.5993 15.6662 10.2033C15.9903 10.4129 16.3004 10.607 16.6023 10.8128C16.7136 10.8888 16.7953 10.897 16.9148 10.821C17.4653 10.471 18.0623 10.2236 18.6984 10.0788C18.8426 10.0464 18.9016 9.9791 18.9258 9.83483C18.9761 9.53516 19.053 9.23984 19.1087 8.94065C19.1333 8.81042 19.188 8.75814 19.3259 8.76056C19.7782 8.76831 20.2315 8.76734 20.6843 8.76104C20.813 8.75911 20.8623 8.81236 20.885 8.93146C20.9445 9.24517 21.0041 9.56033 21.0844 9.86921C21.1042 9.94521 21.1932 10.0401 21.2677 10.0595C21.9218 10.2289 22.5381 10.4821 23.1166 10.8326C23.1766 10.8689 23.2976 10.8612 23.3605 10.8239C23.642 10.6564 23.9153 10.4753 24.1853 10.2894C24.2898 10.2173 24.3561 10.2279 24.4436 10.318C24.775 10.6598 25.1185 10.9904 25.4465 11.3356C25.4948 11.3865 25.518 11.507 25.4934 11.5733C25.3947 11.844 25.2757 12.1073 25.1576 12.3707C25.1339 12.4234 25.0899 12.4752 25.0415 12.5072C24.7832 12.6786 24.5205 12.8437 24.2409 13.0223C23.2042 11.5331 21.7911 10.7 19.9606 10.7126C18.1421 10.7251 16.7431 11.5704 15.7422 13.0441C15.4664 12.8616 15.2061 12.6931 14.9507 12.5164C14.897 12.4796 14.8491 12.4205 14.8225 12.3605C14.7084 12.1039 14.5981 11.8454 14.4989 11.5835C14.4757 11.522 14.4703 11.4145 14.5071 11.3768ZM12.8642 18.7887C12.9886 18.7631 13.0316 18.7108 13.0287 18.5859C13.022 18.2814 13.0345 17.9764 13.021 17.6723C13.0176 17.5958 12.9654 17.4898 12.9025 17.4525C12.1647 17.0144 11.8333 16.3633 11.8754 15.5165C11.8938 15.1442 11.8778 14.7589 11.9712 14.404C12.1918 13.5679 12.9349 13.0402 13.8177 13.0247C14.5647 13.0117 15.3387 13.5611 15.5961 14.3183C15.8128 14.9549 15.8002 15.6143 15.6556 16.2592C15.539 16.7772 15.2023 17.1606 14.7408 17.4225C14.6169 17.4927 14.5656 17.5736 14.5719 17.7178C14.584 17.9909 14.5879 18.2649 14.5724 18.5375C14.5627 18.7088 14.6324 18.7669 14.7862 18.8013C15.1486 18.8822 15.507 18.9795 15.8723 19.0714C15.7436 19.2869 15.5888 19.4733 15.5158 19.6873C15.4263 19.9487 15.3837 20.2314 15.3634 20.5083C15.3513 20.6749 15.3068 20.7359 15.1462 20.7644C14.8259 20.8216 14.5095 20.9019 14.1864 20.9741C14.1864 20.7644 14.1752 20.5698 14.1902 20.3776C14.2028 20.2174 14.1501 20.1264 14.0079 20.046C13.4051 19.7042 12.8091 19.3503 12.1604 18.9712C12.4264 18.901 12.6432 18.8337 12.8642 18.7887ZM10.4348 25.3031C9.90845 25.1269 9.40485 24.9652 8.90851 24.7841C8.84562 24.7614 8.7837 24.6374 8.78176 24.5595C8.77064 24.0444 8.77596 23.5288 8.77596 23.0132V18.0432C8.9235 18.0727 9.06186 18.0674 9.16442 18.1255C10.0371 18.6251 10.9035 19.1354 11.7719 19.6432C11.7913 19.6548 11.8067 19.6732 11.8353 19.6984C11.3704 21.5594 10.9045 23.4242 10.4348 25.3031ZM12.5111 23.8851C12.3292 24.5212 12.1492 25.1579 11.963 25.8114C11.695 25.7224 11.4463 25.6396 11.1716 25.5486C11.6253 23.7321 12.0757 21.9288 12.5353 20.0896C12.8217 20.2561 13.0902 20.3946 13.3345 20.5679C13.3911 20.6081 13.3964 20.7765 13.3703 20.8705C13.0902 21.8774 12.7985 22.8805 12.5111 23.8851ZM15.3648 27.1781C15.1365 27.396 14.8859 27.4042 14.7035 27.211C14.5318 27.0285 14.5468 26.7802 14.7543 26.5657C14.9657 26.3469 15.1805 26.131 15.404 25.9242C15.5404 25.7979 15.7199 25.7514 15.8776 25.8603C15.9937 25.9407 16.0697 26.0782 16.1756 26.2045C16.0876 26.3609 16.0416 26.4873 15.9584 26.5802C15.7707 26.7889 15.568 26.9845 15.3648 27.1781ZM16.4131 28.4252C16.2588 28.5637 16.0232 28.5303 15.881 28.3879C15.7315 28.2384 15.6735 28.0355 15.8075 27.8801C16.0701 27.5746 16.3706 27.3011 16.6637 27.0227C16.7077 26.9811 16.7934 26.983 16.925 26.9467C17.0145 27.0227 17.1707 27.0973 17.2249 27.2178C17.2757 27.3316 17.2718 27.5383 17.1988 27.6269C16.9612 27.9135 16.6908 28.1759 16.4131 28.4252ZM17.5471 29.6055C17.4977 29.653 17.4049 29.6554 17.3724 29.6656C16.999 29.6597 16.7735 29.2908 16.9762 29.0333C17.2157 28.7297 17.5035 28.4601 17.7962 28.2049C17.951 28.0699 18.1542 28.1081 18.3071 28.2529C18.4599 28.3976 18.5175 28.6014 18.3825 28.7598C18.1261 29.0609 17.8335 29.3315 17.5471 29.6055ZM19.4637 30.0412C19.2586 30.2654 19.0434 30.4818 18.8208 30.689C18.6176 30.8788 18.3632 30.8768 18.1929 30.7035C18.0289 30.5375 18.0212 30.2847 18.1992 30.0916C18.4164 29.8573 18.6467 29.6341 18.8798 29.4153C19.024 29.2802 19.2107 29.2371 19.3728 29.3523C19.4884 29.4346 19.5586 29.5803 19.6519 29.7019C19.576 29.8423 19.5387 29.9589 19.4637 30.0412ZM20.7452 30.8783C20.7225 30.9974 20.5962 31.146 20.4821 31.1896C20.1628 31.3121 19.9664 31.0768 19.7588 30.8768C19.947 30.6566 20.1173 30.4566 20.3031 30.2392C20.4826 30.431 20.811 30.5292 20.7452 30.8783ZM24.148 27.5925C23.9816 27.7852 23.6788 27.7847 23.4345 27.5824C22.8627 27.1089 22.2942 26.6325 21.7244 26.1571C21.6238 26.0733 21.5222 25.9906 21.4065 25.8952C21.2387 26.0961 21.0805 26.2854 20.9121 26.4868C21.556 27.0247 22.1849 27.5504 22.8133 28.0757C22.8496 28.1057 22.8878 28.1328 22.9217 28.1652C23.1012 28.3376 23.1374 28.5356 23.0228 28.7118C22.9072 28.8905 22.6474 28.9602 22.4389 28.8542C22.3431 28.8053 22.2585 28.7322 22.1748 28.6624C21.5381 28.1338 20.9029 27.6032 20.247 27.0566C20.083 27.2522 19.9248 27.4405 19.7516 27.6468C19.9804 27.8394 20.1986 28.0239 20.4177 28.2074C20.8434 28.5627 21.2711 28.9161 21.6949 29.2734C21.9353 29.4753 21.9895 29.6907 21.8569 29.882C21.7166 30.0843 21.4327 30.1381 21.1932 29.9463C20.8183 29.6467 20.4588 29.3228 20.1226 28.9795C19.8706 28.7225 19.5915 28.555 19.2233 28.5119C19.1822 28.1178 19.0269 27.7789 18.6859 27.5722C18.5044 27.4618 18.2331 27.4671 18.0932 27.3287C17.9549 27.1912 17.9563 26.9235 17.8499 26.7395C17.6874 26.4582 17.4232 26.2815 17.0996 26.2302C16.9506 26.2065 16.8935 26.1498 16.8635 26.0041C16.6763 25.0896 15.6231 24.7178 14.9164 25.3283C14.6111 25.5916 14.3518 25.9083 14.0669 26.205C13.6755 25.9702 13.3137 25.7567 12.9586 25.5331C12.9179 25.5074 12.886 25.4135 12.8996 25.3651C13.2188 24.2235 13.5434 23.0829 13.8743 21.9447C13.8913 21.8876 13.9711 21.8218 14.032 21.8087C15.0141 21.5928 15.9927 21.3531 16.984 21.1866C17.7053 21.0651 18.4101 21.2515 19.142 21.5313C19.0216 21.5942 18.9418 21.6368 18.861 21.6775C18.2969 21.9622 17.7256 22.2328 17.1707 22.5339C16.6686 22.8065 16.4509 23.3182 16.5331 23.9321C16.5999 24.4302 16.9898 24.8596 17.5074 24.9855C17.8552 25.0698 18.1885 25.0175 18.4982 24.8301C18.9321 24.5677 19.367 24.3063 19.8029 24.0473C20.2421 23.7863 20.5721 23.8202 20.9518 24.162C21.974 25.0819 22.9957 26.0017 24.0169 26.922C24.2757 27.1554 24.3207 27.3921 24.148 27.5925ZM31.0001 23.3545C28.9678 24.3644 26.9384 25.3796 24.9119 26.4011C24.7532 26.4815 24.6613 26.4684 24.5312 26.3498C23.5148 25.4241 22.4916 24.5062 21.4689 23.5878C20.8086 22.9958 20.1555 22.9348 19.3936 23.3903C18.978 23.6382 18.5649 23.8899 18.1484 24.1354C17.8306 24.3223 17.5142 24.2559 17.3594 23.9785C17.1954 23.6837 17.3028 23.3308 17.6225 23.1676C18.3167 22.8128 19.0143 22.4637 19.7134 22.118C20.1463 21.9041 20.5967 21.89 21.0577 22.0246C21.7239 22.2192 22.3905 22.4105 23.0581 22.5983C23.2076 22.6404 23.3609 22.6709 23.5143 22.6942C23.8012 22.7382 24.0556 22.6646 24.3159 22.5262C26.5194 21.3541 28.7293 20.1946 30.9377 19.0318C31.018 18.9896 31.0997 18.9494 31.2187 18.8894V19.1576C31.2187 20.4391 31.2144 21.7206 31.2236 23.0016C31.225 23.1875 31.1621 23.2741 31.0001 23.3545Z" fill="#333333"/>
</g>
<defs>
<linearGradient id="paint0_linear_10086_297903" x1="20" y1="0" x2="20" y2="40" gradientUnits="userSpaceOnUse">
<stop stop-color="#F1F5FF"/>
<stop offset="1" stop-color="#D1DFFF"/>
</linearGradient>
<clipPath id="clip0_10086_297903">
<rect width="24" height="24" fill="white" transform="translate(8 8)"/>
</clipPath>
</defs>
</svg>
