<svg width="22" height="22" viewBox="0 0 22 22" fill="none" xmlns="http://www.w3.org/2000/svg">
<path d="M13.75 5.5H8.25C7.8703 5.5 7.5625 5.8078 7.5625 6.1875C7.5625 6.5672 7.8703 6.875 8.25 6.875H13.75C14.1297 6.875 14.4375 6.5672 14.4375 6.1875C14.4375 5.8078 14.1297 5.5 13.75 5.5Z" fill="#333333"/>
<path d="M13.75 8.25H8.25C7.8703 8.25 7.5625 8.5578 7.5625 8.9375C7.5625 9.3172 7.8703 9.625 8.25 9.625H13.75C14.1297 9.625 14.4375 9.3172 14.4375 8.9375C14.4375 8.5578 14.1297 8.25 13.75 8.25Z" fill="#333333"/>
<path fill-rule="evenodd" clip-rule="evenodd" d="M16.5 2.0625C16.5 2.0625 17.0695 2.0625 17.4723 2.46523C17.4723 2.46523 17.875 2.86796 17.875 3.4375V18.5625C17.875 18.5625 17.875 19.132 17.4723 19.5348C17.4723 19.5348 17.0695 19.9375 16.5 19.9375H5.5C5.5 19.9375 4.93045 19.9375 4.52773 19.5348C4.52773 19.5348 4.125 19.132 4.125 18.5625V3.4375C4.125 3.4375 4.125 2.86795 4.52773 2.46523C4.52773 2.46523 4.93046 2.0625 5.5 2.0625H16.5ZM16.5 3.4375H5.5V18.5625H16.5V3.4375Z" fill="#333333"/>
<path d="M12.0312 15.4688C12.0312 16.0383 11.5695 16.5 11 16.5C10.4305 16.5 9.96875 16.0383 9.96875 15.4688C9.96875 14.8992 10.4305 14.4375 11 14.4375C11.5695 14.4375 12.0312 14.8992 12.0312 15.4688Z" fill="#333333"/>
</svg>
