<svg width="22" height="22" viewBox="0 0 22 22" fill="none" xmlns="http://www.w3.org/2000/svg">
<path d="M8.25001 19.9376H13.75C14.1297 19.9376 14.4375 19.6298 14.4375 19.2501C14.4375 18.8704 14.1297 18.5626 13.75 18.5626H8.25001C7.87031 18.5626 7.56251 18.8704 7.56251 19.2501C7.56251 19.6298 7.87031 19.9376 8.25001 19.9376Z" fill="#333333"/>
<path fill-rule="evenodd" clip-rule="evenodd" d="M4.14221 9.62507V8.93757C4.14221 8.93757 4.14028 7.56651 4.66576 6.29909C4.66576 6.29909 5.19124 5.03167 6.16343 4.06352C6.16343 4.06352 7.13562 3.09536 8.40521 2.57516C8.40521 2.57516 9.6748 2.05495 11.0468 2.06258C11.0468 2.06258 12.4419 2.07315 13.7123 2.63048C13.7123 2.63048 14.9345 3.16669 15.8754 4.13319C15.8754 4.13319 16.8127 5.09592 17.3267 6.33733C17.3267 6.33733 17.8578 7.62009 17.8578 9.01492V9.62507C17.8578 9.62507 17.8578 13.1912 18.977 15.1244C18.977 15.1244 19.1613 15.4436 19.1617 15.8114C19.1617 15.8114 19.162 16.1791 18.9787 16.498C18.9787 16.498 18.7953 16.8168 18.4773 17.0015C18.4773 17.0015 18.1593 17.1863 17.7915 17.1876L4.21096 17.1876C4.21096 17.1876 3.84075 17.1863 3.52273 17.0015C3.52273 17.0015 3.20471 16.8168 3.02138 16.498C3.02138 16.498 2.83805 16.1791 2.83838 15.8114C2.83838 15.8114 2.83871 15.4436 3.0226 15.1251C3.0226 15.1251 4.14221 13.1912 4.14221 9.62507ZM5.51721 9.62507C5.51721 9.62507 5.51721 13.5605 4.21338 15.8126L17.7867 15.8126C17.7867 15.8126 16.4828 13.5599 16.4828 9.62507V9.01492C16.4828 9.01492 16.4828 6.72825 14.8902 5.09234C14.8902 5.09234 13.2959 3.45466 11.0392 3.43756C11.0392 3.43756 9.9419 3.43146 8.92654 3.84749C8.92654 3.84749 7.91119 4.26353 7.13368 5.03781C7.13368 5.03781 6.35617 5.81209 5.93592 6.82571C5.93592 6.82571 5.51566 7.83932 5.51721 8.93757V9.62507Z" fill="#333333"/>
</svg>
