<svg width="24" height="24" viewBox="0 0 24 24" fill="none" xmlns="http://www.w3.org/2000/svg">
<path fill-rule="evenodd" clip-rule="evenodd" d="M4.51873 10.5001V9.75008C4.51873 9.75008 4.51663 8.25437 5.08988 6.87174C5.08988 6.87174 5.66313 5.4891 6.7237 4.43293C6.7237 4.43293 7.78427 3.37676 9.16928 2.80926C9.16928 2.80926 10.5543 2.24176 12.051 2.25009C12.051 2.25009 13.5729 2.26162 14.9588 2.86961C14.9588 2.86961 16.2922 3.45457 17.3186 4.50894C17.3186 4.50894 18.3411 5.55919 18.9018 6.91345C18.9018 6.91345 19.4812 8.31283 19.4812 9.83445V10.5001C19.4812 10.5001 19.4812 14.3904 20.7022 16.4993C20.7022 16.4993 20.9032 16.8475 20.9036 17.2488C20.9036 17.2488 20.9039 17.65 20.7039 17.9978C20.7039 17.9978 20.504 18.3456 20.157 18.5471C20.157 18.5471 19.8101 18.7487 19.4089 18.7501L4.59373 18.7501C4.59373 18.7501 4.18987 18.7487 3.84294 18.5471C3.84294 18.5471 3.49601 18.3456 3.29602 17.9978C3.29602 17.9978 3.09602 17.65 3.09637 17.2488C3.09637 17.2488 3.09673 16.8475 3.29734 16.5001C3.29734 16.5001 4.51873 14.3904 4.51873 10.5001ZM6.01873 10.5001C6.01873 10.5001 6.01873 14.7933 4.59638 17.2501L19.4036 17.2501C19.4036 17.2501 17.9812 14.7926 17.9812 10.5001V9.83445C17.9812 9.83445 17.9812 7.33991 16.2438 5.55528C16.2438 5.55528 14.5046 3.76872 12.0427 3.75007C12.0427 3.75007 10.8457 3.74341 9.73801 4.19726C9.73801 4.19726 8.63035 4.65112 7.78216 5.49579C7.78216 5.49579 6.93396 6.34046 6.47551 7.44623C6.47551 7.44623 6.01705 8.55199 6.01873 9.75008V10.5001Z" fill="white"/>
<path d="M15.75 18.7502V18.0002C15.75 17.5859 15.4142 17.2502 15 17.2502C14.5858 17.2502 14.25 17.5859 14.25 18.0002V18.7502C14.25 19.6821 13.591 20.3411 13.591 20.3411C12.9319 21.0002 12 21.0002 12 21.0002C11.068 21.0002 10.409 20.3411 10.409 20.3411C9.74997 19.6821 9.74997 18.7502 9.74997 18.7502V18.0002C9.74997 17.5859 9.41418 17.2502 8.99997 17.2502C8.58576 17.2502 8.24997 17.5859 8.24997 18.0002V18.7502C8.24997 20.3035 9.34832 21.4018 9.34832 21.4018C10.4467 22.5002 12 22.5002 12 22.5002C13.5533 22.5002 14.6516 21.4018 14.6516 21.4018C15.75 20.3035 15.75 18.7502 15.75 18.7502Z" fill="white"/>
</svg>
