<svg width="22" height="22" viewBox="0 0 22 22" fill="none" xmlns="http://www.w3.org/2000/svg">
<path d="M17.5902 11L14.4672 14.123L14.467 14.1232C14.3381 14.2522 14.2656 14.427 14.2656 14.6094C14.2656 14.6204 14.2659 14.6314 14.2664 14.6424C14.2746 14.8131 14.3461 14.9747 14.467 15.0955C14.5959 15.2244 14.7708 15.2969 14.9531 15.2969C15.1355 15.2969 15.3103 15.2244 15.4393 15.0955L15.4395 15.0953L19.0486 11.4861C19.1776 11.3572 19.25 11.1823 19.25 11C19.25 10.8177 19.1776 10.6428 19.0486 10.5139L15.4393 6.90457C15.3103 6.77556 15.1355 6.70312 14.9531 6.70312C14.7708 6.70312 14.5959 6.77556 14.467 6.90449C14.3381 7.03342 14.2656 7.20829 14.2656 7.39062C14.2656 7.57296 14.3381 7.74783 14.467 7.87676L17.5902 11Z" fill="#333333"/>
<path d="M8.9375 11.6875H18.5625C18.9422 11.6875 19.25 11.3797 19.25 11C19.25 10.6203 18.9422 10.3125 18.5625 10.3125H8.9375C8.5578 10.3125 8.25 10.6203 8.25 11C8.25 11.3797 8.5578 11.6875 8.9375 11.6875Z" fill="#333333"/>
<path d="M4.125 4.125H8.9375C9.3172 4.125 9.625 3.8172 9.625 3.4375C9.625 3.0578 9.3172 2.75 8.9375 2.75H4.125C3.55546 2.75 3.15273 3.15273 3.15273 3.15273C2.75 3.55546 2.75 4.125 2.75 4.125V17.875C2.75 18.4445 3.15273 18.8473 3.15273 18.8473C3.55546 19.25 4.125 19.25 4.125 19.25H8.9375C9.3172 19.25 9.625 18.9422 9.625 18.5625C9.625 18.1828 9.3172 17.875 8.9375 17.875H4.125V4.125Z" fill="#333333"/>
</svg>
