<svg width="46" height="46" viewBox="0 0 46 46" fill="none" xmlns="http://www.w3.org/2000/svg">
<rect width="46" height="46" rx="5" fill="#FFF4EB"/>
<g clip-path="url(#clip0_10707_324107)">
<path d="M31.9981 17.6487C31.9972 16.9067 31.4445 16.3752 30.6786 16.3719C29.6887 16.3677 28.6987 16.3709 27.7087 16.3709H27.5217C27.5001 16.3438 27.4931 16.3386 27.494 16.3348C27.5526 15.9514 27.3136 15.7231 27.0689 15.4869C26.6386 15.0725 26.2223 14.6436 25.7977 14.2236C25.7156 14.142 25.62 14.0741 25.5309 14H18.746C18.5589 14.1186 18.5093 14.292 18.513 14.5067C18.5233 15.057 18.5163 15.6078 18.5163 16.1581V16.3709H18.2922C17.4433 16.3709 16.594 16.3705 15.7446 16.3709C14.8109 16.3709 14.2639 16.7938 14.0216 17.7003C14.0192 17.7102 14.0075 17.7177 14 17.7266V28.1328C14.1242 28.393 14.2109 28.6812 14.3806 28.9072C14.7045 29.3389 15.1775 29.4913 15.71 29.4898C17.2376 29.4861 18.7652 29.4884 20.2928 29.4884H20.5108C20.5994 29.878 20.5487 30.7967 20.4137 31.2969H18.5777C18.3058 31.2969 18.1704 31.3634 18.1174 31.5312C18.0485 31.7464 18.161 31.8852 18.3241 32H27.6754C27.7359 31.94 27.8118 31.8889 27.8545 31.8177C27.9974 31.5781 27.8231 31.3006 27.5259 31.2983C26.9343 31.2936 26.3428 31.2927 25.7513 31.2997C25.6059 31.3016 25.5389 31.2734 25.5131 31.1112C25.4283 30.5783 25.3711 30.0467 25.4353 29.4884H25.6692C27.2095 29.4884 28.7498 29.4866 30.2905 29.4894C30.9847 29.4908 31.5233 29.2184 31.8298 28.5842C31.9306 28.3756 31.9916 28.1248 31.9925 27.8933C32.0023 24.4784 32.0009 21.0636 31.9981 17.6487ZM25.7916 15.2567C25.9378 15.3945 26.0827 15.5309 26.2458 15.6847H25.7916V15.2567ZM19.2339 14.7116H25.0763V15.927C25.0767 16.2898 25.1864 16.4014 25.5455 16.4023C25.9481 16.4028 26.3512 16.4023 26.767 16.4023V24.4527H19.2339V14.7116ZM14.7031 18.0509C14.7036 17.4411 15.065 17.0755 15.6729 17.0745C16.5574 17.0727 17.4424 17.0741 18.3269 17.0741H18.5163V17.3225C18.5163 19.76 18.5163 22.197 18.5168 24.6345C18.5168 24.7105 18.5158 24.7873 18.5261 24.8623C18.5486 25.0264 18.6471 25.1263 18.8083 25.1553C18.8828 25.1689 18.9602 25.1675 19.0361 25.1675C21.6784 25.168 24.3207 25.168 26.9629 25.168C27.3829 25.168 27.4828 25.0691 27.4828 24.6528C27.4832 22.2092 27.4832 19.7661 27.4832 17.323V17.0741H27.6721C28.6682 17.0741 29.6643 17.0727 30.6603 17.0745C31.078 17.075 31.296 17.2967 31.2964 17.7172V26.3009H14.7031V18.0509ZM21.1806 31.288C21.2129 30.6959 21.2453 30.1086 21.2786 29.5044H24.6802C24.7182 30.0959 24.7566 30.688 24.795 31.288H21.1806ZM31.2397 28.168C31.1675 28.5195 30.8849 28.7211 30.5193 28.7708C30.4264 28.7834 30.3322 28.7848 30.2385 28.7848C25.4114 28.7853 20.5844 28.7858 15.7573 28.7839C15.6237 28.7839 15.484 28.782 15.357 28.7464C14.997 28.6447 14.7617 28.3986 14.7204 28.0297C14.6839 27.7016 14.713 27.3664 14.713 27.0242H31.3147C31.2936 27.4077 31.3156 27.7977 31.2397 28.168Z" fill="#FF943B"/>
<path d="M24.9923 17.0281C24.989 16.7581 24.8596 16.6315 24.591 16.6259C24.4049 16.6222 24.2184 16.6254 24.0314 16.6254C24.0182 16.5823 24.0121 16.5711 24.0117 16.5603C24.0103 16.3901 24.0117 16.2204 24.0079 16.0507C24.0018 15.7695 23.8772 15.6439 23.5959 15.6415C23.2036 15.6382 22.8112 15.6392 22.4184 15.6415C22.1156 15.6429 21.9947 15.7657 21.991 16.07C21.9891 16.2495 21.9905 16.4286 21.9905 16.6254C21.7791 16.6254 21.5925 16.6222 21.4064 16.6259C21.1383 16.6315 21.0099 16.759 21.0071 17.0295C21.0029 17.4279 21.0029 17.8264 21.0071 18.2248C21.0099 18.5079 21.1463 18.6354 21.436 18.6378C21.616 18.6392 21.7955 18.6378 21.967 18.6378C21.9792 18.6701 21.9863 18.6804 21.9863 18.6912C21.9881 18.8609 21.9877 19.0306 21.991 19.2003C21.9966 19.489 22.1264 19.6203 22.4119 19.6217C22.7925 19.6236 23.1731 19.6226 23.5542 19.6222C23.8837 19.6217 24.0065 19.4975 24.0084 19.1637C24.0093 18.9912 24.0084 18.8182 24.0084 18.6378C24.2203 18.6378 24.4012 18.6397 24.5826 18.6373C24.8484 18.6336 24.9881 18.5037 24.9918 18.2403C24.9974 17.8362 24.997 17.4322 24.9923 17.0281ZM24.277 17.9347H23.7717C23.4108 17.9356 23.3062 18.0411 23.3058 18.4076C23.3053 18.5703 23.3053 18.7329 23.3053 18.9125H22.6936C22.6936 18.7212 22.6955 18.5361 22.6931 18.3504C22.6898 18.0565 22.5689 17.9375 22.2755 17.9351C22.1058 17.9332 21.9361 17.9332 21.7664 17.9318C21.7556 17.9318 21.7449 17.9248 21.7214 17.9168V17.3281C21.9066 17.3281 22.0856 17.3295 22.2647 17.3276C22.5689 17.3243 22.6903 17.2034 22.6931 16.9011C22.695 16.7215 22.6936 16.5415 22.6936 16.3554H23.3058C23.3058 16.5523 23.3034 16.7384 23.3062 16.924C23.3104 17.1936 23.4356 17.3201 23.7042 17.3272C23.8795 17.3318 24.0553 17.33 24.2306 17.3323C24.2418 17.3323 24.2526 17.3393 24.277 17.3482V17.9347Z" fill="#FF943B"/>
<path d="M25.4755 22.0709C25.4703 22.2626 25.3306 22.4027 25.1221 22.4079C24.8469 22.4149 24.5722 22.4107 24.2971 22.4112H22.9809C22.3021 22.4112 21.6234 22.4154 20.9451 22.406C20.8369 22.4046 20.7065 22.3681 20.6273 22.3001C20.4342 22.1351 20.5144 21.8131 20.7581 21.7352C20.8336 21.7109 20.9189 21.709 21 21.709C22.334 21.7076 23.6676 21.7081 25.0016 21.7081C25.0485 21.7081 25.0953 21.7057 25.1417 21.7109C25.3471 21.7334 25.4806 21.8787 25.4755 22.0709Z" fill="#FF943B"/>
<path d="M25.475 23.3665C25.4689 23.5638 25.3226 23.7031 25.1033 23.7045C24.583 23.7077 24.0622 23.7059 23.5414 23.7059H22.9799C22.3068 23.7059 21.6341 23.7068 20.961 23.704C20.8813 23.704 20.7951 23.697 20.7224 23.667C20.5851 23.6102 20.5209 23.4926 20.5251 23.3445C20.5298 23.1963 20.602 23.0843 20.7426 23.0356C20.8176 23.0093 20.9029 23.0042 20.9831 23.0042C22.3288 23.0023 23.6745 23.0027 25.0203 23.0027C25.0494 23.0027 25.0789 23.0018 25.1079 23.0032C25.3329 23.0145 25.4811 23.1612 25.475 23.3665Z" fill="#FF943B"/>
<path d="M25.4748 20.7832C25.4669 20.9576 25.3469 21.0897 25.1678 21.1094C25.0755 21.1197 24.9812 21.1165 24.8875 21.1165C24.2556 21.1169 23.6242 21.1169 22.9924 21.1169C22.3315 21.1169 21.6701 21.1169 21.0092 21.1165C20.9393 21.1165 20.8681 21.1169 20.7996 21.1047C20.6421 21.0776 20.5334 20.9463 20.5249 20.7855C20.516 20.6187 20.6192 20.4696 20.7804 20.4335C20.8592 20.4157 20.9426 20.4143 21.0242 20.4143C22.3404 20.4133 23.6566 20.4133 24.9728 20.4143C25.0426 20.4143 25.1139 20.4147 25.1823 20.426C25.3665 20.456 25.4833 20.6018 25.4748 20.7832Z" fill="#FF943B"/>
</g>
<defs>
<clipPath id="clip0_10707_324107">
<rect width="18" height="18" fill="white" transform="translate(14 14)"/>
</clipPath>
</defs>
</svg>
