<svg width="43" height="46" viewBox="0 0 43 46" fill="none" xmlns="http://www.w3.org/2000/svg">
<rect width="43" height="46" rx="5" fill="#EAEEF6"/>
<g clip-path="url(#clip0_10707_324120)">
<path d="M28.9878 18.5769C28.9667 18.4578 28.9274 18.3186 28.8468 18.2375C27.4905 16.8688 26.1268 15.5075 24.7636 14.1453C24.7106 14.0923 24.6483 14.0483 24.5906 14H16.0147C15.8431 14.0895 15.7906 14.2339 15.7986 14.4219C15.8094 14.6722 15.8014 14.9234 15.8014 15.1977H15.6018C15.1922 15.1977 14.7821 15.1958 14.3726 15.1986C14.1167 15.2005 14.0094 15.3087 14.0023 15.56C14.0014 15.5895 14.0019 15.6186 14.0019 15.6481C14.0019 20.9483 14.0023 26.2484 14 31.5486C14 31.7422 14.0202 31.9123 14.2221 32H26.9807C27.1522 31.9105 27.2004 31.7656 27.1972 31.5781C27.1878 31.1281 27.1939 30.6781 27.1939 30.2136C27.2623 30.2094 27.3185 30.2038 27.3748 30.2033C27.7497 30.2028 28.1246 30.2033 28.4995 30.2033C28.9208 30.2028 28.9934 30.1316 28.9934 29.7177V18.9978C28.9934 18.8572 29.0117 18.7133 28.9878 18.5769ZM24.8104 15.1334C25.8156 16.1375 26.8494 17.1706 27.8711 18.1916H24.8104V15.1334ZM26.5856 31.3873H14.6167V15.8066H15.8014V29.7219C15.8014 30.1278 15.8764 30.2028 16.2827 30.2028C19.6391 30.2033 22.9959 30.2033 26.3522 30.2033H26.5856V31.3873ZM28.3777 29.5934H16.4144V14.6075H24.1998V14.817C24.1998 16.0006 24.1998 17.1837 24.2003 18.3673C24.2003 18.7152 24.286 18.8005 24.6384 18.8009C25.8095 18.8014 26.9811 18.8009 28.1522 18.8009H28.3777V29.5934Z" fill="#3478FF"/>
<path d="M27.1897 27.1906C27.1948 27.3453 27.1095 27.4461 26.9638 27.4855C26.8977 27.5033 26.8246 27.4995 26.7543 27.4995C25.601 27.5 24.4472 27.5 23.2935 27.5C22.1397 27.5 20.9859 27.5005 19.8321 27.4995C19.7623 27.4995 19.6901 27.5 19.6231 27.4836C19.4802 27.4475 19.4033 27.3406 19.4038 27.2005C19.4043 27.0524 19.4877 26.9455 19.6391 26.9122C19.7009 26.8986 19.767 26.9014 19.8312 26.9014C22.1444 26.901 24.4575 26.901 26.7712 26.9014C26.8293 26.9014 26.8898 26.8977 26.946 26.9099C27.0941 26.9427 27.1845 27.0369 27.1897 27.1906Z" fill="#3478FF"/>
<path d="M27.1917 23.5967C27.1931 23.7598 27.0769 23.8775 26.889 23.8981C26.8309 23.9047 26.7718 23.9018 26.7132 23.9018C25.5716 23.9023 24.4296 23.9023 23.2875 23.9023C22.1455 23.9023 21.0039 23.9023 19.8618 23.9014C19.7864 23.9014 19.709 23.8976 19.635 23.8831C19.4799 23.8531 19.403 23.7425 19.4058 23.5948C19.4082 23.4472 19.4893 23.3403 19.6453 23.314C19.7086 23.3037 19.7732 23.3014 19.8374 23.3014C22.145 23.3009 24.4521 23.3009 26.7596 23.3009C26.8004 23.3009 26.8416 23.3 26.8824 23.3032C27.0731 23.3201 27.1898 23.4317 27.1917 23.5967Z" fill="#3478FF"/>
<path d="M27.1893 25.3845C27.1982 25.5298 27.1255 25.6334 26.9859 25.6765C26.9203 25.6967 26.8481 25.7018 26.7788 25.7018C24.4595 25.7032 22.1402 25.7032 19.821 25.7018C19.746 25.7018 19.6668 25.6967 19.5965 25.6728C19.4578 25.6259 19.3931 25.5148 19.4072 25.3723C19.4208 25.2303 19.5042 25.1351 19.6494 25.1112C19.7183 25.1 19.7896 25.1028 19.8599 25.1028C21.008 25.1023 22.1557 25.1023 23.3038 25.1023C24.4515 25.1023 25.5997 25.1023 26.7474 25.1028C26.8116 25.1028 26.8772 25.1 26.94 25.1107C27.0918 25.1365 27.1799 25.2317 27.1893 25.3845Z" fill="#3478FF"/>
<path d="M27.1888 20.029C27.1672 20.1888 27.0697 20.2784 26.909 20.2938C26.8509 20.2995 26.7923 20.2967 26.7337 20.2967C25.5856 20.2971 24.4379 20.2971 23.2902 20.2971C22.1482 20.2971 21.0061 20.2971 19.864 20.2967C19.7998 20.2967 19.7347 20.2995 19.671 20.292C19.5191 20.2746 19.4048 20.1602 19.4043 20.014C19.4034 19.864 19.4746 19.7552 19.6264 19.7173C19.6878 19.7023 19.7534 19.6985 19.8172 19.6985C22.1364 19.6976 24.4552 19.6976 26.7745 19.6981C26.8326 19.6981 26.8926 19.699 26.9488 19.7117C27.11 19.7477 27.2094 19.8771 27.1888 20.029Z" fill="#3478FF"/>
<path d="M27.1915 21.8064C27.1868 21.993 27.0546 22.0971 26.8081 22.0971C25.637 22.0985 24.4659 22.098 23.2948 22.098H19.8513C19.5467 22.0975 19.4028 22.0024 19.4014 21.8013C19.4 21.6002 19.5499 21.4975 19.8475 21.4975C22.149 21.4971 24.4504 21.4971 26.7519 21.4971C26.7697 21.4971 26.787 21.4971 26.8048 21.4975C27.0542 21.5022 27.1957 21.6161 27.1915 21.8064Z" fill="#3478FF"/>
<path d="M19.9935 17.038C19.9921 16.813 19.8811 16.707 19.6561 16.7042C19.3693 16.7005 19.083 16.7033 18.7962 16.7033C18.5155 16.7033 18.2348 16.7005 17.9541 16.7037C17.7118 16.7066 17.6002 16.8158 17.5988 17.06C17.5955 17.6216 17.5951 18.1831 17.5988 18.7447C17.6002 18.9856 17.716 19.0972 17.9583 19.0981C18.5202 19.1005 19.0816 19.1005 19.643 19.0981C19.8792 19.0967 19.9921 18.9903 19.994 18.7578C19.9982 18.1845 19.9982 17.6112 19.9935 17.038ZM19.3881 18.4883H18.2076V17.3117H19.3881V18.4883Z" fill="#3478FF"/>
<path d="M18.7911 20.0263C18.7784 20.1782 18.6655 20.2846 18.4968 20.2944C18.3974 20.3001 18.2976 20.2954 18.1983 20.2954C18.0989 20.2954 17.9991 20.3001 17.8997 20.2944C17.7343 20.2851 17.6186 20.1773 17.6026 20.0263C17.5872 19.881 17.6889 19.7273 17.8482 19.7141C18.0802 19.6954 18.3159 19.6949 18.5479 19.7146C18.7119 19.7282 18.8042 19.8707 18.7911 20.0263Z" fill="#3478FF"/>
<path d="M18.7913 25.3836C18.7955 25.5463 18.7144 25.6691 18.5556 25.6822C18.318 25.7023 18.0766 25.7014 17.8395 25.6822C17.6877 25.6695 17.5911 25.5209 17.6019 25.3817C17.6131 25.2294 17.7261 25.1178 17.892 25.1066C17.997 25.0995 18.1029 25.1052 18.2078 25.1052C18.3077 25.1052 18.4075 25.0995 18.5064 25.1066C18.6751 25.1188 18.7871 25.2284 18.7913 25.3836Z" fill="#3478FF"/>
<path d="M18.7925 27.1898C18.7976 27.3496 18.6861 27.4846 18.516 27.4944C18.306 27.5062 18.0942 27.5057 17.8843 27.4949C17.7174 27.4865 17.5965 27.3454 17.6012 27.193C17.6059 27.0374 17.7277 26.9151 17.8988 26.9038C18.0038 26.8973 18.1092 26.9029 18.2146 26.9029C18.2146 26.9029 18.2146 26.9033 18.2146 26.9038C18.314 26.9038 18.4143 26.8968 18.5132 26.9052C18.6772 26.9193 18.7878 27.0365 18.7925 27.1898Z" fill="#3478FF"/>
<path d="M18.7898 21.8188C18.78 21.9717 18.6924 22.0706 18.5382 22.0874C18.4285 22.0992 18.3165 22.0898 18.2055 22.0898C18.2055 22.0893 18.2055 22.0893 18.2055 22.0893C18.0883 22.0893 17.9707 22.0982 17.8549 22.087C17.6979 22.071 17.6131 21.9627 17.6051 21.8156C17.5967 21.6679 17.6707 21.5352 17.8249 21.5231C18.0738 21.5034 18.3264 21.5024 18.5747 21.524C18.7261 21.5376 18.7997 21.6665 18.7898 21.8188Z" fill="#3478FF"/>
<path d="M18.5543 23.8811C18.3167 23.8985 18.0763 23.8975 17.8387 23.8811C17.6821 23.8704 17.6109 23.7457 17.6029 23.598C17.595 23.456 17.707 23.3299 17.8588 23.3135C17.9746 23.3008 18.0922 23.3107 18.2089 23.3107C18.2093 23.306 18.2093 23.3008 18.2093 23.2961C18.3199 23.3013 18.432 23.299 18.5416 23.313C18.6963 23.3332 18.7787 23.4321 18.7914 23.5844C18.8031 23.733 18.7089 23.8704 18.5543 23.8811Z" fill="#3478FF"/>
</g>
<defs>
<clipPath id="clip0_10707_324120">
<rect width="15" height="18" fill="white" transform="translate(14 14)"/>
</clipPath>
</defs>
</svg>
