<svg width="22" height="22" viewBox="0 0 22 22" fill="none" xmlns="http://www.w3.org/2000/svg">
<path fill-rule="evenodd" clip-rule="evenodd" d="M1.77773 8.65273C1.77773 8.65273 2.18046 8.25 2.75 8.25H6.875C7.2547 8.25 7.5625 8.5578 7.5625 8.9375V17.875C7.5625 18.2547 7.2547 18.5625 6.875 18.5625H2.75C2.75 18.5625 2.18046 18.5625 1.77773 18.1598C1.77773 18.1598 1.375 17.757 1.375 17.1875V9.625C1.375 9.625 1.375 9.05546 1.77773 8.65273ZM2.75 9.625V17.1875H6.1875V9.625H2.75Z" fill="#333333"/>
<path d="M17.3508 17.1875H6.875C6.4953 17.1875 6.1875 17.4953 6.1875 17.875C6.1875 18.2547 6.4953 18.5625 6.875 18.5625H17.3508C18.1308 18.5589 18.7122 18.0437 18.7122 18.0437C19.2936 17.5285 19.3907 16.7578 19.3907 16.7578L20.422 8.50715C20.4801 8.07189 20.3512 7.64628 20.3512 7.64628C20.2224 7.22067 19.929 6.88647 19.929 6.88647C19.6357 6.55227 19.2303 6.36934 19.2303 6.36934C18.825 6.1864 18.3803 6.1875 18.3803 6.1875L13.75 6.1875V4.8125C13.75 3.38864 12.7432 2.38182 12.7432 2.38182C11.7364 1.375 10.3125 1.375 10.3125 1.375C10.0521 1.375 9.81404 1.52213 9.69758 1.75504L6.26027 8.62966C6.21254 8.72512 6.1875 8.83077 6.1875 8.9375L6.1875 8.93998C6.18777 9.01304 6.19968 9.0856 6.22278 9.15491C6.28044 9.32789 6.40445 9.47088 6.56754 9.55242C6.663 9.60015 6.76827 9.625 6.875 9.625L6.88432 9.62494C7.14135 9.62145 7.37496 9.47487 7.48992 9.24496L10.719 2.7868C11.3159 2.89911 11.7709 3.35409 11.7709 3.35409C12.375 3.95818 12.375 4.8125 12.375 4.8125V6.875C12.375 7.2547 12.6828 7.5625 13.0625 7.5625L18.3837 7.5625C18.5307 7.56213 18.6647 7.6226 18.6647 7.6226C18.7987 7.68307 18.8956 7.79354 18.8956 7.79354C18.9926 7.90401 19.0352 8.04469 19.0352 8.04469C19.0778 8.18537 19.0577 8.3366 19.0577 8.3366L18.0265 16.5859C17.9941 16.8429 17.8003 17.0146 17.8003 17.0146C17.6065 17.1863 17.3508 17.1875 17.3508 17.1875Z" fill="#333333"/>
</svg>
