<svg width="33" height="32" viewBox="0 0 33 32" fill="none" xmlns="http://www.w3.org/2000/svg">
<path d="M11.6909 15.777C11.5048 15.5992 11.2574 15.5 11 15.5C10.9998 15.5 10.9773 15.5003 10.9773 15.5003C10.7122 15.5063 10.4603 15.6174 10.277 15.8091C10.0992 15.9952 10 16.2426 10 16.5L10.0003 16.5227C10.0063 16.7878 10.1174 17.0397 10.3091 17.223L13.9716 20.723C14.3579 21.0921 14.9662 21.0924 15.3528 20.7236L22.69 13.7238C22.8819 13.5407 22.9935 13.2887 22.9997 13.0235C23.0001 13.0075 23.0001 12.9915 22.9997 12.9755C22.9936 12.727 22.8952 12.4896 22.7236 12.3097C22.5348 12.1119 22.2734 12 22 12L21.9718 12.0004C21.7245 12.0074 21.4887 12.1057 21.3097 12.2764L14.6631 18.6174L11.6909 15.777Z" fill="#00AEEB"/>
<path fill-rule="evenodd" clip-rule="evenodd" d="M16.5 3C16.5 3 19.1442 3 21.5605 4.02201C21.5605 4.02201 23.8936 5.00884 25.6924 6.80761C25.6924 6.80761 27.4912 8.60638 28.478 10.9395C28.478 10.9395 29.5 13.3558 29.5 16C29.5 16 29.5 18.6442 28.478 21.0605C28.478 21.0605 27.4912 23.3936 25.6924 25.1924C25.6924 25.1924 23.8936 26.9912 21.5605 27.978C21.5605 27.978 19.1442 29 16.5 29C16.5 29 13.8558 29 11.4395 27.978C11.4395 27.978 9.10638 26.9912 7.30761 25.1924C7.30761 25.1924 5.50884 23.3936 4.52202 21.0605C4.52202 21.0605 3.5 18.6442 3.5 16C3.5 16 3.5 13.3558 4.52202 10.9395C4.52202 10.9395 5.50885 8.60638 7.30761 6.80761C7.30761 6.80761 9.10638 5.00884 11.4395 4.02201C11.4395 4.02201 13.8558 3 16.5 3ZM16.5 5C16.5 5 14.2614 5 12.2186 5.86402C12.2186 5.86402 10.2448 6.69889 8.72183 8.22182C8.72183 8.22182 7.1989 9.74476 6.36402 11.7186C6.36402 11.7186 5.5 13.7614 5.5 16C5.5 16 5.5 18.2386 6.36402 20.2814C6.36402 20.2814 7.19889 22.2552 8.72183 23.7782C8.72183 23.7782 10.2448 25.3011 12.2186 26.136C12.2186 26.136 14.2614 27 16.5 27C16.5 27 18.7386 27 20.7814 26.136C20.7814 26.136 22.7552 25.3011 24.2782 23.7782C24.2782 23.7782 25.8011 22.2552 26.636 20.2814C26.636 20.2814 27.5 18.2386 27.5 16C27.5 16 27.5 13.7614 26.636 11.7186C26.636 11.7186 25.8011 9.74476 24.2782 8.22183C24.2782 8.22183 22.7552 6.69889 20.7814 5.86402C20.7814 5.86402 18.7386 5 16.5 5Z" fill="#00AEEB"/>
</svg>
