<svg width="22" height="22" viewBox="0 0 22 22" fill="none" xmlns="http://www.w3.org/2000/svg">
<path d="M18.5625 4.125H3.4375C3.0578 4.125 2.75 4.4328 2.75 4.8125C2.75 5.1922 3.0578 5.5 3.4375 5.5H18.5625C18.9422 5.5 19.25 5.1922 19.25 4.8125C19.25 4.4328 18.9422 4.125 18.5625 4.125Z" fill="#333333"/>
<path d="M8.25 8.9375V14.4375C8.25 14.8172 8.5578 15.125 8.9375 15.125C9.3172 15.125 9.625 14.8172 9.625 14.4375V8.9375C9.625 8.5578 9.3172 8.25 8.9375 8.25C8.5578 8.25 8.25 8.5578 8.25 8.9375Z" fill="#333333"/>
<path d="M12.375 8.9375V14.4375C12.375 14.8172 12.6828 15.125 13.0625 15.125C13.4422 15.125 13.75 14.8172 13.75 14.4375V8.9375C13.75 8.5578 13.4422 8.25 13.0625 8.25C12.6828 8.25 12.375 8.5578 12.375 8.9375Z" fill="#333333"/>
<path d="M5.5 17.875V4.8125C5.5 4.4328 5.1922 4.125 4.8125 4.125C4.4328 4.125 4.125 4.4328 4.125 4.8125V17.875C4.125 18.4445 4.52773 18.8473 4.52773 18.8473C4.93046 19.25 5.5 19.25 5.5 19.25H16.5C17.0695 19.25 17.4723 18.8473 17.4723 18.8473C17.875 18.4445 17.875 17.875 17.875 17.875V4.8125C17.875 4.4328 17.5672 4.125 17.1875 4.125C16.8078 4.125 16.5 4.4328 16.5 4.8125V17.875H5.5Z" fill="#333333"/>
<path d="M7.47909 1.97909C6.875 2.58318 6.875 3.4375 6.875 3.4375V4.8125C6.875 5.1922 7.1828 5.5 7.5625 5.5C7.9422 5.5 8.25 5.1922 8.25 4.8125V3.4375C8.25 3.15273 8.45136 2.95136 8.45136 2.95136C8.65273 2.75 8.9375 2.75 8.9375 2.75H13.0625C13.3473 2.75 13.5486 2.95136 13.5486 2.95136C13.75 3.15273 13.75 3.4375 13.75 3.4375V4.8125C13.75 5.1922 14.0578 5.5 14.4375 5.5C14.8172 5.5 15.125 5.1922 15.125 4.8125V3.4375C15.125 2.58319 14.5209 1.97909 14.5209 1.97909C13.9168 1.375 13.0625 1.375 13.0625 1.375H8.9375C8.08318 1.375 7.47909 1.97909 7.47909 1.97909Z" fill="#333333"/>
</svg>
