<svg width="21" height="20" viewBox="0 0 21 20" fill="none" xmlns="http://www.w3.org/2000/svg">
<path fill-rule="evenodd" clip-rule="evenodd" d="M13.6628 2.51376C12.1526 1.875 10.5 1.875 10.5 1.875C8.84739 1.875 7.33719 2.51376 7.33719 2.51376C5.87899 3.13053 4.75476 4.25476 4.75476 4.25476C3.63053 5.37899 3.01376 6.83719 3.01376 6.83719C2.375 8.34739 2.375 10 2.375 10C2.375 11.6526 3.01376 13.1628 3.01376 13.1628C3.63053 14.621 4.75476 15.7452 4.75476 15.7452C4.84115 15.8316 4.92952 15.915 5.01905 15.9954C5.0518 16.0319 5.089 16.0648 5.1301 16.093C6.17818 16.996 7.33719 17.4862 7.33719 17.4862C8.84739 18.125 10.5 18.125 10.5 18.125C12.1526 18.125 13.6628 17.4862 13.6628 17.4862C14.5873 17.0952 15.3776 16.5002 15.8322 16.117C15.8984 16.0782 15.9558 16.0281 16.0025 15.97C16.1587 15.8318 16.2452 15.7452 16.2452 15.7452C17.3695 14.621 17.9862 13.1628 17.9862 13.1628C18.625 11.6526 18.625 10 18.625 10C18.625 8.34739 17.9862 6.83719 17.9862 6.83719C17.3695 5.37899 16.2452 4.25476 16.2452 4.25476C15.121 3.13053 13.6628 2.51376 13.6628 2.51376ZM7.82413 16.335C7.22209 16.0803 6.68717 15.7233 6.29724 15.4244C6.9563 14.4329 7.8844 13.8632 7.8844 13.8632C9.08789 13.1245 10.5 13.125 10.5 13.125C11.9121 13.125 13.1156 13.8632 13.1156 13.8632C13.8733 14.3283 14.4073 14.9997 14.699 15.4332C13.9205 16.0201 13.1759 16.335 13.1759 16.335C11.8991 16.875 10.5 16.875 10.5 16.875C9.10087 16.875 7.82413 16.335 7.82413 16.335ZM7.23051 12.7979C7.23051 12.7979 7.60721 12.5668 8.2048 12.3359C8.08255 12.2439 7.96297 12.1413 7.84835 12.0267C7.84835 12.0267 6.75 10.9283 6.75 9.375C6.75 9.375 6.75 7.8217 7.84835 6.72335C7.84835 6.72335 8.9467 5.625 10.5 5.625C10.5 5.625 12.0533 5.625 13.1517 6.72335C13.1517 6.72335 14.25 7.8217 14.25 9.375C14.25 9.375 14.25 10.9283 13.1517 12.0267C13.1517 12.0267 13.0231 12.1552 12.7916 12.3244C13.1164 12.4462 13.4489 12.6011 13.7695 12.7979C13.7695 12.7979 14.817 13.4409 15.6281 14.5682C15.9488 14.1946 16.4873 13.4978 16.835 12.6759C16.835 12.6759 17.375 11.3991 17.375 10C17.375 10 17.375 8.60087 16.835 7.32413C16.835 7.32413 16.3132 6.09047 15.3614 5.13864C15.3614 5.13864 14.4095 4.18681 13.1759 3.66501C13.1759 3.66501 11.8991 3.125 10.5 3.125C10.5 3.125 9.10087 3.125 7.82413 3.66501C7.82413 3.66501 6.59047 4.18681 5.63864 5.13864C5.63864 5.13864 4.68681 6.09047 4.16502 7.32413C4.16502 7.32413 3.625 8.60087 3.625 10C3.625 10 3.625 11.3991 4.16502 12.6759C4.16502 12.6759 4.59131 13.6837 5.37614 14.5804C5.75917 14.045 6.38289 13.3182 7.23051 12.7979ZM12.2678 11.1428C11.5355 11.875 10.5 11.875 10.5 11.875C9.46447 11.875 8.73223 11.1428 8.73223 11.1428C8 10.4105 8 9.375 8 9.375C8 8.33947 8.73223 7.60723 8.73223 7.60723C9.46447 6.875 10.5 6.875 10.5 6.875C11.5355 6.875 12.2678 7.60723 12.2678 7.60723C13 8.33947 13 9.375 13 9.375C13 10.4105 12.2678 11.1428 12.2678 11.1428Z" fill="#858B8F"/>
</svg>
