<svg width="46" height="46" viewBox="0 0 46 46" fill="none" xmlns="http://www.w3.org/2000/svg">
<rect width="46" height="46" rx="5" fill="#EBFFDD"/>
<g clip-path="url(#clip0_10707_324088)">
<path d="M31.5467 26.6615C30.011 26.6609 28.4759 26.6615 26.9407 26.6615H26.7125V21.443C27.052 21.4873 27.3424 21.599 27.5976 21.7916C27.8902 22.0125 28.0947 22.2818 28.0974 22.6665C28.0989 22.8472 28.2344 22.9816 28.3963 22.9955C28.5697 23.01 28.7163 22.8931 28.7505 22.7015C28.7711 22.5882 28.7621 22.4688 28.7922 22.3586C28.944 21.8034 29.4612 21.4193 30.0453 21.4177C30.6289 21.4157 31.1471 21.7978 31.3026 22.3534C31.3332 22.4631 31.3295 22.582 31.3479 22.6958C31.3791 22.8874 31.523 23.0084 31.6959 22.995C31.8688 22.9811 31.999 22.8416 32.0001 22.6516C32.0006 22.5295 31.9816 22.4075 31.9732 22.2859C31.8245 20.0948 30.2883 18.1566 28.139 17.4825C27.6793 17.3378 27.1954 17.2683 26.6945 17.1581V16.982C26.694 16.7049 26.6993 16.4284 26.6908 16.1519C26.6845 15.9531 26.5501 15.8213 26.3761 15.8213C26.1995 15.8213 26.0746 15.9511 26.0635 16.1509C26.0593 16.2281 26.0619 16.3053 26.0619 16.3826C26.0614 16.6519 26.0619 16.9212 26.0619 17.1957C25.8416 17.225 25.6391 17.2467 25.4388 17.2791C22.9516 17.6787 20.8344 19.7534 20.7559 22.6088C20.7506 22.8014 20.875 22.9446 21.0495 22.958C21.2382 22.9729 21.3806 22.8498 21.4069 22.65C21.4212 22.5419 21.4238 22.4306 21.4544 22.3271C21.6236 21.755 22.2151 21.3637 22.8119 21.4219C23.4635 21.4857 23.9469 21.9646 23.9933 22.5934C24.0133 22.857 24.1267 22.9955 24.3238 22.9955C24.5247 22.9961 24.6407 22.856 24.6533 22.5985C24.6807 22.0383 25.4588 21.4074 26.0435 21.4692V26.6558H20.1201C20.1027 26.5873 20.0879 26.5312 20.0748 26.475C19.8829 25.6728 19.4031 25.0919 18.6234 24.7901C18.3082 24.6686 17.9471 24.6351 17.6033 24.6135C17.1442 24.5842 17.1431 24.6058 16.9897 24.1753C16.9101 23.9508 16.8368 23.7237 16.7477 23.5023C16.511 22.9126 15.8647 22.616 15.2616 22.8138C14.6538 23.0125 14.299 23.6531 14.5062 24.2556C14.91 25.4307 15.3207 26.6048 15.7661 27.7655C16.0197 28.4257 16.5458 28.8484 17.2638 28.9396C17.8158 29.0091 18.3809 28.9741 18.9403 28.9844C19.0483 28.9864 19.1569 28.9849 19.2882 28.9849C19.2418 29.0899 19.2102 29.1656 19.1759 29.2408C18.8327 29.9921 18.4879 30.7429 18.1474 31.4953C18.013 31.7924 18.1474 31.9927 18.4779 31.9953C18.8928 31.9979 19.3088 31.986 19.7231 31.9994C19.964 32.0071 20.0953 31.9098 20.1892 31.6992C20.5703 30.8449 20.9652 29.9963 21.3495 29.1435C21.4001 29.0307 21.4554 28.9803 21.593 28.9808C23.3127 28.987 25.0329 28.9864 26.7525 28.9813C26.8859 28.9813 26.9465 29.0215 26.9992 29.1399C27.3851 29.9993 27.7837 30.8531 28.168 31.7131C28.2597 31.9191 28.3931 32.0061 28.6235 31.9989C29.0183 31.987 29.4137 31.9963 29.8091 31.9958C30.2187 31.9953 30.3442 31.8078 30.1781 31.4427C29.8355 30.6909 29.4918 29.9401 29.1491 29.1888C29.1217 29.1281 29.0985 29.0652 29.0653 28.9849H31.5288C31.9031 28.9844 31.9901 28.8984 31.9906 28.5266C31.9911 28.0503 31.9911 27.5739 31.9901 27.0976C31.9895 26.7521 31.8973 26.6615 31.5467 26.6615ZM31.0469 21.0393C30.1992 20.6252 29.4158 20.7128 28.6767 21.3214C28.5217 20.1474 28.3035 19.0155 27.6414 17.9892C29.0985 18.2791 30.6684 19.688 31.0469 21.0393ZM24.0713 21.3194C23.3396 20.7138 22.562 20.6273 21.7254 21.031C21.8192 19.9455 23.7328 18.2173 25.0808 18.0011C24.3317 19.4012 24.2769 20.0011 24.0713 21.3194ZM24.6913 21.3251C24.7904 20.8245 24.8494 20.3647 24.9775 19.9239C25.1072 19.4754 25.2817 19.0351 25.4815 18.6113C25.5885 18.3847 25.7683 18.1787 25.9539 18.0021C26.2243 17.7451 26.5338 17.7379 26.7958 18.0036C27.0198 18.2307 27.2186 18.499 27.363 18.7812C27.7536 19.5433 27.9181 20.3703 28.0183 21.2107C28.0215 21.2349 28.0156 21.2597 28.0125 21.2983C26.9191 20.6206 25.831 20.6258 24.6913 21.3251ZM19.4469 26.6362C18.4189 26.7588 17.694 26.5276 17.3851 25.2438C18.3841 25.1001 19.3362 25.7474 19.4469 26.6362ZM20.6441 29.177C20.3341 29.8572 20.0189 30.5349 19.7168 31.2182C19.6588 31.3485 19.5871 31.3887 19.4516 31.3804C19.2813 31.3701 19.11 31.3779 18.9118 31.3779C18.935 31.3114 18.9492 31.2599 18.9708 31.2115C19.2856 30.5194 19.6029 29.8284 19.9145 29.1347C19.9625 29.0282 20.0168 28.9731 20.1459 28.9818C20.3289 28.9937 20.5128 28.9849 20.7232 28.9849C20.6916 29.0616 20.6699 29.1203 20.6441 29.177ZM29.4543 31.3768C29.2092 31.3768 28.9904 31.3804 28.7716 31.3732C28.7389 31.3722 28.6931 31.33 28.6773 31.296C28.3314 30.5395 27.9888 29.7815 27.6456 29.024C27.6435 29.0194 27.6487 29.0117 27.654 28.9942C27.6751 28.99 27.6877 28.9859 27.7009 28.9859C27.9181 28.9885 28.1791 28.92 28.3393 29.0148C28.4885 29.1033 28.5339 29.3639 28.6198 29.5508C28.8939 30.1477 29.166 30.746 29.4543 31.3768ZM31.3342 28.367H17.7636C16.9718 28.367 16.5268 28.0575 16.2669 27.3299C15.8879 26.268 15.5067 25.2072 15.1309 24.1444C14.9759 23.7057 15.2848 23.3169 15.7313 23.3833C15.9807 23.4204 16.1146 23.5836 16.1931 23.8071C16.4277 24.4755 16.6671 25.1418 16.9032 25.8097C17.2522 26.7964 17.9455 27.2794 19.0162 27.2794H31.3342V28.367Z" fill="#56B611"/>
<path d="M17.6539 15.4258C16.4446 15.4268 15.4571 16.3934 15.4556 17.5772C15.454 18.759 16.4446 19.7307 17.6513 19.7302C18.8864 19.7302 19.8723 18.7642 19.8686 17.5592C19.8649 16.38 18.8738 15.4253 17.6539 15.4258ZM17.6608 19.1128C16.7962 19.1138 16.0903 18.4269 16.0877 17.5819C16.0855 16.7379 16.792 16.0442 17.6544 16.0442C18.5322 16.0437 19.2365 16.7301 19.236 17.5855C19.236 18.429 18.5311 19.1118 17.6608 19.1128Z" fill="#56B611"/>
<path d="M16.0471 19.4626C16.0123 19.5486 16.0044 19.614 15.967 19.6526C15.8062 19.8205 15.6464 19.9915 15.4672 20.1398C15.3438 20.2428 15.1925 20.2217 15.075 20.1094C14.9574 19.9977 14.9284 19.8494 15.0339 19.7273C15.1899 19.5476 15.3618 19.3766 15.5521 19.2324C15.6185 19.182 15.774 19.1897 15.8589 19.2309C15.9432 19.2721 15.9902 19.388 16.0471 19.4626Z" fill="#56B611"/>
<path d="M17.9733 14.6014C17.9733 14.6971 17.9785 14.7934 17.9722 14.8892C17.9606 15.0597 17.8341 15.1822 17.6722 15.1884C17.5157 15.1951 17.3612 15.0761 17.3496 14.9108C17.3354 14.7007 17.3354 14.4881 17.3491 14.278C17.3602 14.1101 17.5078 13.9953 17.6691 13.9999C17.8336 14.004 17.9596 14.1224 17.9717 14.2939C17.9791 14.3959 17.9733 14.4989 17.9733 14.6014Z" fill="#56B611"/>
<path d="M21.3228 17.5705C21.3291 17.7281 21.2384 17.8568 21.0776 17.8713C20.8378 17.8924 20.5932 17.8924 20.3538 17.8702C20.193 17.8548 20.1039 17.7261 20.1124 17.5674C20.1203 17.4016 20.2183 17.293 20.3949 17.278C20.4714 17.2714 20.5494 17.2729 20.6269 17.275C20.6606 17.2755 20.6949 17.2765 20.7286 17.2765C20.7597 17.2765 20.7908 17.276 20.8214 17.275H20.8314C20.8615 17.2739 20.8915 17.2734 20.9211 17.2734C20.9622 17.2734 21.0022 17.2744 21.0428 17.278C21.2194 17.2945 21.3159 17.4063 21.3228 17.5705Z" fill="#56B611"/>
<path d="M20.302 15.3955C20.1365 15.5912 19.9419 15.7637 19.7543 15.9403C19.7253 15.9676 19.6699 15.9676 19.5819 15.9933C19.5149 15.946 19.3968 15.9017 19.3552 15.8203C19.313 15.7374 19.3025 15.5834 19.3541 15.5201C19.5075 15.3316 19.6889 15.1607 19.8787 15.0062C19.9904 14.915 20.1328 14.9516 20.2377 15.0494C20.3421 15.1463 20.3948 15.2853 20.302 15.3955Z" fill="#56B611"/>
<path d="M15.208 17.5613C15.2165 17.7338 15.1021 17.8662 14.9139 17.8852C14.8095 17.8955 14.7035 17.8867 14.5981 17.8867V17.8847C14.4926 17.8847 14.3862 17.895 14.2823 17.8826C14.1046 17.862 13.9939 17.7307 13.9997 17.5675C14.0055 17.4037 14.1236 17.2837 14.3055 17.276C14.5027 17.2678 14.7003 17.2678 14.8975 17.2755C15.0831 17.2827 15.1996 17.397 15.208 17.5613Z" fill="#56B611"/>
<path d="M17.9733 20.5717C17.9733 20.668 17.9791 20.7648 17.9722 20.8605C17.9596 21.0315 17.8636 21.1335 17.6876 21.151C17.5178 21.168 17.366 21.0629 17.3523 20.8935C17.3349 20.6762 17.3354 20.4558 17.3517 20.2385C17.3644 20.0686 17.5131 19.9625 17.6828 19.9769C17.8594 19.9918 17.9575 20.0922 17.9717 20.2627C17.9801 20.3652 17.9733 20.4687 17.9733 20.5717Z" fill="#56B611"/>
<path d="M16.0433 15.706C15.9885 15.775 15.939 15.8929 15.8541 15.9274C15.7608 15.965 15.6037 15.9655 15.5293 15.9109C15.3485 15.7765 15.1904 15.6097 15.0412 15.4403C14.9341 15.3182 14.9542 15.174 15.0665 15.0566C15.1719 14.9459 15.3222 14.9083 15.4392 15.0026C15.6348 15.1596 15.8066 15.346 15.9817 15.5263C16.0138 15.5592 16.0154 15.621 16.0433 15.706Z" fill="#56B611"/>
<path d="M20.3677 19.925C20.3076 19.9981 20.2538 20.1207 20.1642 20.1568C20.073 20.1928 19.9175 20.1804 19.8405 20.1243C19.6692 19.9992 19.5211 19.8395 19.3787 19.6809C19.2706 19.561 19.2786 19.4163 19.3845 19.2952C19.4905 19.1737 19.6455 19.1305 19.7709 19.2309C19.9628 19.3833 20.1289 19.5666 20.2997 19.7427C20.3324 19.7762 20.3361 19.8365 20.3677 19.925Z" fill="#56B611"/>
</g>
<defs>
<clipPath id="clip0_10707_324088">
<rect width="18" height="18" fill="white" transform="translate(14 14)"/>
</clipPath>
</defs>
</svg>
